<svg width="390" height="817" viewBox="0 0 390 817" fill="none" xmlns="http://www.w3.org/2000/svg">
<path d="M370.726 306.467C370.726 306.467 375.825 314.736 381.115 310.5C386.407 306.272 379.694 299.293 379.694 299.293L370.726 306.467Z" fill="white"/>
<path d="M369.204 303.988L377.377 297.453C378.546 296.519 380.257 296.71 381.192 297.878L381.408 298.148C382.342 299.317 382.151 301.028 380.983 301.963L372.809 308.498C371.641 309.432 369.929 309.241 368.995 308.073L368.779 307.802C367.845 306.634 368.035 304.922 369.204 303.988Z" fill="#036A72"/>
<path d="M377.12 292.117L364.067 302.553C362.971 303.429 362.793 305.028 363.669 306.125L364.101 306.665C364.978 307.761 366.576 307.939 367.673 307.063L380.726 296.627C381.822 295.75 382 294.151 381.123 293.055L380.691 292.515C379.815 291.419 378.216 291.241 377.12 292.117Z" fill="#068FA0"/>
<path d="M370.028 210.32C369.739 210.546 369.33 210.561 369.034 210.318C368.685 210.048 368.63 209.542 368.9 209.193L373.656 203.185C373.929 202.844 374.432 202.781 374.78 203.051C375.129 203.321 375.185 203.827 374.914 204.176L370.159 210.184C370.122 210.232 370.075 210.276 370.032 210.31L370.028 210.32Z" fill="white"/>
<path d="M394.467 235.174C394.374 235.245 394.266 235.299 394.149 235.331L386.681 237.069C386.25 237.167 385.823 236.905 385.725 236.473C385.627 236.042 385.889 235.615 386.321 235.517L393.789 233.779C394.22 233.681 394.647 233.943 394.745 234.375C394.818 234.687 394.702 234.995 394.463 235.184L394.467 235.174Z" fill="white"/>
<path d="M369.732 111H171.09C169.811 91.4897 182.264 72.1841 200.641 66.2036C219.017 60.2005 240.916 68.3412 251.103 84.9408C257.498 77.7325 271.499 78.8922 277.423 86.4643C280.744 70.1375 297.235 57.6992 313.615 59.109C329.994 60.5188 344.108 75.595 344.669 92.2629C349.964 88.7383 358.401 90.33 363.696 93.8319C368.991 97.3337 370.764 104.678 369.709 111H369.732Z" fill="#BAEEFF"/>
<path d="M89.7682 337H-81.9221C-83.0275 320.116 -72.2641 303.409 -56.3809 298.234C-40.4977 293.039 -21.5697 300.084 -12.7651 314.449C-7.23796 308.211 4.86363 309.214 9.98351 315.767C12.8537 301.638 27.1079 290.874 41.2652 292.094C55.4224 293.314 67.6208 306.361 68.1056 320.785C72.6825 317.735 79.9745 319.113 84.5513 322.143C89.1282 325.173 90.6603 331.529 89.7488 337H89.7682Z" fill="#BAEEFF"/>
<path d="M373 629.167V609.833L349.582 604.84C348.319 600.166 346.466 595.74 344.106 591.633L357.136 571.532L343.468 557.864L323.367 570.894C319.26 568.534 314.834 566.681 310.16 565.418L305.167 542H285.833L280.84 565.418C276.166 566.681 271.74 568.534 267.633 570.894L247.532 557.864L233.864 571.532L246.894 591.633C244.534 595.74 242.681 600.166 241.418 604.84L218 609.833V629.167L241.418 634.16C242.681 638.834 244.534 643.26 246.894 647.367L233.864 667.468L247.532 681.136L267.633 668.106C271.74 670.466 276.166 672.319 280.84 673.582L285.833 697H305.167L310.16 673.582C314.834 672.319 319.26 670.466 323.367 668.106L343.468 681.136L357.136 667.468L344.106 647.367C346.466 643.26 348.319 638.834 349.582 634.16L373 629.167ZM295.488 648.347C279.566 648.347 266.653 635.434 266.653 619.5C266.653 603.566 279.566 590.665 295.488 590.665C311.411 590.665 324.335 603.577 324.335 619.5C324.335 635.423 311.423 648.347 295.488 648.347Z" fill="#724CF9"/>
<path d="M369.108 237.388C356.307 221.371 332.697 219.084 317.031 232.61C302.541 245.126 300.367 267.15 312.111 282.271C320.663 293.28 334.244 297.996 347.027 295.765C353.921 294.567 360.907 297.385 365.275 302.856L365.576 303.227L377.442 293.741L377.141 293.369C372.664 287.773 371.75 280.231 374.417 273.586C379.133 261.845 377.565 247.972 369.098 237.384L369.108 237.388Z" fill="#FFAB24"/>
<path d="M376.397 295.104C376.397 295.104 376.376 295.112 376.365 295.125C376.178 295.244 375.929 295.192 375.813 295.013L347.611 251.93L344.999 264.912C344.962 265.098 344.791 265.234 344.596 265.234L331.369 264.93L366.449 300.609C366.603 300.765 366.602 301.017 366.447 301.172C366.299 301.306 366.038 301.325 365.881 301.163L330.109 264.779C329.995 264.663 329.964 264.489 330.025 264.341C330.092 264.191 330.24 264.097 330.405 264.102L344.284 264.427L347.028 250.821C347.059 250.661 347.186 250.535 347.346 250.509C347.504 250.477 347.671 250.545 347.759 250.68L376.497 294.582C376.61 294.755 376.574 294.981 376.416 295.112L376.397 295.104Z" fill="white"/>
<g opacity="0.3">
<path d="M310.485 258.529C309.421 258.458 308.38 259.185 308.279 260.293C308.019 263.21 308.444 266.152 309.519 268.872C309.906 269.843 311.19 270.384 312.145 269.921C313.143 269.441 313.604 268.338 313.194 267.295C313.019 266.855 312.872 266.403 312.735 265.955C312.505 265.09 312.331 264.201 312.245 263.309C312.221 263.075 312.201 262.831 312.191 262.591C312.185 262.479 312.182 262.375 312.176 262.263C312.185 261.755 312.2 261.243 312.249 260.735C312.345 259.693 311.575 258.605 310.485 258.529Z" fill="white"/>
<path d="M319.371 235.3C313.782 239.441 310.108 245.935 309.4 252.849C309.138 255.409 313.111 255.857 313.37 253.29C313.978 247.371 317.084 241.959 321.867 238.423C323.932 236.888 321.439 233.773 319.371 235.3Z" fill="white"/>
</g>
<path d="M310.465 210.642C310.122 210.915 309.62 210.863 309.338 210.517L304.551 204.528C304.278 204.186 304.33 203.684 304.677 203.401C305.019 203.129 305.521 203.181 305.804 203.527L310.59 209.515C310.863 209.858 310.811 210.36 310.465 210.642Z" fill="white"/>
<path d="M293.621 237.311C293.439 237.46 293.188 237.523 292.943 237.463L285.469 235.759C285.037 235.662 284.77 235.235 284.868 234.804C284.965 234.373 285.392 234.106 285.823 234.203L293.297 235.907C293.729 236.004 293.996 236.43 293.898 236.862C293.852 237.044 293.753 237.199 293.621 237.311Z" fill="white"/>
<path d="M297.042 268.676C296.992 268.713 296.943 268.75 296.887 268.773L289.98 272.094C289.579 272.285 289.102 272.117 288.911 271.716C288.719 271.315 288.89 270.845 289.288 270.647L296.196 267.326C296.597 267.135 297.074 267.303 297.265 267.704C297.43 268.042 297.331 268.45 297.042 268.676Z" fill="white"/>
<path d="M315.907 297.982C315.675 298.168 315.345 298.216 315.058 298.074C314.66 297.882 314.495 297.405 314.687 297.007L318.029 290.105C318.222 289.707 318.699 289.542 319.096 289.735C319.494 289.927 319.66 290.404 319.467 290.802L316.125 297.704C316.074 297.815 315.997 297.904 315.907 297.982Z" fill="white"/>
<path d="M340.194 200.077C340.058 200.182 339.885 200.255 339.696 200.252C339.258 200.255 338.895 199.892 338.892 199.454L338.873 191.792C338.87 191.354 339.225 190.995 339.67 190.989C340.109 190.985 340.471 191.348 340.474 191.786L340.494 199.448C340.493 199.7 340.376 199.928 340.194 200.077Z" fill="white"/>
<path d="M132.284 574.794C132.338 574.586 132.408 574.393 132.477 574.2C132.588 573.858 132.714 573.53 132.862 573.225C134.092 570.417 136.065 568.524 136.984 565.346C125.75 551.086 114.032 535.684 112.485 517.606C112.127 513.407 112.321 509.13 111.236 505.072C110.15 500.999 107.421 497.026 103.332 495.996C101.551 495.546 99.7321 495.724 98.0412 496.357C97.6602 496.483 97.3022 496.645 96.9444 496.822C94.6449 497.97 92.6363 499.93 91.3645 502.178C88.9697 506.382 88.5256 511.373 88.1143 516.178C78.5536 504.562 72.6715 490.404 72.4301 475.354C72.3509 470.729 72.7496 466.027 71.6697 461.54C70.5895 457.039 67.6294 452.628 63.1751 451.422C62.1061 451.134 61.0193 451.046 59.9514 451.149C59.5829 451.172 59.2299 451.223 58.8699 451.297C55.5699 451.919 52.4747 454.138 50.5143 456.954C47.7248 460.997 46.809 466.012 46.3259 470.907C39.8723 458.96 37.0873 445.705 37.1737 432.139C37.2057 428.213 37.5101 424.258 36.9084 420.374C36.2919 416.491 34.6273 412.599 31.4692 410.266C28.5737 408.127 24.756 407.69 21.2557 408.596C20.9036 408.692 20.559 408.795 20.2223 408.92C18.6107 409.47 17.1017 410.321 15.8195 411.417C11.5388 415.1 9.65448 421.05 9.97735 426.689C5.72405 413.11 -1.7411 399.457 -5.97965 385.878C-7.37656 381.406 -8.84983 376.816 -11.9016 373.271C-14.9535 369.726 -20.0504 367.485 -24.4122 369.154C-25.4369 369.545 -26.3399 370.095 -27.1217 370.79C-27.4113 371.047 -27.693 371.326 -27.9448 371.619C-30.7265 374.673 -31.7935 379.528 -32.0453 383.866C-33.2905 405.839 -23.3324 428.177 -6.15256 441.953C-11.4506 440.978 -16.4466 444.351 -18.7826 449.218C-19.4109 450.523 -19.8302 451.926 -20.0575 453.34C-20.1232 453.711 -20.1666 454.088 -20.2025 454.472C-20.5389 457.977 -19.8092 461.637 -18.3438 464.861C-16.1034 469.767 -12.3174 473.813 -8.18237 477.285C1.3286 485.286 12.9677 490.72 25.2068 492.886C20.6102 492.598 16.1975 497.671 14.7583 502.04C14.3983 503.125 14.1941 504.243 14.1304 505.381C14.1018 505.758 14.0876 506.12 14.0957 506.489C14.1407 509.551 15.1305 512.622 16.7014 515.268C19.0466 519.234 22.5689 522.364 26.26 525.107C38.5864 534.289 53.5279 539.883 68.8382 541.093C64.162 542.563 61.4409 549.054 61.9055 554.425C61.9359 554.8 61.9882 555.168 62.0553 555.536C62.2167 556.499 62.5023 557.408 62.9187 558.226C65.6965 563.748 71.539 567.006 77.3134 569.174C94.6809 575.692 113.779 575.289 132.328 574.793L132.284 574.794Z" fill="#A8DCE0"/>
<path d="M132.485 574.192C132.595 573.85 132.721 573.523 132.869 573.217C121.142 566.11 109.835 558.323 98.9942 549.929C98.3848 545.358 97.9079 540.771 97.5709 536.173C96.5937 522.902 96.759 509.571 98.0409 496.342C97.6599 496.468 97.3018 496.631 96.9441 496.808C96.8234 498.035 96.7175 499.262 96.6191 500.497C95.35 516.67 95.7661 532.956 97.8385 549.052C97.8385 549.052 97.831 549.045 97.8159 549.031C83.5574 537.895 70.1316 525.695 57.6381 512.596C57.8066 512.541 57.9361 512.391 57.9162 512.155C57.4958 507.116 57.215 502.052 57.0746 496.993C56.8419 488.061 57.0666 479.119 57.7495 470.213C58.2442 463.826 58.9683 457.472 59.9367 451.15C59.5682 451.172 59.2151 451.224 58.8551 451.298C58.5213 453.577 58.2023 455.857 57.92 458.128C56.8026 467.081 56.1587 476.083 55.9871 485.09C55.8133 493.993 56.1116 502.887 56.8449 511.764C56.3845 511.294 55.9312 510.816 55.4779 510.339C42.4205 496.426 30.4111 481.51 19.6088 465.771C18.8849 464.731 18.1899 463.661 17.4804 462.605C17.5017 462.568 17.5231 462.531 17.5296 462.494C18.2135 458.007 18.8086 453.508 19.3073 448.989C20.7847 435.586 21.4408 422.09 21.241 408.597C20.8888 408.692 20.5442 408.795 20.2075 408.921C20.2361 410.898 20.2499 412.875 20.2342 414.853C20.1548 430.419 18.9456 445.956 16.6412 461.354C7.09442 447.006 -1.48532 431.997 -8.94008 416.462C-16.0538 401.673 -22.1376 386.398 -27.144 370.783C-27.4336 371.04 -27.7153 371.319 -27.9671 371.612C-22.305 389.198 -15.2353 406.357 -6.93988 422.87C0.977083 438.617 10.0325 453.779 20.0985 468.248C16.6173 467.671 13.1621 466.931 9.74784 466.042C-0.748237 463.264 -10.8121 458.993 -20.0795 453.348C-20.1452 453.718 -20.1886 454.096 -20.2244 454.48C-19.0428 455.194 -17.8542 455.885 -16.6516 456.546C-5.08716 462.948 7.56141 467.298 20.6031 469.382C20.7217 469.409 20.7948 469.378 20.8755 469.354C21.4775 470.22 22.0795 471.085 22.689 471.958C33.8133 487.572 46.144 502.334 59.5297 516.07C59.824 516.366 60.1183 516.663 60.4126 516.959C56.5674 516.611 52.7413 516.122 48.9267 515.486C36.9718 513.49 25.2593 510.095 14.0862 505.382C14.0576 505.759 14.0433 506.121 14.0514 506.49C15.3925 507.067 16.7325 507.6 18.0946 508.125C31.9086 513.462 46.4763 516.82 61.2266 518.072C61.3302 518.084 61.4037 518.068 61.4765 518.022C72.941 529.629 85.1417 540.482 98.0174 550.48C98.0606 550.767 98.2766 550.859 98.4979 550.854C99.7814 551.838 101.073 552.845 102.371 553.814C104.757 555.609 107.142 557.361 109.571 559.096C105.437 559.366 101.292 559.467 97.1502 559.398C85.2413 559.165 73.3821 557.493 61.8688 554.433C61.8992 554.809 61.9515 555.176 62.0186 555.544C62.4936 555.667 62.9689 555.805 63.4512 555.92C78.7383 559.78 94.6364 561.207 110.361 560.098C110.53 560.087 110.647 560.011 110.733 559.921C117.817 564.947 125.066 569.711 132.485 574.207L132.485 574.192Z" fill="#75BBBC"/>
<path d="M73.9348 79.9051C73.8731 79.7972 73.8036 79.697 73.7419 79.5967C64.9971 65.5585 66.0545 46.3165 75.7023 32.8718C75.8181 32.7099 75.9416 32.5403 76.0573 32.3784C76.1963 32.5558 76.3352 32.7485 76.4741 32.9412C81.3752 39.5402 83.9685 48.0356 83.9608 56.2536C83.9608 64.4021 80.2637 73.7532 74.56 79.3038C74.3593 79.5119 74.1432 79.7124 73.9271 79.9051H73.9348Z" fill="#A8DCE0"/>
<path d="M73.9351 79.9049C73.8734 79.797 73.8039 79.6968 73.7422 79.5965C74.514 74.5933 75.1083 69.5593 75.5174 64.5098C76.3741 53.9869 76.4436 43.4023 75.7026 32.8639C75.8184 32.702 75.9419 32.5324 76.0576 32.3705C76.1966 32.5479 76.3355 32.7406 76.4744 32.9333C77.308 44.9749 77.0996 57.086 75.8647 69.0967C75.5174 72.5042 75.0852 75.9116 74.5603 79.2959C74.3596 79.504 74.1435 79.7045 73.9274 79.8972L73.9351 79.9049Z" fill="#75BBBC"/>
<path d="M67.7757 67.393C67.7139 67.2851 67.6522 67.1849 67.5827 67.0769C58.9769 52.9538 41.3022 45.2139 24.9397 47.7579C24.739 47.7887 24.5383 47.8196 24.3376 47.8504C24.438 48.0586 24.546 48.2667 24.6541 48.4749C28.3434 55.8216 34.7649 61.9658 42.1127 65.6585C49.3986 69.328 59.4169 70.2531 66.9498 67.6705C67.2277 67.5857 67.5055 67.4855 67.7757 67.3776V67.393Z" fill="#A8DCE0"/>
<path d="M67.7758 67.393C67.714 67.2851 67.6523 67.1849 67.5828 67.0769C62.7589 65.512 57.9968 63.7697 53.3041 61.8579C43.5098 57.88 34.0241 53.1697 24.9475 47.7579C24.7468 47.7887 24.5461 47.8196 24.3455 47.8504C24.4458 48.0586 24.5539 48.2667 24.6619 48.4749C35.0429 54.6421 45.9641 59.9229 57.2559 64.24C60.4589 65.4657 63.7006 66.6144 66.9576 67.6782C67.2355 67.5934 67.5133 67.4932 67.7835 67.3853L67.7758 67.393Z" fill="#75BBBC"/>
<path d="M89.6489 117.017C87.4261 110.857 85.0566 104.751 82.5559 98.6997C80.0629 92.6712 77.431 86.7043 74.6679 80.7914C71.8893 74.8631 68.9796 68.9888 65.9386 63.1915C62.8976 57.3943 59.7177 51.6664 56.4144 46.0079C53.111 40.3572 49.6764 34.7758 46.1105 29.2792C45.6629 28.5854 45.2075 27.8915 44.7599 27.2054C44.4897 26.7891 43.8182 27.1746 44.0961 27.5909C47.6696 33.0412 51.1274 38.5764 54.4539 44.1809C57.7959 49.8162 61.0067 55.521 64.0862 61.3028C67.1504 67.0538 70.0833 72.8819 72.885 78.7717C75.6944 84.6845 78.3726 90.6591 80.9119 96.6876C83.4358 102.701 85.8284 108.76 88.0744 114.881C88.36 115.66 88.6455 116.431 88.9234 117.209C89.0932 117.672 89.8342 117.471 89.6644 117.001L89.6489 117.017Z" fill="#75BBBC"/>
<path d="M48.5418 34.7527C44.5284 36.4872 39.7585 36.0709 35.8686 34.082C31.9786 32.093 28.9453 28.6393 27.0158 24.7231C25.0862 20.8069 24.2064 16.4358 23.9517 12.0725C30.3809 12.8202 36.5632 15.8499 41.0629 20.4985C39.6428 13.3213 41.6341 5.65849 46.2881 0C50.3633 4.98779 53.8674 10.5769 54.8399 16.9446C55.8124 23.3123 54.4694 32.1932 48.5496 34.745L48.5418 34.7527Z" fill="#FF812C"/>
<path d="M20.0077 24.4918C22.5624 30.1503 26.9001 35.0764 32.4186 37.9211C37.9448 40.7658 44.6596 41.4133 50.4792 39.2317C56.2987 37.0577 61.0454 31.962 62.3729 25.8949C64.0632 18.1627 60.3353 10.361 56.4839 3.43826C53.1342 7.89413 50.8728 13.0515 49.9003 18.5404C45.2694 11.9029 38.9868 6.52191 31.639 3.12219C29.4471 11.2168 30.1494 19.9897 33.4991 27.6757C29.4316 24.5227 25.1017 23.7749 20 24.4995L20.0077 24.4918Z" fill="#FFAB24"/>
<path d="M295.131 814.714C284.811 813.542 274.328 816.308 265.105 821.073C259.796 823.82 254.785 827.24 249.101 829.085C243.408 830.929 236.666 830.929 231.992 827.211C230.039 825.665 228.645 823.571 227.827 821.246C227.654 820.814 227.5 820.343 227.394 819.882C226.413 816.212 226.721 812.101 228.221 808.575C230.876 802.293 236.521 797.711 242.619 794.646C252.794 789.555 265.047 787.701 273.145 779.814C273.386 779.565 273.636 779.315 273.876 779.065C274.318 778.594 274.751 778.104 275.155 777.605C279.887 771.841 282.195 764.348 285.956 757.845C293.756 744.338 308.47 735.193 323.955 733.8C324.474 733.743 324.984 733.714 325.494 733.685C326.869 733.608 328.244 733.589 329.62 733.637C334.332 733.791 339.179 734.626 343.661 733.166C350.047 731.072 354.029 724.943 358.222 719.708C362.415 714.453 367.494 709.621 373.197 705.779C373.908 705.289 374.649 704.818 375.39 704.367C384.872 698.555 395.865 695.539 407.128 697.7C410.369 698.334 413.456 699.42 416.312 700.899C416.745 701.12 417.168 701.35 417.591 701.581C426.045 706.384 432.605 714.511 436.615 723.666C436.807 724.108 436.98 724.559 437.182 725.02C439.241 730.092 440.51 735.453 440.885 740.707C441.424 748.363 439.972 756.634 436.836 764.223C436.663 764.675 436.471 765.126 436.259 765.568C429.902 779.91 417.466 791.515 401.222 791.486C399.607 791.486 397.981 791.361 396.346 791.169C392.374 790.727 388.383 789.93 384.469 789.689C384.459 789.709 384.459 789.689 384.44 789.689C381.564 789.507 378.727 789.661 375.947 790.458C364.897 793.686 359.521 805.742 351.596 814.195C351.23 814.608 350.846 814.992 350.461 815.377C348.239 817.557 345.816 819.45 343.017 820.775C335.592 824.291 326.811 823.283 318.896 821.092C310.971 818.912 303.306 815.598 295.131 814.685V814.714Z" fill="#A8DCE0"/>
<path d="M298.91 793.513C298.843 793.465 298.785 793.426 298.747 793.369C285.205 799.123 271.568 804.675 257.853 809.997C247.889 813.859 237.877 817.615 227.827 821.236C222.181 823.273 216.526 825.281 210.842 827.25C209.967 827.557 209.64 826.155 210.515 825.847C212.506 825.165 214.497 824.474 216.478 823.763C220.123 822.476 223.749 821.198 227.385 819.872C239.57 815.482 251.688 810.91 263.729 806.174C265.999 805.28 268.24 804.368 270.491 803.465C270.394 803.359 270.327 803.205 270.327 803.004C270.414 798.393 270.779 793.801 271.433 789.238C271.875 786.078 272.433 782.936 273.135 779.814C273.376 779.564 273.626 779.315 273.866 779.065C274.309 778.594 274.741 778.104 275.145 777.605C273.087 785.895 271.962 794.406 271.77 802.956C284.676 797.778 297.506 792.408 310.259 786.856C312.289 785.962 314.318 785.05 316.357 784.147C316.049 784.089 315.78 783.849 315.78 783.455C315.799 778.2 316.059 772.946 316.607 767.71C317.79 756.173 320.261 744.79 323.945 733.81C324.464 733.752 324.974 733.723 325.484 733.695C320.059 749.727 317.261 766.586 317.232 783.522C317.232 783.628 317.203 783.724 317.165 783.791C330.148 778.047 343.026 772.1 355.808 765.952C357.087 765.328 358.347 764.713 359.626 764.098C359.453 763.974 359.338 763.791 359.357 763.512C359.694 757.979 360.29 752.465 361.165 746.98C363.435 732.811 367.474 718.968 373.177 705.798C373.889 705.308 374.63 704.837 375.37 704.386C374.995 705.183 374.639 705.971 374.303 706.759C366.589 724.722 361.992 744.002 360.79 763.522C374.226 756.98 387.556 750.237 400.761 743.272C402.492 742.369 404.204 741.447 405.916 740.525C405.896 740.457 405.887 740.381 405.916 740.294C406.512 736.394 407.224 732.503 408.07 728.642C410.109 719.208 412.859 709.929 416.283 700.909C416.716 701.129 417.139 701.36 417.562 701.591C412.908 713.906 409.532 726.701 407.464 739.699C417.235 734.473 426.949 729.141 436.596 723.675C436.788 724.117 436.961 724.569 437.163 725.03C423.448 732.792 409.618 740.313 395.654 747.585C392.903 749.017 390.133 750.438 387.383 751.86C391.951 753.176 396.548 754.454 401.145 755.693C412.965 758.844 424.853 761.697 436.817 764.233C436.644 764.684 436.451 765.136 436.24 765.578C419.332 761.975 402.588 757.768 385.978 752.965C385.834 752.926 385.728 752.85 385.642 752.744C374.033 758.671 362.348 764.444 350.557 770.045C347.748 771.37 344.931 772.686 342.122 774.002C347.518 776.193 352.961 778.268 358.453 780.198C370.85 784.55 383.507 788.22 396.317 791.178C392.345 790.737 388.354 789.939 384.44 789.699C384.43 789.718 384.43 789.699 384.411 789.699C369.773 785.789 355.375 780.957 341.343 775.242C341.035 775.117 340.901 774.857 340.882 774.579C328.821 780.198 316.684 785.645 304.45 790.919C303.084 791.495 301.728 792.081 300.363 792.658C305.393 795.463 310.49 798.105 315.712 800.554C325.407 805.127 335.38 809.075 345.575 812.36C347.556 812.994 349.566 813.619 351.567 814.205C351.201 814.618 350.817 815.002 350.432 815.386C342.795 813.11 335.265 810.458 327.879 807.461C317.934 803.417 308.239 798.758 298.891 793.503L298.91 793.513Z" fill="#75BBBC"/>
<path d="M257.151 309.859C266.713 292.518 260.391 270.703 243.029 261.13C233.23 255.727 222.015 255.388 212.387 259.233C210.5 249.039 204.228 239.735 194.429 234.332C177.067 224.759 155.245 231.055 145.683 248.397C140.513 257.773 140.033 268.455 143.389 277.804L143.335 277.775L166.734 342.03L233.561 327.524L233.507 327.494C243.204 325.342 251.981 319.236 257.151 309.859Z" fill="#FF8ABB"/>
<path d="M188.605 668.318C181.236 658.944 167.77 656.084 156.809 661.554C150.296 664.79 145.765 670.218 143.552 676.335C141.882 680.99 138.688 684.999 134.45 687.629C134.45 687.629 134.45 687.629 134.45 687.65L108.687 646L67.0788 671.742C69.7093 676.001 73.7177 679.195 78.3734 680.844C84.4904 683.057 89.8976 687.588 93.1545 694.101C98.6243 705.062 95.7642 718.528 86.3903 725.897C74.2188 735.48 56.661 731.847 48.5397 718.716C45.2202 713.35 44.0302 707.275 44.74 701.534C45.3455 696.669 44.2181 691.721 41.6085 687.504L0 713.246L67.2458 821.954L108.854 796.212C111.464 800.429 112.591 805.377 111.986 810.242C111.276 815.983 112.466 822.058 115.785 827.424C123.907 840.556 141.465 844.188 153.636 834.605C163.01 827.236 165.87 813.77 160.4 802.809C157.164 796.296 151.736 791.765 145.619 789.552C140.964 787.882 136.955 784.688 134.325 780.45L175.933 754.708L150.17 713.058C150.17 713.058 150.17 713.058 150.191 713.058C154.408 710.448 159.356 709.321 164.221 709.926C169.962 710.636 176.037 709.446 181.403 706.127C194.535 698.005 198.167 680.448 188.585 668.276L188.605 668.318Z" fill="#D2C6FF"/>
</svg>
