<svg xmlns="http://www.w3.org/2000/svg" width="388" height="544" fill="none" xmlns:v="https://vecta.io/nano"><style><![CDATA[.B{fill:#b16859}.C{fill:#7b2a1f}.D{fill:#181054}.E{fill:#b0b6ff}.F{fill:#27283a}.G{fill:#5349db}.H{fill:#ff8abb}]]></style><path d="M188.687 512.029c75.432 0 136.581-5.26 136.581-11.749s-61.149-11.749-136.581-11.749-136.581 5.26-136.581 11.749 61.15 11.749 136.581 11.749z" class="D"/><g style="mix-blend-mode:multiply" opacity=".4"><path d="M158.13 440.331c-21.602-3.781-63.344-11.078-89.566-47.414-31.178-43.209-27.471-110.113 9.962-151.092 44.366-48.567 167.011-67.372 186.916 13.389 4.962-1.171 28.96-6.295 49.72 8.076 22.116 15.302 24.53 41.638 25.531 52.538 3.162 34.456-15.018 60.766-21.013 69.184-35.747 50.176-106.772 64.902-161.549 55.325v-.006z" fill="#c2bff9"/></g><g style="mix-blend-mode:screen" opacity=".5" class="E"><path d="M328.924 408.048c0 36.735-12.87 70.323-34.149 96.076H82.594c-21.28-25.753-34.144-59.347-34.144-96.076 0-81.136 62.781-146.912 140.237-146.912s140.244 65.776 140.244 146.912h-.007z"/></g><path d="M127.263 242.925c-.385 4.02-2.459 6.937-6.214 8.092-.208.066-.415.126-.623.177a11.81 11.81 0 0 1-.711.2c-3.518.97-7.17 1.548-10.77 2.199-4.281.77-8.022 2.236-10.918 4.775-.222.193-.437.393-.645.593-1.807 1.762-3.244 3.983-4.229 6.781-1.296 3.665-3.385 6.212-6.378 7.692a6.39 6.39 0 0 1-.696.311c-1.237.533-2.615.896-4.141 1.089-2.941.377-5.266 1.806-6.755 4.153a6.66 6.66 0 0 0-.407.711c-.193.34-.356.696-.504 1.073-1.081 2.717-1.948 5.531-2.718 8.359-2.652 9.735-11 15.162-20.955 13.392-2.548-.459-4.548-1.576-6.185-3.139a10.37 10.37 0 0 1-.704-.718c-1.311-1.421-2.363-3.124-3.274-4.975-.667-1.34-1.126-2.791-1.667-4.153a79 79 0 0 1-1.348-5.042c-.067-.281-.126-.57-.185-.851-1.644-7.559-1.867-15.14.682-22.781a32.3 32.3 0 0 1 .77-2.065c.104-.267.215-.511.326-.763a27.37 27.37 0 0 1 8.111-10.461 18.61 18.61 0 0 1 .593-.459c2-1.503 4.23-2.776 6.674-3.835 5-2.162 9.059-5.382 12.326-9.602 1.83-2.369 3.733-4.264 5.711-5.738.207-.155.422-.303.637-.451 2.526-1.748 5.185-2.799 7.985-3.265.267-.045.541-.089.815-.119 4.066-.511 8.437.193 13.177 1.829.4.141.8.274 1.207.392.326.104.652.2.985.296a36.96 36.96 0 0 0 12.459 1.318 45.61 45.61 0 0 1 2.845-.096h.851l.593.007c8.037.223 14.037 7.071 13.281 15.074zm129.211-25.897l-.222.97c-.022.096-.052.185-.081.274-1.823 6.574-7.415 9.957-16.689 9.794l-7.926-.873c-2.696-.341-5.236-.208-7.622.422-.251.066-.503.14-.755.222-2.452.762-4.741 2.08-6.881 3.968-1.874 1.644-3.793 3.265-5.793 4.76-.215.171-.437.334-.659.482-.489.37-.985.718-1.489 1.058-1.363.926-3.17 1.414-4.844 1.659-4.015.599-6.896-1.133-8.415-4.887-.733-1.806-1.311-3.686-1.889-5.552-.088-.274-.177-.541-.274-.807-.007-.015-.007-.022-.007-.03-.296-.799-.637-1.547-1.03-2.236-1.533-2.687-3.888-4.449-7.481-4.864-.674-.074-1.333-.251-2-.355-9.874-1.525-11.207-9.935-8-16.132l.245-.452c.044-.074.081-.148.126-.222.963-1.68 2.126-3.257 3.326-4.79 2.088-2.665 4.533-5.079 6.392-7.884 1.222-1.851 2.578-3.362 4.022-4.576a22.33 22.33 0 0 1 .815-.644c6.659-4.968 14.955-3.916 20.888.096s11.881 5.079 18.733 4.509a38.05 38.05 0 0 1 2.037-.126l.748-.015c5.637-.081 11.111 1.081 16.081 4.265 1.333.851 2.511 1.865 3.548 3.013.17.185.333.37.489.57 4.296 5.153 5.77 12.512 4.607 18.383zm54.969 60.049l-.156.474-.155.407a12.08 12.08 0 0 1-3.585 4.701c-2.734 2.147-6.156 1.563-8.533-1.006-.963-1.044-1.926-2.155-2.586-3.399-2.548-4.827-6.266-8.61-10.214-12.267a2.75 2.75 0 0 0-.148-.141l-.667-.629c-2.963-2.762-5.822-5.641-8.666-8.536a18.32 18.32 0 0 1-2.326-2.873c-.141-.207-.274-.414-.393-.629-2.022-3.376-2.888-7.455-2.792-12.83.103-2.747.866-7.078 3.844-10.691 2.252-2.717 5.052-3.827 7.963-2.917.274.097.548.2.822.326.415.178.83.407 1.244.674 2.23 1.443 4.526 2.273 6.919 2.665.289.052.57.089.859.126 1.593.185 3.23.192 4.918.067 1.763-.134 3.489-.038 5.126.392.245.067.489.133.726.215a11.29 11.29 0 0 1 3.533 1.895c2.674 2.117 3.8 4.827 3.445 8.062-.03.267-.067.533-.119.807l-.022.141c-.141.74-.252 1.503-.541 2.191-2.607 6.086-1.622 11.986.504 17.991.548 1.547 1.007 3.124 1.333 4.716l.148.747c.548 3.088.534 6.219-.481 9.321zm-159.04-53.408c-.933 1.029-2.029 1.777-3.207 2.228-.23.096-.467.17-.704.237-2.829.792-6.059-.007-8.8-2.473-1.607-1.443-2.94-3.198-4.37-4.834l-3.681-4.264a8.67 8.67 0 0 0-.593-.578c-.281-.266-.578-.511-.874-.725-1.259-.941-2.607-1.503-4.059-1.725l-.763-.074c-1.267-.082-2.607.088-4.022.503-1.918.555-3.992 1.036-5.948.911-4.059-.26-5.689-3.036-4.155-6.789 2.118-5.175 6.377-7.952 11.377-9.64.119-.044.237-.088.363-.126.141-.044.274-.088.415-.125 3.229-.992 6.318-1.148 9.111-.504a13.44 13.44 0 0 1 .733.193c3.666 1.051 6.77 3.516 8.933 7.307l.696.629.563.518 4.696 4.243c1.008.895 2.156 1.643 3.126 2.583 3.911 3.798 4.37 8.973 1.163 12.505zm16.644-27.008c-.207.607-.37 1.614-.866 2.413-1.03 1.644-2.623 1.725-3.956.296-1.274-1.362-2.792-2.606-3.681-4.197-.83-1.489-1.371-3.369-1.333-5.057.066-3.102 3.007-4.353 5.473-2.414 2.748 2.155 4.045 5.146 4.371 8.966l-.008-.007zm144.329 30.65l-.355.185c-.252.119-.519.215-.778.296-1.608.481-3.363.215-4.919-.755-.214-.133-.422-.281-.629-.444-.645-.496-1.245-1.125-1.763-1.881-1.274-1.836-2.207-3.916-3.193-5.937-.481-1-1.051-1.881-1.711-2.636l-.681-.703c-1.356-1.266-3.044-2.11-5.118-2.532-5.341-1.081-7.415-4.272-5.823-8.381a11.15 11.15 0 0 1 .563-1.214 14.85 14.85 0 0 1 1.023-1.614c2.037-2.821 4.844-3.909 8.244-3.872 1.666.104 3.192.415 4.577.94a8.54 8.54 0 0 1 .808.334c2.17.977 3.985 2.502 5.489 4.545.266.356.525.718.748 1.103h.007c.252.393.489.785.711 1.2 1.082 1.969 2.541 3.901 4.252 5.338 4.77 4.005 4.059 12.948-1.452 16.028z" class="D"/><path d="M126.115 211.534l-.763-.074c-.355-2.495-.541-5.019-.526-7.529v-.488c.022-1.622.037-3.288-.6-4.731-.37-.844-.948-1.57-1.622-2.266l.363-.126.415-.125c.622.666 1.148 1.384 1.518 2.221.704 1.584.689 3.339.674 5.027v.496c-.022 2.532.163 5.078.541 7.595zm19.111 6.22l-.911-.926c-.741-.725-1.437-1.414-1.874-2.273-.422-.851-.608-1.865-.585-3.302.029-1.91.563-4.494 1.563-6.914l-.563-.519c-1.111 2.592-1.711 5.383-1.741 7.419-.015.969.044 2.406.667 3.642.488.977 1.266 1.74 2.014 2.473l.882.896c1.985 2.161 3 4.99 3.814 7.884a5.71 5.71 0 0 0 .704-.237c-.837-2.968-1.889-5.871-3.97-8.143zm-13.207-15.215c-.682 2.932-1.385 5.96-1.274 8.877a17.62 17.62 0 0 0 .304 2.569c-.282-.267-.578-.511-.875-.726a16.64 16.64 0 0 1-.17-1.814c-.118-3.02.6-6.093 1.289-9.069.533-2.295 1.059-4.531 1.2-6.685l.733.192c-.17 2.207-.696 4.45-1.207 6.656zm99.73-11.741l-.748.014c.452 1.896.444 3.872-.207 5.797-.149.43-.363.963-.734 1.325-1.037 1-2.748.504-4.555-.133-3.378-1.199-6.867-1.643-10.385-1.643-4.807 0-9.666.836-14.363 1.762-1.414.281-2.911.533-4.333.533-1.674 0-3.229-.356-4.422-1.429-2.548-2.295-3.215-6.737-2.659-10.691a23.47 23.47 0 0 0-.815.644c-.4 3.976.408 8.27 2.978 10.595 2.452 2.221 6.133 1.717 9.392 1.073 8.044-1.592 16.555-2.909 24.355-.148.911.318 2.096.74 3.215.74.77 0 1.511-.199 2.103-.77.489-.473.748-1.117.919-1.621.681-2.006.704-4.072.259-6.048zm-38.821 37.69c-.296-.799-.637-1.547-1.03-2.236-.222-2.102-.318-4.227-.281-6.359l.015-.444c.029-1.555.059-3.162-.526-4.554-.578-1.384-1.734-2.472-2.778-3.346-3.993-3.339-8.822-5.619-13.911-6.648l.245-.452c.044-.074.081-.148.126-.222 5.125 1.066 9.992 3.383 14.014 6.752 1.118.933 2.348 2.095 2.985 3.628.645 1.54.615 3.228.585 4.856l-.015.445c-.044 2.879.149 5.752.571 8.58zm58.939-29.843c-7.259 4.546-15.881 6.952-24.429 6.648l-.793-.029c-1.54-.074-3.14-.141-4.607.281-1.244.355-2.474 1.074-3.852 2.265-5.755 4.953-8.91 13.415-8.444 22.648.104 2.05.371 4.094.763 6.107-.215.171-.437.334-.659.482-.43-2.155-.726-4.346-.837-6.552-.489-9.455 2.763-18.146 8.696-23.247 1.459-1.259 2.778-2.029 4.126-2.414 1.585-.459 3.244-.385 4.844-.311l.785.03c8.378.303 16.807-2.043 23.918-6.478.17.185.333.37.489.57zm4.607 18.383l-.222.97c-.022.096-.052.185-.081.274l-.378-.948c-.304-.703-.667-1.407-1.274-1.74-.497-.266-1.134-.274-1.696-.281l-15.8-.237c-2.289-.037-4.874-.074-7.059.948-4.244 1.984-5.667 7.04-6.03 11.601-.251.066-.503.14-.755.222.341-4.835 1.815-10.321 6.466-12.497 2.349-1.096 5.023-1.051 7.385-1.014l15.807.236c.615.008 1.378.015 2.037.378.8.437 1.245 1.259 1.6 2.088zm-53.687-8.832c-.104-.689-.526-1.355-1.193-1.873-.637-.504-1.392-.882-1.918-1.111l-.548-.222c-1.119-.422-2.037-.289-2.667.385-1.096 1.192-1.896 4.183-1.281 6.248.326 1.103 1.014 1.822 1.992 2.073.208.052.415.074.615.074 1.311 0 2.474-1.014 3.281-1.828.904-.926 1.934-2.318 1.719-3.746zm-2.252 3.227c-.792.815-1.992 1.851-3.178 1.555-.725-.185-1.214-.711-1.466-1.569-.541-1.807.17-4.502 1.118-5.531.245-.259.556-.392.941-.392.274 0 .578.067.911.192l.519.208c.481.214 1.177.562 1.755 1.021.519.4.845.904.919 1.4.177 1.184-.874 2.458-1.519 3.116zm82.946 33.108c-.452 1.844-1.111 3.932-2.578 5.464-1.133 1.177-2.629 1.895-4.066 2.584l-.334.163-2.096 1.066-.393-.629 2.163-1.103.341-.163c1.378-.667 2.807-1.348 3.852-2.436 1.348-1.399 1.963-3.369 2.392-5.116 1.393-5.708 1.467-11.831.267-17.62a9.35 9.35 0 0 1 .822.326c1.126 5.76 1.008 11.808-.37 17.464zm28.443 23.225c-.726.363-1.481.696-2.259.925-.896.267-1.852.4-2.844.4-1.852 0-3.822-.459-5.763-1.362-2.704-1.259-5.067-3.176-7.155-4.872-1.2-.984-2.571-2.095-3.363-3.627-1.274-2.466-.83-5.753 1.133-8.388 1.822-2.436 4.511-3.961 6.904-5.131 3.866-1.895 7.933-3.331 12.044-4.538a10.77 10.77 0 0 1-.119.807c-3.97 1.177-7.881 2.576-11.6 4.397-2.311 1.126-4.903 2.599-6.636 4.909-1.467 1.969-2.371 5.086-1.067 7.603.718 1.399 2.022 2.458 3.17 3.391 2.052 1.673 4.378 3.561 7 4.775 2.822 1.311 5.696 1.644 8.089.926.785-.237 1.555-.585 2.318-.963l.148.748zm-9.007-36.765c0 .614-.192 1.303-.57 2.036-.096.192-.311.525-.578.555-.148.015-.311-.052-.496-.119l-.156-.059c-.696-.237-1.481-.259-2.333-.052-.615.148-1.281.422-1.985.815l-.978.577c-.889.541-1.726 1.044-2.674 1.288-.385.104-.674.111-.903.037-.904-.311-1.363-.814-1.4-1.547-.067-1.17.918-2.717 2.029-3.99l-.859-.126c-1.096 1.332-1.985 2.894-1.911 4.16.015.356.118.785.4 1.178s.755.762 1.504 1.021c.192.067.392.089.577.089.282 0 .548-.052.748-.103 1.052-.274 1.978-.83 2.874-1.378l.956-.562c.637-.356 1.244-.607 1.8-.741.711-.17 1.348-.155 1.911.037l.141.052c.244.089.518.193.837.156.459-.052.859-.378 1.155-.955.385-.748.6-1.481.637-2.147a7.9 7.9 0 0 0-.726-.222zm8.526 46.086l-.155.474-.156.407-.467-.718-1.266-1.933c-.326-.473-.652-.925-1.082-1.199-.6-.392-1.385-.452-2.207-.489l-.407-.014c-2.608-.089-5.304-.185-7.46-1.688-.755-.526-1.385-1.2-1.992-1.844l-1.333-1.325c-2.437-2.095-5.808-2.621-8.704-2.762l-.148-.14-.667-.629c3.178.081 7.148.518 10 2.968.496.43.948.911 1.385 1.377.615.652 1.193 1.266 1.882 1.748 1.977 1.377 4.563 1.473 7.059 1.562l.415.014c.925.03 1.829.104 2.585.6.54.356.918.866 1.281 1.407.437.637.859 1.288 1.282 1.94l.155.244zm1.926-51.787l-.348 2.206c-.252.118-.519.215-.778.296.089-.881.245-1.762.4-2.628.415-2.392.815-4.657.059-6.789-.496-1.392-1.444-2.577-2.451-3.769-1.926-2.265-4.23-4.753-7.289-5.582-1.593-.437-3.237-.377-4.97-.325-1.067.037-2.171.066-3.252-.023-2.726-.222-5.615-1.702-6.333-4.153.155-.4.34-.8.563-1.214 0 .133.007.259.022.392.259 2.488 3.118 4.02 5.807 4.242 1.045.082 2.126.052 3.17.015 1.711-.052 3.482-.111 5.185.356 3.111.844 5.519 3.294 7.659 5.811 1.06 1.251 2.052 2.488 2.586 4.006.822 2.317.385 4.775-.03 7.159zm-3.511-20.545c-.985-.473-2-.799-3.096-.873l-1.067-.015c-.496.007-1 .015-1.511-.052-1.119-.141-2-.659-2.415-1.414-.681-1.221-.044-2.724.896-3.517.045-.037.097-.081.149-.111.274.097.54.208.807.334a3.76 3.76 0 0 0-.482.34c-.718.615-1.192 1.755-.725 2.591.437.778 1.444.992 1.859 1.044.459.059.926.052 1.415.045l1.125.022a8.3 8.3 0 0 1 2.297.503l.748 1.103zm-2.534 22.292c-.214-.133-.422-.281-.629-.444.511-1.577.304-3.435.029-5.227-.125-.814-.266-1.732-.666-2.502-.808-1.547-2.719-2.562-5.119-2.71l-.911-.015-.681-.703a12.24 12.24 0 0 1 1.637-.015c2.659.156 4.807 1.318 5.733 3.102.459.881.607 1.859.741 2.725.303 1.976.526 4.02-.134 5.789zM56.799 268.319c-.748 4.205-3.126 7.847-5.422 11.371-1.037 1.585-2.111 3.236-3.015 4.901-2.444 4.516-3.755 9.625-3.948 14.792-.244-.229-.481-.466-.704-.718.282-5.041 1.615-10.009 4-14.422.919-1.702 2-3.361 3.044-4.96 2.259-3.457 4.593-7.033 5.311-11.09 1.141-6.419-1.97-13.8-8.54-20.241a9.92 9.92 0 0 0-.4-.378 18.61 18.61 0 0 1 .593-.459l.326.311c6.748 6.611 9.933 14.23 8.755 20.893zm18.384 10.668c-.148.23-.289.467-.407.711-1.111-1.607-2.007-3.339-2.644-5.242-.63-1.88-.956-3.872-1.274-5.796-.422-2.584-.859-5.25-2.03-7.589-.363-.726-.807-1.444-1.244-2.132-.815-1.311-1.659-2.673-2.03-4.22-.963-3.991 1.356-7.537 3.593-10.972 1.237-1.895 2.511-3.85 3.252-5.886 1.296-3.561.852-7.137.03-9.92.207-.156.422-.304.637-.452 1.163 3.754 1.193 7.44.03 10.624-.77 2.117-2.067 4.109-3.326 6.041-2.252 3.45-4.385 6.708-3.496 10.387.348 1.436 1.118 2.688 1.941 4.005.444.711.896 1.437 1.274 2.199 1.222 2.436 1.667 5.16 2.104 7.789.311 1.902.63 3.864 1.237 5.685.57 1.718 1.37 3.295 2.355 4.768zm25.355-43.473c-5.711-2.769-14.955-2.413-18.303 2.206-1.637 2.251-2.081 5.405-1.096 7.67.704 1.629 2.104 2.651 3.926 2.88 1.355.17 2.652-.103 3.911-.37 1.496-.311 2.911-.607 4.429-.229.852.207 1.659.644 2.511 1.11 1.215.659 2.467 1.333 3.881 1.333a4.41 4.41 0 0 0 .911-.097c2.748-.577 3.911-3.642 4.556-5.9 1-3.524-.726-6.663-4.726-8.603zm4.015 8.396c-.941 3.294-2.208 5.004-4 5.382-1.534.326-2.867-.4-4.282-1.162-.859-.467-1.748-.948-2.689-1.178-1.681-.422-3.244-.096-4.755.222-1.259.267-2.437.511-3.674.363-1.992-.251-2.911-1.466-3.341-2.443-.867-2.006-.444-4.923 1.022-6.937 3.148-4.338 11.926-4.627 17.377-1.977 2.148 1.037 5.555 3.428 4.341 7.73zm15.873 7.285l-.711.2c-1.052-3.502-2.911-6.767-5.451-9.41a25.53 25.53 0 0 0-.63-.644c-.889-.896-1.8-1.814-2.385-2.976-.859-1.718-.963-3.88-.304-6.441a18.21 18.21 0 0 1 1.593-4.08h.852c-.763 1.34-1.341 2.769-1.726 4.257-.615 2.384-.534 4.383.244 5.93.533 1.059 1.407 1.933 2.252 2.784l.637.652c2.622 2.731 4.54 6.107 5.629 9.728zm-22.399 7.174l-.645.592-1.259-.296c-2.563-.563-5.192-.933-7.822-1.096-3.392-.215-5.578.452-6.681 2.014-1.289 1.821-.874 4.501 1.222 7.966l3.933 5.886a6.61 6.61 0 0 1-.696.311l-3.867-5.812c-2.267-3.739-2.674-6.693-1.2-8.78 1.267-1.792 3.667-2.555 7.341-2.325 2.659.163 5.326.54 7.933 1.118l1.741.422zm-.792-31.746l-1.185.659c-2.304 1.288-4.667 2.613-7.163 2.613-.504 0-1.007-.052-1.526-.17-2.755-.637-4.666-2.984-6.311-5.501l.815-.118c1.504 2.273 3.267 4.346 5.666 4.901 2.778.644 5.511-.889 8.155-2.369l.563-.311.985.296zm-56.48 54.608c-.622.71-1.341 1.377-2.037 2.028l-1.296 1.236-.185-.851.978-.925 1.985-1.977c3.348-3.783 4.318-9.706 2.474-15.088-.911-2.673-2.355-4.946-3.985-6.856.104-.266.215-.511.326-.762 1.785 2.028 3.37 4.479 4.363 7.381 1.926 5.626.896 11.838-2.622 15.814z" style="mix-blend-mode:screen" class="D"/><path d="M195.639 205.249s12.259-2.139 13.54 8.558c0 0-9.948 1.281-13.54-8.558zm38.443 5.686s-7.207 10.135-15.651 3.428c0 0 6.17-7.907 15.651-3.428zM55.036 252.224s10.696-6.345 15.696 3.205c0 0-8.844 4.731-15.696-3.205zm37.962-8.322s-3.148 12.031-13.414 8.751c0 0 2.963-9.58 13.414-8.751zm182.646-7.433s8.333-.007 7.955 7.204c0 0-6.711-.289-7.955-7.204zm24.718 8.151s-5.919 5.864-10.719.467c0 0 4.978-4.509 10.719-.467z" fill="#f1cb30"/><g fill="#ffe6c8"><path d="M7.089 434.574s9.296 81.445 94.845 44.165c0 0-16.052-82.067-94.845-44.165z"/><path d="M101.725 478.998C66.872 451.339 7.596 435.055 7 434.897l.171-.647c.596.165 60.005 16.481 94.966 44.229l-.412.519z" style="mix-blend-mode:multiply"/><path d="M28.013 441.268l-16.768 9.564-.329-.576 16.324-9.317-3.479-13.434.646-.165 3.606 13.928zm16.572 6.233l-.368.101c-14.797 4.009-27.122 16.474-27.243 16.595l-.475-.469c.12-.127 12.376-12.516 27.179-16.671-1.071-2.565-7.142-17.601-4.664-22.358l.589.311c-2.516 4.82 4.759 21.971 4.835 22.142l.152.355-.006-.006zm16.165 6.91l-.469.088c-28.225 5.264-34.01 19.907-34.061 20.053l-.627-.234c.057-.152 5.874-14.973 34.099-20.389-1.8-3.078-12.135-21.528-6.388-28.919l.526.411c-5.874 7.55 6.546 28.369 6.673 28.578l.247.412zm15.596 7.771l-.488.064c-25.836 3.395-39.777 19.761-39.917 19.926l-.513-.425c.139-.164 14.062-16.524 39.86-20.097-1.844-3.338-12.82-23.897-8.13-32.27l.583.323c-4.822 8.607 8.232 31.814 8.365 32.049l.247.43h-.006zm13.998 8.234l-.469.051c-27.946 3.103-40.233 16.816-40.354 16.955l-.501-.437c.12-.139 12.421-13.89 40.316-17.126-1.476-3.078-9.867-21.06-8.447-30.491l.659.102c-1.489 9.906 8.492 30.319 8.593 30.522l.209.424h-.006z" style="mix-blend-mode:multiply"/><path d="M364.304 445.423s-62.451-46.331-92.045 37.027c0 0 67.255 42.063 92.045-37.027z"/><path d="M272.31 482.78l-.102-.665c41.736-6.201 91.418-36.673 91.918-36.983l.355.57c-.501.31-50.296 30.858-92.171 37.071v.007z" style="mix-blend-mode:multiply"/><path d="M358.087 462.113l-12.002-6.53 4.239-17.823.653.158-4.119 17.316 11.546 6.29-.317.589zm-8.238 12.015c-1.705-4.858-18.288-10.92-18.459-10.989l-.362-.133.184-.342c6.806-12.826 6.16-29.433 6.153-29.598l.672-.032c.006.165.653 16.665-6.052 29.604 2.535.944 16.818 6.467 18.504 11.262l-.634.221-.006.007zm-9.505 9.576c-1.426-8.943-23.884-13.832-24.113-13.877l-.475-.101.26-.405c14.632-22.929 8.244-36.413 8.175-36.546l.602-.298c.069.133 6.571 13.763-7.953 36.799 3.377.773 22.768 5.568 24.163 14.327l-.666.108.007-.007zm-11.977 6.854c-2.833-8.906-27.363-14.904-27.611-14.961l-.487-.114.291-.405c14.385-20.072 12.078-40.321 12.053-40.523l.665-.083c.026.203 2.339 20.433-11.888 40.593 3.593.906 24.854 6.632 27.61 15.29l-.64.203h.007zm-15.703 3.23c-5.894-7.442-26.495-13.757-26.704-13.82l-.457-.14.286-.38c15.95-21.345 14.41-38.731 14.391-38.902l.665-.069c.019.171 1.578 17.595-14.239 38.99 3.169.995 20.982 6.828 26.584 13.909l-.526.418v-.006z" style="mix-blend-mode:multiply"/></g><path d="M343.772 361.457s19.29-14.84.006-36.21c0 0-22.23 15.068-.006 36.21z" class="G"/><path d="M245.916 482.482c14.303-6.619 27.509-15.081 39.252-25.158 36.76-31.561 51.785-71.938 57.913-100.257l-.748-.158c-6.102 28.204-21.064 68.417-57.666 99.839-11.685 10.033-24.835 18.457-39.074 25.044l.323.696v-.006z" class="D"/><g class="G"><path d="M337.498 376.151s.083-25.151-25.088-22.897c0 0-1.236 25.152 25.088 22.897zm-9.638 22.383s2.554-22.7-20.393-23.149c0 0-3.599 22.592 20.393 23.149zm-10.114 19.737s3.067-16.709-13.935-18.223c0 0-3.834 16.576 13.935 18.223zm-9.144 12.401s2.078-18.463-16.584-18.824c0 0-2.921 18.368 16.584 18.824zm15.348 7.119s-12.313-10.913-22.091 2.407c0 0 11.819 11.477 22.091-2.407zm-11.229 26.032s-10.127-18.488-27.686-6.651c0 0 9.283 18.957 27.686 6.651zm-45.341-21.668s-10.767 15.505 5.741 24.822c0 0 11.476-15.011-5.741-24.822zm52.66-27.21s13.764 11.99 24.48-2.875c0 0-13.219-12.623-24.48 2.875zm-26.691 33.981s6.603-17.013-11.027-22.035c0 0-7.389 16.714 11.027 22.035z"/><path d="M358.094 392.878s-17.066-15.194-30.684 3.269c0 0 16.375 15.98 30.684-3.269zm11.216-28.172s-22.37-11.521-31.818 11.907c0 0 21.843 12.548 31.818-11.907zM60.079 398.022s-22.604-13.035-5.146-38.484c0 0 25.76 12.863 5.146 38.484z"/></g><path d="M102.086 464.127l5.659 4.972c5.526 4.579 11.489 8.766 17.725 12.439l.418-.703c-6.198-3.654-12.129-7.809-17.617-12.363-22.243-18.438-38.592-44.533-47.305-75.467l-.792.222c8.004 28.407 22.426 52.766 41.912 70.9z" class="D"/><g class="G"><path d="M68.83 412.741s-3.656-26.716 23.415-27.894c0 0 4.879 26.558-23.415 27.894zm9.828 22.586s-5.938-23.764 18.39-27.494c0 0 7.028 23.498-18.39 27.494zm17.725 21.877s-5.627-17.323 12.224-21.345c0 0 6.426 17.07-12.224 21.345zm16.97 15.708s-11.945-15.942 5.108-26.406c0 0 12.68 15.398-5.108 26.406zm-30.537-1.571s9.208-15.043 23.408-4.446c0 0-8.523 15.473-23.408 4.446zm7.566-19.293s-12.927 14.695-26.425.412c0 0 12.256-15.29 26.425-.412z"/><path d="M45.858 435.486s15.982-18.571 33.079-.874c0 0-15.133 19.305-33.079.874zM33.4 405.09s22.141-15.41 35.506 8.145c0 0-21.438 16.43-35.506-8.145z"/></g><path d="M110.179 354.293l5.342.019c.367-6.296-1.749-7.151 5.082-6.84a1.51 1.51 0 0 1 1.514 1.526l-.019 5.339c6.299.368 7.155-1.748 6.844 5.08a1.52 1.52 0 0 1-1.527 1.52l-5.342-.019c-.367 6.296 1.749 7.151-5.082 6.841-.843 0-1.521-.684-1.515-1.527l.019-5.339-5.335-.019a1.52 1.52 0 0 1-1.515-1.527c.196-1.33-.754-5.098 1.54-5.054h-.006z" fill="#fff"/><path d="M127.415 360.931l-5.342-.019c-.374 6.296 1.749 7.151-5.082 6.84-.843 0-1.521-.69-1.515-1.526l.019-5.339-5.336-.013c-.842 0-1.52-.69-1.52-1.526.095-.647-.076-1.869-.019-2.952 1.812.861 3.852 1.482 6.032 1.786 5.438.754 10.532-.614 13.878-3.338.482.627.539 1.932.412 4.573 0 .843-.684 1.52-1.527 1.514z" class="H"/><path d="M241.563 301.748l5.342.019c.368-6.296-1.749-7.151 5.082-6.84.843 0 1.521.684 1.515 1.526l-.019 5.34c6.299.367 7.154-1.749 6.844 5.079 0 .843-.685 1.52-1.527 1.52l-5.342-.019c-.368 6.296 1.749 7.151-5.083 6.841a1.51 1.51 0 0 1-1.514-1.527l.019-5.339-5.336-.019c-.843 0-1.521-.69-1.514-1.526.196-1.331-.755-5.099 1.539-5.055h-.006z" fill="#fff"/><path d="M258.8 308.386l-5.342-.019c-.374 6.296 1.749 7.151-5.083 6.84-.843 0-1.521-.69-1.514-1.526l.019-5.339-5.336-.013c-.843 0-1.521-.69-1.521-1.526.095-.646-.076-1.869-.019-2.952 1.812.861 3.853 1.482 6.033 1.786 5.437.754 10.532-.614 13.878-3.338.481.627.539 1.932.412 4.573 0 .843-.685 1.52-1.527 1.514z" class="H"/><path d="M344.507 400.346c0 39.142-14.303 74.935-37.946 102.379H70.801c-23.643-27.444-37.939-63.237-37.939-102.379 0-86.456 69.757-156.545 155.82-156.545s155.826 70.089 155.826 156.545z" fill="url(#A)"/><path d="M70.636 335.577c.475.798 1.033 1.552 1.679 2.229 4.132 4.358 9.886 3.699 14.81 1.254 11.147-5.523 16.831-17.652 22.445-28.052 6.223-11.527 19.829-16.366 28.073-26.145 1.122-1.331 2.098-2.863 2.332-4.58 1.033-7.461-11.426-6.783-15.887-5.903-10.988 2.179-19.898 9.754-29.004 15.765-8.903 5.871-18.732 10.964-23.681 20.99-2.243 4.548-3.15 10.755-3.048 15.752.063 3.021.748 6.118 2.281 8.69zm65.258-27.058c1.635-1.881 3.321-3.864 3.878-6.289.292-1.273.216-2.711-.589-3.744-.995-1.279-2.871-1.589-4.43-1.14-1.552.45-2.851 1.52-4.03 2.622-3.758 3.509-15.462 14.156-11.286 19.755 5.089 6.822 13.46-7.752 16.463-11.204h-.006z" style="mix-blend-mode:screen" class="E"/><path d="M312.905 331.2s39.637 89.617-25.196 163.234" stroke="#fff" stroke-width="2" stroke-linecap="round" stroke-linejoin="round"/><g class="F"><path d="M211.684 297.372c4.702 9.26 9.651 22.637 9.727 38.889a82.12 82.12 0 0 1-.462 9.051h-6.204l-1.445-4.611-4.341 5.225h-5.792l1.084-6.15-3.619 6.454H190.5s15.202-13.218 6.875-22.744c-2.218-2.534-2.123-3.395-2.186-5.529-.121-3.75 5.963-8.937 7.344-10.223 2.408-2.249 5.666-5.612 9.164-10.362h-.013z"/><path d="M168.383 306.112c-1.121 1.717-16.425 25.69-7.503 37.306.755.976 1.711 1.913 2.934 2.749h9.772l1.445-4.611 4.341 5.225h5.792l-1.084-6.15 3.619 6.454h10.132s-15.202-13.218-6.875-22.744c2.218-2.534 2.123-3.395 2.186-5.53.076-2.47-2.776-7.188-7.345-10.222-7.103-4.719-15.367-2.964-17.42-2.47l.006-.007z"/></g><path d="M139.252 503.054s14.354.551 19.474 0c4.062-.443 18.035-2.85 23.624-3.819-3.08-3.015-6.432-8.069-8.707-11.787l-3.232 1.59-.893-1.001c-10.792-6.34-16.134 7.119-16.134 7.119-14.575.665-14.132 7.898-14.132 7.898zm30.589-149.774h33.396s17.439 2.527 18.947 15.334-9.797 56.472-9.797 56.472l-48.61-1.109c-4.525-16.449-7.389-31.314-11.914-47.763.089-2.527-1.02-9.652 2.681-15.239 5.101-7.708 13.111-7.062 15.297-7.695z" class="B"/><path d="M163.776 423.977l-8.668 18.837s-67.084-19.59-68.212 13.56 108.16 47.086 108.16 47.086 102.507-6.03 93.844-45.958c0 0 1.508-18.457-39.574-13.187l-26.381 4.522s-6.033-20.337-9.043-23.352l-50.126-1.508z" fill="#fff"/><path d="M290.123 436.594l1.901 1.096s4.297-5.156 9.17-7.594 6.875-2.724 6.875-2.724 2.725 2.863-4.011 5.156c0 0-2.864 3.439 2.433 5.155 0 0 1.147-5.871 6.591-5.155v-2.293s-4.588.285-6.736-2.863l8.453-.861 2.725 6.733s1.578 3.008.862 4.439c0 0 .805 2.293.184 4.725 0 0-2.909 6.157-11.793 7.164-8.885 1.001-16.66.576-16.66.576v-13.56l.006.006z" class="B"/><g class="C"><path d="M311.618 447.684c-1.857-.038-3.035-.525-3.549-1.437-.684-1.223.121-2.724.216-2.888l-.032-.431c-.07-.824-.063-1.349-.038-1.66-.659-.069-1.179-.329-1.54-.779-.855-1.064-.494-2.787-.475-2.863l.621.133s-.317 1.508.355 2.331c.298.374.773.558 1.4.558h.406l-.095.392s-.102.482.006 1.831c.083 1.013.095 1.153-.228 1.191-.184.468-.387 1.247-.032 1.881.393.703 1.394 1.076 2.972 1.114.095-.012.507-.107.577-.342.038-.133.057-.658-1.394-1.874l.405-.488c1.274 1.07 1.794 1.9 1.591 2.552-.171.545-.811.754-1.16.786l-.006-.007z"/><path d="M308.247 441.002c-.013-.107-.279-2.66 1.47-4.389 1.274-1.26 3.257-1.729 5.893-1.4l-.076.627c-2.433-.304-4.239.108-5.367 1.216-1.534 1.508-1.293 3.851-1.293 3.87l-.627.07v.006zm.596 2.034l-.571-.279c.019-.038 1.977-3.94 7.338-3.319l-.076.627c-4.904-.576-6.622 2.825-6.691 2.964v.007zm-14.271 2.324l-.279-.57c.266-.133 6.59-3.154 12.274.006l-.31.551c-5.386-2.996-11.628-.025-11.692.007l.007.006z"/></g><g class="B"><path d="M168.276 385.626l-27.889 49.347-53.142 12.053v-13.561l40.512-12.807 26.552-52.342c2.516-6.853 9.512-10.634 15.868-9.127 5.519 1.311 9.455 6.353 9.892 11.705.538 6.657-4.392 13.181-11.793 14.732zm41.399 3.218l27.889 49.346 53.142 12.053v-13.56l-40.512-12.807-26.552-52.342c-2.516-6.853-9.512-10.635-15.868-9.127-5.519 1.311-9.455 6.359-9.892 11.705-.538 6.656 4.392 13.18 11.793 14.732z"/><path d="M87.251 433.465l-1.901 1.096s-4.296-5.156-9.17-7.594c-4.873-2.432-6.876-2.724-6.876-2.724s-2.725 2.863 4.011 5.156c0 0 2.864 3.439-2.433 5.156 0 0-1.147-5.872-6.591-5.156v-2.293s4.588.285 6.736-2.863l-8.453-.861-2.725 6.733s-1.578 3.008-.862 4.44c0 0-.805 2.292-.184 4.725 0 0 2.909 6.156 11.793 7.163 8.884 1.001 16.66.576 16.66.576v-13.56l-.006.006z"/></g><g class="C"><path d="M65.794 444.556c-.393-.038-1.027-.241-1.198-.792-.203-.646.323-1.482 1.591-2.553l.406.488c-1.451 1.222-1.432 1.742-1.394 1.875.07.234.482.329.621.348 1.534-.038 2.535-.412 2.934-1.115.355-.627.152-1.412-.032-1.881-.323-.038-.311-.171-.228-1.19.114-1.35.006-1.831.006-1.837l-.089-.387h.393c.634 0 1.103-.19 1.401-.563.665-.83.355-2.318.355-2.331l.621-.133c.019.07.38 1.799-.475 2.863-.361.449-.881.709-1.54.779.019.31.032.836-.038 1.659l-.032.431c.095.171.9 1.666.216 2.888-.513.912-1.692 1.394-3.511 1.438l-.006.013z"/><path d="M69.128 437.867l-.627-.07s.241-2.362-1.293-3.869c-1.128-1.115-2.934-1.521-5.367-1.217l-.076-.627c2.643-.329 4.62.14 5.893 1.4 1.749 1.729 1.483 4.282 1.47 4.389v-.006zm-.602 2.04c-.07-.146-1.781-3.541-6.692-2.964l-.076-.628c5.361-.62 7.319 3.281 7.338 3.319l-.57.279v-.006zm14.277 2.324c-.063-.032-6.299-3.008-11.692-.006l-.311-.551c5.684-3.161 12.009-.14 12.275-.007l-.279.57.006-.006z"/></g><g class="E"><path d="M190.36 437.291c-1.99-.222-3.555-1.09-4.639-2.578-2.813-3.857-1.508-10.514-1.451-10.799l.621.126c-.012.064-1.311 6.67 1.344 10.299.976 1.343 2.389 2.122 4.195 2.325l-.07.627zm-1.362 16.328l-.583-.247c4.049-9.602 1.692-29.16 1.666-29.357l.628-.076c.025.197 2.401 19.926-1.711 29.68zm1.052 49.391l-.279-.57c5.088-2.515 12.832-16.17 13.979-18.241-2.326-1.451-20.183-12.579-38.611-22.777-19.556-10.824-31.222-9.424-31.336-9.411l-.083-.628c.114-.019 11.964-1.456 31.723 9.482 19.676 10.894 38.7 22.84 38.89 22.954l.254.158-.14.26c-.355.652-8.739 15.967-14.397 18.76v.013z"/><path d="M185.639 473.045l-.26-.576c1.939-.887 47.603-21.662 58.845-23.372l.095.627c-11.153 1.697-58.205 23.106-58.68 23.321z"/></g><path d="M235.834 504.378s-14.353.551-19.473 0c-4.062-.443-18.035-2.85-23.624-3.819 3.079-3.015 6.432-8.07 8.707-11.787l3.231 1.589.894-1c10.792-6.341 16.134 7.119 16.134 7.119 14.575.665 14.131 7.898 14.131 7.898zm-37.952-149.42c-1.305.836-4.303 2.496-8.453 2.641-4.855.171-8.365-1.824-9.652-2.641l.057-8.804.076-12.306h17.763l.101 10.755.102 10.362.006-.007z" class="B"/><path d="M197.774 344.603c-3.814 1.209-8.054 1.893-12.528 1.893-1.85 0-3.663-.114-5.418-.335l.076-12.307h17.763l.101 10.755.006-.006z" class="C"/><path d="M169.055 309.077l2.7 11.141c.196 2.197.798 5.668 2.832 9.367l.431.767c2.072 3.521 8.321 11.267 15.602 10.406 2.085-.247 3.561-1.115 5.165-2.065 3.434-2.027 5.234-4.617 6.983-7.138 1.495-2.153 3.39-5.156 4.379-9.469.285-1.254.418-2.54.418-3.825v-10.033c8.472-28.401-45.512-31.213-38.51.842v.007z" class="B"/><g class="C"><path d="M190.309 323.803a3.97 3.97 0 0 1-1.641-.349c-.995-.449-1.61-1.045-1.838-1.767-.291-.925.19-1.71.742-2.616l.621-1.089c.767-1.545 1.033-3.395.798-5.498l.507-.057c.247 2.204-.038 4.149-.849 5.777-.203.411-.425.779-.64 1.133-.507.836-.913 1.495-.691 2.198.127.393.495.969 1.559 1.451.932.424 1.813.316 2.256.215l.114.494c-.228.051-.551.108-.938.108z"/><path d="M189.574 329.117h-.38a21.93 21.93 0 0 1-7.477-1.445l.202-.525a21.62 21.62 0 0 0 7.288 1.406 21.28 21.28 0 0 0 8.016-1.406l.203.525c-2.522.957-5.165 1.445-7.845 1.445h-.007z" style="mix-blend-mode:multiply"/></g><g class="F"><path d="M209.295 317.817c-.659-2.692-2.072-5.669-3.023-8.208l-.006-.026c-.678-1.982-3.194-5.041-6.388-7.702-2.579-2.147-5.595-4.041-8.447-4.896l-.19-.057c-.52-.145-1.027-.259-1.527-.335-.013.006-.026.006-.038.012v-.025a7.89 7.89 0 0 1-.292-.082 28.16 28.16 0 0 0-4.056 1.558c-1.324.627-2.572 1.349-3.732 2.153a25.46 25.46 0 0 0-3.378 2.749c-4.277 4.085-7.015 9.38-8.086 14.859-7.021-4.288-6.71-19.451-3.086-23.815 3.175-6.365 12.446-14.973 22.192-8.962 10.26-5.301 18.79.899 23.149 8.962 3.619 4.383 3.955 19.483-3.086 23.815h-.006z"/><path d="M191.234 296.928a12.83 12.83 0 0 0-1.527-.335c-.012.006-.025.006-.038.012v-.025l-.291-.082c-1.426.424-2.776.95-4.056 1.558a11.05 11.05 0 0 0-3.023 1.621l-.709.532-3.378 2.749-.83.741c.982-2.103 5.995-12.116 11.603-10.4 0 0 2.44 1.318 2.249 3.629zm8.879 4.808l-.241.145c-2.579-2.147-5.596-4.041-8.447-4.896.507-.81 1.704-2.394 3.345-2.508 2.345-.152 5.254 2.724 5.343 7.259z" style="mix-blend-mode:screen"/><path d="M180.544 305.929l-3.194.367c-.976.266-3.067 1.02-5.082 3.376l7.212-1.837 5.532.171.513-2.109-4.975.025-.006.007zm17.617.316l3.213.121c.988.19 3.136.779 5.335 2.97l-7.331-1.266-5.501.601-.678-2.058 4.962-.361v-.007z"/></g><g style="mix-blend-mode:multiply" opacity=".32" class="B"><path d="M171.932 319.375c.38.602 2.415-.874 6.274-.861 3.656.012 5.551 1.349 5.817.861.406-.722-3.08-4.997-7.034-4.509-3.2.399-5.519 3.768-5.057 4.509z"/></g><g style="mix-blend-mode:multiply" opacity=".32" class="B"><path d="M195.164 320.205c.38.602 2.414-.874 6.273-.861 3.657.012 5.551 1.349 5.818.861.405-.722-3.08-4.997-7.035-4.51-3.2.399-5.519 3.769-5.056 4.51z"/></g><path d="M172.534 318.698c1.318 3.603.888 7.074-.963 7.752s-4.423-1.697-5.741-5.301-.887-7.075.963-7.753 4.423 1.698 5.741 5.302z" class="B"/><g class="C"><path d="M170.633 322.225l-.507-.038c0-.044.324-4.37-1.603-5.244-.222-.101-.995-.405-1.489-.032-.387.298-.52.957-.323 1.641l-.488.139c-.254-.899-.057-1.754.507-2.185.716-.551 1.717-.158 2.009-.032 2.243 1.02 1.913 5.555 1.901 5.745l-.007.006z"/><path d="M167.636 321.117c-1.229-3.857.824-4.617.906-4.649l.171.481c-.07.026-1.66.659-.596 4.01l-.487.152.006.006z"/></g><path d="M206.545 319.394c-1.318 3.604-.888 7.075.963 7.753s4.423-1.698 5.741-5.301.887-7.075-.963-7.753-4.423 1.697-5.741 5.301z" class="B"/><g class="C"><path d="M208.452 322.929c-.013-.19-.348-4.725 1.895-5.745.291-.133 1.293-.519 2.009.032.564.43.76 1.285.507 2.185l-.488-.14c.196-.684.063-1.342-.323-1.64-.495-.374-1.262-.07-1.49.032-1.92.874-1.603 5.2-1.603 5.244l-.507.038v-.006z"/><path d="M211.45 321.82l-.488-.152c1.064-3.35-.526-3.984-.596-4.009l.171-.482c.089.032 2.136.792.906 4.649l.007-.006z"/></g><path d="M183.161 327.577c2.637-1.488 4.005-1.494 4.778-1.165l1.604.735s.348-.349.9-.608c.354-.171.95-.323 2.135-.127.716.12 1.889.412 3.232 1.216-1.248 2.907-4.189 4.649-7.135 4.301-2.44-.292-4.557-1.976-5.514-4.352z" fill="#eebacc" style="mix-blend-mode:multiply"/><path d="M172.959 310.185a237.93 237.93 0 0 1 1.457 14.39c.545 7.696.691 14.935.564 21.655a11.55 11.55 0 0 1-5.671-.133c-1.28-.367-2.294-.899-3.023-1.374 2.522-5.428 3.118-9.868 3.219-12.858.463-13.807-.032-18.33-.032-18.33-.082-.76-.329-2.799.742-3.534.792-.544 1.99-.152 2.737.178l.007.006zm28.953 5.232l-.266.38c-.538 1.019-1.388 1.995-2.509 2.039-2.256.089-3.733-3.686-3.473-4.06.197-.285 1.325 1.463 3.169 1.47.513 0 .975-.133 1.381-.33.133-.063.26-.139.387-.215.012-.006.031-.019.044-.025l.165-.114c.006 0 .019-.013.025-.019l.33-.247.133-.108c.019-.019.038-.032.057-.051l.107-.095.095-.082c.026-.019.045-.044.07-.063l.184-.165c.019-.019.038-.032.051-.044l.069-.057.064-.051c.019-.013.031-.025.05-.038a.33.33 0 0 1 .076-.044c.007 0 .019-.007.026-.013.019-.007.038-.013.051-.013.038 0 .057.013.069.026l.026.05c.006.019.012.045.012.076.361.178.78.45 1.198.868.367.367.646.766.862 1.134l-2.446-.222-.007.013zm-24.036 0l.266.38c.539 1.019 1.388 1.995 2.51 2.039 2.256.089 3.732-3.686 3.472-4.06-.196-.285-1.324 1.463-3.168 1.47a3.14 3.14 0 0 1-1.381-.33c-.134-.063-.26-.139-.387-.215-.013-.006-.025-.019-.044-.025l-.165-.114c-.006 0-.019-.013-.025-.019l-.33-.247-.133-.108c-.019-.019-.038-.032-.057-.051l-.108-.095-.095-.082c-.025-.019-.044-.044-.07-.063l-.183-.165c-.019-.019-.038-.032-.051-.044l-.07-.057-.063-.051-.051-.038a.31.31 0 0 0-.076-.044c-.006 0-.019-.007-.025-.013-.019-.007-.038-.013-.051-.013-.038 0-.057.013-.07.026l-.025.05c-.006.019-.013.045-.013.076a4.52 4.52 0 0 0-1.197.868c-.368.367-.647.766-.862 1.134l2.446-.222.006.013z" class="F"/><path d="M219.364 399.827l-5.462 25.658-50.125-1.508-5.165-20.141-24.854-14.384 6.87-13.668c.728-2.838 2.959-9.875 9.6-15.518 10.07-8.563 22.237-7.094 24.264-6.809.311 7.879 7.117 13.839 14.455 13.288 6.73-.506 12.294-6.365 12.395-13.56 1.705-.437 9.696-2.299 17.566 2.305 10.716 6.277 11.388 18.792 11.419 19.673l8.65 16.233-19.619 8.431h.006z" fill="#6a61f1"/><g class="F"><path d="M154.957 384.17l-.621.125 3.948 19.622.621-.125-3.948-19.622z"/><path d="M152.009 390.494l-.475.42 5.433 6.147.475-.419-5.433-6.148zm22.078 26.396l-.228-.589c.285-.114 28.548-11.331 34.264-29.357l.602.19c-5.811 18.317-34.353 29.642-34.638 29.756z"/></g><path d="M210.702 314.169c-.057-3.731-1.039-7.227-2.706-10.267-.146-.272-.298-.526-.463-.785-.64-1.083-1.375-2.091-2.186-3.034l-.348-.387c-.59-.652-1.211-1.266-1.87-1.836-.133-.121-.272-.235-.405-.349-1.547-1.286-3.264-2.343-5.095-3.148l-.577-.24c-2.218-.893-4.588-1.4-7.04-1.457a18.59 18.59 0 0 0-1.337.013c-.172.006-.336.019-.507.031-.843.057-1.673.171-2.485.336-.215.038-.43.082-.64.133-1.837.431-3.599 1.108-5.24 2.008a20.81 20.81 0 0 0-2.934 1.932c-.026.012-.045.031-.07.05a22.32 22.32 0 0 0-6.153 7.544l-.209.437a22.05 22.05 0 0 0-1.432 3.977l-.134.57c-.43 1.888-.608 3.877-.506 5.916-.393-1.21-1.16-3.851-1.249-7.284l-.013-.525a23.2 23.2 0 0 1 .317-4.06c.019-.159.051-.317.076-.475a23.99 23.99 0 0 1 .913-3.484c.038-.101.07-.203.108-.304.012-.044.031-.089.044-.139h.006a25.79 25.79 0 0 1 2.605-5.264c.082-.126.165-.259.26-.392a22.19 22.19 0 0 1 3.295-3.877l.405-.361a19.57 19.57 0 0 1 4.5-2.996 6.84 6.84 0 0 1 .583-.272c.152-.076.304-.139.456-.203 1.559-.646 3.149-1.076 4.746-1.311.425-.063.843-.114 1.261-.152a21.95 21.95 0 0 1 3.872.026c.311.031.621.063.932.107h.006a23.59 23.59 0 0 1 7.915 2.61c.266.146.526.291.786.45a21.23 21.23 0 0 1 2.801 1.938c1.831 1.488 3.257 3.262 4.347 5.155.101.165.19.33.279.494.792 1.457 1.407 2.977 1.869 4.504.051.164.095.323.14.481 2.021 7.037 1.07 13.89 1.07 13.89h.007z" class="E"/><path d="M186.678 284.514c-1.299.602-2.465 1.482-3.377 2.597-.64.785-1.173 1.685-1.686 2.559-.83 1.406-1.692 2.856-3.01 3.876-1.654 1.286-3.904 1.679-5.913 1.153-.525-.139-1.039-.349-1.52-.621l.259-.393c2.136 1.185 4.95.995 6.882-.519 1.242-.969 2.041-2.312 2.89-3.737l1.73-2.616c.703-.861 1.546-1.583 2.484-2.147l1.261-.152zm-7.046 1.938c-.292.83-.792 1.774-1.661 2.432-.849.627-1.939.837-2.839.564l-.405.361a2.2 2.2 0 0 0 .361.127c1.02.266 2.231.025 3.169-.678 1.115-.836 1.685-2.084 1.958-3.078l-.583.272zm19.777.805l-1.305.114c-2.129.24-4.202.791-6.128 1.646-2.015.9-3.226 1.976-3.694 3.313l-.115.38.507-.032c.013-.063.038-.126.057-.19.419-1.203 1.547-2.191 3.435-3.04 2.491-1.096 5.247-1.691 8.029-1.742l-.786-.449zm7.934 7.543l-.348.646-.653 1.254-.887 2.008-.457.988.349.386.539-1.184.893-2.008c.14-.323.368-.734.634-1.21l.209-.386-.279-.494zm-4.429.596c-.691-1.349-2.123-2.065-3.821-1.907-.736.07-1.426.298-2.041.634l.577.24c.462-.209.976-.348 1.508-.399a3.89 3.89 0 0 1 1.394.102c.862.228 1.553.76 1.958 1.551.304.608.355 1.261.235 1.894l.405.342c.216-.811.184-1.666-.215-2.457zm6.717 4.883c-.609.405-1.09 1.001-1.356 1.691-.248.621-.311 1.267-.279 1.932l-.463-.786c.038-.449.127-.886.292-1.317.323-.83.919-1.533 1.666-1.995l.14.475zm-29.828-5.092a20.89 20.89 0 0 0-2.934 1.931c-.026.013-.045.032-.07.051l-.729.481c-1.229.83-2.496 1.685-3.948 2.103-1.21.349-2.496.342-3.713.032l.108-.304.044-.14h.006c1.116.273 2.301.273 3.422-.044 1.382-.399 2.617-1.229 3.815-2.039l1.977-1.254a8.59 8.59 0 0 1 2.022-.817zm-9.157 9.525l-.209.437c-.818-.665-1.851-1.146-3.017-1.406l.076-.475c1.211.266 2.288.76 3.15 1.444zm-4.417 12.605l-.057.133.12.335h.007l-.07-.462v-.006zm.874-9.514l.013.526c.387.19.761.418 1.09.697a4.44 4.44 0 0 1 .665.671l.134-.57c-.539-.576-1.198-1.013-1.902-1.324zm24.385-23.156c-2.059 1.444-4.265 3.439-5.203 5.827-.202.507-.551 1.381-.602 2.572l-.64.133c.032-1.381.444-2.413.647-2.939.906-2.299 2.902-4.244 4.867-5.7l.931.107z" style="mix-blend-mode:multiply" class="E"/><path d="M133.644 421.558c-1.876-.741-5.83-.583-5.868-.583l-.025-.633c.171 0 4.125-.165 6.128.627l-.235.589zm110.739 3.819l-.228-.589c4.676-1.805 6.026-1.267 6.165-1.197l-.266.576s-1.28-.481-5.671 1.216v-.006z" class="C"/><path d="M177.103 384.702l6.844.025c.475-8.069-2.237-9.165 6.515-8.766a1.95 1.95 0 0 1 1.945 1.957l-.025 6.841c8.073.475 9.169-2.236 8.77 6.511a1.95 1.95 0 0 1-1.958 1.944l-6.844-.025c-.475 8.069 2.237 9.165-6.514 8.766a1.95 1.95 0 0 1-1.946-1.957l.025-6.841-6.844-.025a1.95 1.95 0 0 1-1.945-1.957c.247-1.704-.97-6.537 1.977-6.473z" fill="#fff"/><path d="M199.194 393.214l-6.844-.025c-.475 8.069 2.243 9.165-6.515 8.772a1.95 1.95 0 0 1-1.945-1.957l.019-6.841-6.838-.019a1.95 1.95 0 0 1-1.945-1.957c.12-.829-.101-2.394-.019-3.781 2.326 1.108 4.936 1.9 7.737 2.293 6.965.969 13.498-.792 17.788-4.275.615.798.685 2.476.533 5.858 0 1.077-.881 1.945-1.959 1.945l-.012-.013z" class="H"/><defs><radialGradient id="A" cx="0" cy="0" r="1" gradientUnits="userSpaceOnUse" gradientTransform="translate(188.277 373.237) rotate(89.1396) scale(143.206 253.604)"><stop stop-color="#b0b6ff" stop-opacity=".1"/><stop offset=".25" stop-color="#b0b6ff" stop-opacity=".11"/><stop offset=".37" stop-color="#b3b9ff" stop-opacity=".14"/><stop offset=".47" stop-color="#b7bdff" stop-opacity=".19"/><stop offset=".55" stop-color="#bdc2ff" stop-opacity=".26"/><stop offset=".62" stop-color="#c5caff" stop-opacity=".35"/><stop offset=".69" stop-color="#cfd3ff" stop-opacity=".46"/><stop offset=".75" stop-color="#dbdeff" stop-opacity=".6"/><stop offset=".81" stop-color="#e9ebff" stop-opacity=".75"/><stop offset=".86" stop-color="#f8f9ff" stop-opacity=".93"/><stop offset=".88" stop-color="#fff"/></radialGradient></defs></svg>