<svg width="390" height="644" viewBox="0 0 390 644" fill="none" xmlns="http://www.w3.org/2000/svg">
<g clip-path="url(#clip0_80_357)">
<path d="M348.915 411.777H295.709C295.367 406.626 298.702 401.53 303.625 399.951C308.547 398.367 314.412 400.516 317.141 404.898C318.854 402.995 322.604 403.301 324.19 405.3C325.08 400.99 329.497 397.706 333.885 398.078C338.272 398.451 342.052 402.431 342.202 406.831C343.621 405.9 345.88 406.32 347.299 407.245C348.717 408.169 349.192 410.108 348.909 411.777H348.915Z" fill="#BAEEFF"/>
<path d="M78.6309 543.713H134.8C135.16 538.275 131.638 532.896 126.44 531.228C121.247 529.559 115.051 531.822 112.166 536.45C110.357 534.439 106.403 534.763 104.72 536.876C103.782 532.326 99.1128 528.856 94.4851 529.253C89.8515 529.649 85.8609 533.851 85.7046 538.491C84.2081 537.507 81.8222 537.951 80.3257 538.929C78.8232 539.908 78.3244 541.955 78.6249 543.713H78.6309Z" fill="white"/>
<path d="M361.837 446.197H329.738C328.433 442.253 329.647 437.469 332.676 434.624C335.705 431.778 340.429 430.89 344.288 432.433C348.146 433.975 350.947 437.877 351.175 442.025C352.455 441.095 354.21 440.501 355.779 440.296C357.353 440.092 359.042 440.465 360.226 441.515C361.416 442.566 362.39 444.721 361.831 446.197H361.837Z" fill="#BAEEFF"/>
<path d="M57.6323 204.679H25.5333C24.2291 200.735 25.4431 195.951 28.4721 193.105C31.5011 190.26 36.2249 189.371 40.0833 190.914C43.9417 192.457 46.7423 196.359 46.9707 200.507C48.2508 199.576 50.0057 198.982 51.5743 198.778C53.1489 198.574 54.8377 198.946 56.0216 199.997C57.2116 201.047 58.1852 203.202 57.6263 204.679H57.6323Z" fill="#BAEEFF"/>
<path d="M186.967 243.597V236.129L177.91 234.196C177.423 232.389 176.702 230.678 175.789 229.094L180.831 221.326L175.542 216.044L167.765 221.08C166.179 220.168 164.466 219.453 162.657 218.961L160.722 209.915H153.245L151.31 218.961C149.501 219.447 147.788 220.168 146.202 221.08L138.425 216.044L133.136 221.326L138.178 229.094C137.265 230.678 136.55 232.389 136.057 234.196L127 236.129V243.597L136.057 245.53C136.544 247.336 137.265 249.047 138.178 250.632L133.136 258.4L138.425 263.682L146.202 258.646C147.788 259.558 149.501 260.273 151.31 260.765L153.245 269.811H160.722L162.657 260.765C164.466 260.279 166.179 259.558 167.765 258.646L175.542 263.682L180.831 258.4L175.789 250.632C176.702 249.047 177.417 247.336 177.91 245.53L186.967 243.597ZM156.984 251.01C150.823 251.01 145.829 246.022 145.829 239.863C145.829 233.704 150.823 228.722 156.984 228.722C163.144 228.722 168.144 233.71 168.144 239.863C168.144 246.016 163.15 251.01 156.984 251.01Z" fill="#724CF9"/>
<path d="M314.212 349.85C319.324 344.744 319.324 336.466 314.212 331.361C309.101 326.255 300.813 326.255 295.701 331.361C290.589 336.466 290.589 344.744 295.701 349.85C300.813 354.956 309.101 354.956 314.212 349.85Z" fill="white"/>
<path d="M312.501 338.392H307.177V333.074H302.735V338.392H297.416V342.822H302.735V348.141H307.177V342.822H312.501V338.392Z" fill="#EF8181"/>
<path d="M111.601 485.366C117.735 485.366 122.708 480.399 122.708 474.273C122.708 468.146 117.735 463.179 111.601 463.179C105.468 463.179 100.495 468.146 100.495 474.273C100.495 480.399 105.468 485.366 111.601 485.366Z" fill="white"/>
<path d="M118.002 472.394H113.483V467.88H109.72V472.394H105.201V476.151H109.72V480.666H113.483V476.151H118.002V472.394Z" fill="#EF8181"/>
<path d="M355.493 322.936C357.963 323.602 360.644 322.366 361.828 320.025C362.531 318.632 362.615 317.125 362.206 315.786C361.9 314.772 361.93 313.679 362.326 312.683L372.098 316.531L375.951 306.782C374.953 306.386 373.853 306.356 372.838 306.662C371.497 307.064 369.989 306.98 368.601 306.278C366.257 305.095 365.019 302.418 365.686 299.951C366.545 296.745 370.031 295.119 373.114 296.337C374.37 296.835 375.356 297.724 375.969 298.798C376.486 299.711 377.315 300.419 378.307 300.809L382.159 291.055L356.653 281L352.801 290.755C351.815 290.364 350.986 289.656 350.463 288.75C349.85 287.669 348.864 286.781 347.608 286.283C344.525 285.07 341.039 286.691 340.18 289.896C339.513 292.363 340.751 295.041 343.095 296.223C344.489 296.926 345.997 297.01 347.338 296.601C348.353 296.295 349.447 296.325 350.445 296.721L346.592 306.476L356.364 310.33C356.364 310.33 356.364 310.33 356.358 310.33C355.968 311.314 355.259 312.143 354.351 312.665C353.269 313.277 352.38 314.262 351.881 315.516C350.667 318.596 352.29 322.077 355.499 322.936H355.493Z" fill="#D2C6FF"/>
<path d="M272.601 567.545C276.67 558.505 281.562 549.83 287.187 541.673C287.861 540.694 288.546 539.728 289.237 538.767C289.129 538.653 289.02 538.539 288.918 538.413C284.802 533.785 282.458 526.311 282.902 519.984C283.353 513.603 285.841 507.144 290.018 502.294C290.138 502.156 290.253 502.012 290.373 501.88C290.457 502.012 290.541 502.15 290.625 502.282C296.815 512.361 297.104 525.831 291.244 536.036C294.105 532.236 297.134 528.562 300.313 525.027C300.241 525.093 300.175 525.153 300.103 525.219C299.983 525.027 299.862 524.835 299.754 524.636C296.635 519.282 295.824 511.496 297.519 505.385C299.231 499.22 302.951 493.386 308.006 489.454C308.15 489.34 308.294 489.226 308.439 489.118C308.493 489.268 308.547 489.418 308.601 489.562C312.465 500.121 310.494 512.625 303.619 521.425C304.454 520.542 305.301 519.672 306.161 518.814C308.871 516.088 311.678 513.465 314.569 510.944C314.479 510.758 314.388 510.572 314.31 510.386C311.78 504.731 311.804 496.903 314.148 491.002C316.504 485.054 320.831 479.651 326.276 476.284C326.432 476.187 326.589 476.085 326.739 475.995C326.775 476.151 326.817 476.302 326.853 476.458C329.575 487.401 326.258 499.665 318.433 507.684C321.853 504.881 325.387 502.21 329.023 499.695C329.912 499.082 330.808 498.476 331.703 497.882C331.631 497.678 331.571 497.468 331.517 497.251C329.798 491.303 330.91 483.553 334.053 478.036C337.214 472.472 342.25 467.717 348.11 465.142C348.278 465.064 348.447 464.992 348.609 464.926C348.627 465.082 348.645 465.244 348.663 465.4C349.835 476.59 344.865 488.241 336.036 495.102C339.816 492.761 343.693 490.57 347.653 488.541C350.358 482.971 356.356 477.928 362.378 475.899C368.442 473.864 375.359 473.672 381.453 475.647C381.633 475.701 381.808 475.761 381.982 475.827C381.892 475.953 381.802 476.085 381.706 476.205C374.163 486.656 360.196 492.203 347.647 489.226C343.945 491.129 340.315 493.182 336.763 495.367C339.732 494.1 342.899 493.29 346.067 492.983C352.389 492.365 359.926 494.502 364.673 498.494C364.854 498.632 365.022 498.782 365.19 498.938C365.112 498.998 365.04 499.052 364.962 499.112C354.739 506.952 339.732 507.612 328.56 501.177C328.452 501.117 328.343 501.051 328.235 500.991C323.049 504.647 318.072 508.603 313.349 512.835C317.652 509.863 322.832 508.021 328.001 507.516C334.323 506.898 341.86 509.035 346.608 513.027C346.788 513.165 346.956 513.315 347.124 513.471C347.046 513.531 346.974 513.585 346.896 513.645C336.673 521.485 321.666 522.145 310.494 515.71C310.44 515.68 310.386 515.644 310.326 515.614C309.965 515.956 309.598 516.292 309.238 516.635C304.839 520.855 300.686 525.327 296.779 530.009C301.383 526.281 307.279 523.97 313.156 523.394C319.479 522.776 327.015 524.913 331.763 528.904C331.943 529.043 332.112 529.193 332.28 529.349C332.202 529.409 332.13 529.463 332.052 529.523C321.829 537.362 306.822 538.023 295.649 531.588C295.613 531.57 295.577 531.546 295.541 531.528C293.552 533.971 291.629 536.462 289.784 539.013C284.002 547.003 278.942 555.515 274.693 564.411C274.164 565.534 273.641 566.65 273.136 567.779C272.98 568.133 272.421 567.911 272.577 567.563L272.601 567.545Z" fill="#A8DCE0"/>
<path d="M153.37 558.03C145.678 551.763 138.562 544.8 132.131 537.254C131.362 536.354 130.605 535.442 129.854 534.523C129.715 534.595 129.577 534.673 129.433 534.739C123.892 537.513 116.055 537.837 110.057 535.766C104.005 533.677 98.4036 529.601 94.7976 524.318C94.6895 524.168 94.5873 524.018 94.4911 523.868C94.6414 523.82 94.7976 523.778 94.9479 523.73C106.301 520.368 119.402 523.586 127.75 531.876C124.817 528.13 122.053 524.258 119.45 520.278C119.492 520.362 119.534 520.446 119.583 520.531C119.366 520.597 119.15 520.663 118.927 520.717C112.942 522.337 105.201 521.107 99.7318 517.883C94.2147 514.636 89.5329 509.533 87.0448 503.638C86.9727 503.47 86.9006 503.302 86.8345 503.134C86.9907 503.122 87.153 503.104 87.3093 503.092C98.5178 502.102 110.105 507.24 116.83 516.154C116.193 515.116 115.574 514.077 114.961 513.027C113.032 509.707 111.217 506.322 109.528 502.876C109.33 502.918 109.125 502.954 108.921 502.978C102.797 503.951 95.2304 501.904 90.1339 498.116C84.9955 494.298 80.8847 488.727 79.0456 482.599C78.9915 482.424 78.9375 482.25 78.8894 482.076C79.0456 482.076 79.2079 482.076 79.3642 482.082C90.6508 482.292 101.649 488.673 107.376 498.296C105.555 494.268 103.885 490.174 102.394 486.008C102.034 484.994 101.679 483.973 101.336 482.953C101.12 482.965 100.898 482.977 100.681 482.971C94.4791 483.085 87.2732 480.005 82.7538 475.545C78.1922 471.049 74.9048 464.962 73.9312 458.641C73.9011 458.461 73.8711 458.281 73.847 458.101C74.0033 458.125 74.1596 458.149 74.3158 458.173C85.4402 459.944 95.4227 467.753 99.7679 478.048C98.4877 473.792 97.3699 469.488 96.4323 465.142C91.7446 461.09 88.4211 453.995 88.0184 447.662C87.6218 441.287 89.2264 434.564 92.7182 429.197C92.8204 429.035 92.9225 428.885 93.0247 428.729C93.1269 428.849 93.2291 428.969 93.3192 429.095C101.469 439.078 103.218 453.989 97.0874 465.328C97.9649 469.392 99.0166 473.432 100.207 477.424C99.7558 474.231 99.7919 470.965 100.315 467.832C101.354 461.571 105.375 454.853 110.466 451.312C110.646 451.174 110.838 451.048 111.024 450.927C111.06 451.018 111.097 451.102 111.133 451.192C116.067 463.089 112.815 477.736 103.692 486.843C103.602 486.933 103.518 487.017 103.428 487.107C105.616 493.061 108.158 498.884 111.024 504.539C109.27 499.617 108.831 494.142 109.678 489.028C110.718 482.767 114.739 476.049 119.829 472.508C120.009 472.37 120.202 472.244 120.388 472.124C120.424 472.214 120.46 472.298 120.496 472.388C125.43 484.285 122.179 498.932 113.056 508.039C113.008 508.087 112.966 508.129 112.918 508.177C113.152 508.615 113.38 509.053 113.621 509.491C116.566 514.828 119.805 519.996 123.327 524.973C120.911 519.564 120.208 513.279 121.175 507.456C122.215 501.195 126.236 494.478 131.326 490.936C131.506 490.798 131.699 490.672 131.885 490.552C131.921 490.642 131.957 490.726 131.993 490.816C136.927 502.714 133.676 517.361 124.553 526.467C124.523 526.497 124.493 526.527 124.463 526.557C126.308 529.109 128.219 531.612 130.208 534.049C136.434 541.697 143.358 548.786 150.858 555.191C151.802 555.995 152.751 556.788 153.707 557.568C154.007 557.814 153.653 558.294 153.352 558.048L153.37 558.03Z" fill="#A8DCE0"/>
<path d="M119.841 552.922C118.849 549.518 117.239 546.019 114.192 544.188C113.741 543.912 113.236 543.707 112.689 543.575C112.479 543.515 112.275 543.473 112.058 543.437C108.993 542.933 105.147 544.212 104.095 546.829C104.083 537.993 101.529 529.175 96.805 521.707C95.3927 519.462 93.752 517.313 91.5824 515.794C90.134 514.774 88.4091 514.077 86.6542 513.915C86.4439 513.891 86.2335 513.885 86.0172 513.885C85.3621 513.873 84.707 513.939 84.07 514.101C81.4977 514.738 78.3906 517.049 78.3485 519.696C77.6514 512.583 75.0431 505.667 70.8722 499.863C69.0632 497.342 66.9056 494.994 64.1891 493.494C62.3982 492.515 60.3368 491.933 58.3054 491.975C58.0831 491.975 57.8667 491.993 57.6503 492.011C56.821 492.077 56.0036 492.257 55.2223 492.563C52.3256 493.686 50.168 496.411 50.4925 499.491C43.3407 489.034 30.9543 482.346 18.2793 482.1C15.7792 482.052 12.9425 482.454 11.0614 483.919C10.8811 484.057 10.7128 484.201 10.5446 484.357C10.1178 484.778 9.75725 485.27 9.4868 485.84C8.33891 488.271 9.39665 491.291 11.2958 493.2C13.1949 495.108 15.7732 496.153 18.2733 497.149C25.8879 500.175 33.3943 505.049 41.0028 508.087C37.7815 507.66 34.2777 508.477 31.9699 510.77C31.2788 511.46 30.7259 512.283 30.3412 513.189C30.2571 513.375 30.179 513.573 30.1069 513.765C29.4277 515.734 29.5119 517.943 30.6117 519.696C31.8137 521.611 33.9772 522.734 36.1769 523.256C38.3765 523.772 40.6663 523.766 42.92 523.922C50.7149 524.462 58.2033 526.641 64.7781 530.861C61.9474 530.927 59.0206 531.234 56.5746 532.656C54.8678 533.659 53.4554 535.333 52.9566 537.2C52.8965 537.404 52.8544 537.603 52.8244 537.813C52.7162 538.425 52.7162 539.049 52.8364 539.674C53.3352 542.279 55.7332 544.176 58.2694 544.992C60.7995 545.808 63.516 545.784 66.1664 546.031C74.7967 546.829 82.6637 550.821 88.914 556.812C86.1314 556.836 83.2466 556.872 80.7285 558.066C79.3822 558.703 78.1682 559.765 77.405 561.032C77.2848 561.23 77.1766 561.428 77.0864 561.644C76.6477 562.586 76.4614 563.619 76.6417 564.663C77.0504 567.053 79.214 568.793 81.5037 569.592C83.7875 570.39 86.2516 570.468 88.6435 570.852C98.9626 572.533 107.286 579.917 114.979 586.988C116.848 586.604 118.026 585.553 119.691 584.971C119.877 584.899 120.069 584.845 120.274 584.797C120.388 584.767 120.508 584.737 120.628 584.713C121.74 574.1 122.816 563.163 119.841 552.916V552.922Z" fill="#A8DCE0"/>
<path d="M258.995 511.995C259.013 511.899 259.031 511.809 259.049 511.712C261.453 499.064 272.217 488.596 284.844 485.978C285 485.948 285.156 485.912 285.312 485.882C285.3 486.062 285.276 486.242 285.258 486.428C284.585 492.792 281.58 499.028 277.235 503.729C272.926 508.393 265.876 511.809 259.68 511.983C259.452 512.001 259.223 512.001 259.001 511.995H258.995Z" fill="#A8DCE0"/>
<path d="M258.995 511.994C259.013 511.898 259.031 511.808 259.049 511.712C262.132 509.251 265.131 506.682 268.034 504.005C274.086 498.428 279.711 492.401 284.85 485.972C285.006 485.942 285.162 485.906 285.318 485.876C285.306 486.056 285.282 486.236 285.264 486.422C279.381 493.758 272.872 500.589 265.816 506.82C263.815 508.591 261.771 510.314 259.68 511.976C259.452 511.994 259.223 511.994 259.001 511.988L258.995 511.994Z" fill="#75BBBC"/>
<path d="M262.072 501.586C262.09 501.489 262.108 501.399 262.126 501.309C264.656 488.685 258.616 474.945 247.901 467.777C247.768 467.687 247.636 467.603 247.504 467.513C247.45 467.681 247.402 467.862 247.354 468.036C245.587 474.189 246.025 481.092 248.279 487.077C250.515 493.013 255.768 498.824 261.447 501.315C261.651 501.411 261.862 501.501 262.072 501.586Z" fill="#A8DCE0"/>
<path d="M262.072 501.586C262.09 501.489 262.108 501.399 262.126 501.309C260.191 497.87 258.382 494.364 256.699 490.798C253.189 483.361 250.244 475.665 247.901 467.777C247.768 467.687 247.636 467.603 247.504 467.513C247.45 467.681 247.402 467.862 247.354 468.036C250.046 477.04 253.508 485.816 257.703 494.238C258.893 496.627 260.137 498.992 261.447 501.321C261.651 501.417 261.862 501.507 262.072 501.592V501.586Z" fill="#75BBBC"/>
<path d="M248.399 541.528C250.377 536.828 252.246 532.086 254.007 527.296C255.762 522.529 257.408 517.721 258.941 512.883C260.485 508.021 261.916 503.128 263.232 498.2C264.548 493.278 265.756 488.319 266.85 483.337C267.944 478.354 268.917 473.354 269.783 468.324C269.891 467.687 269.999 467.057 270.101 466.421C270.161 466.043 269.578 465.911 269.512 466.295C268.683 471.301 267.739 476.29 266.682 481.254C265.618 486.242 264.446 491.201 263.154 496.135C261.874 501.045 260.479 505.926 258.971 510.776C257.462 515.644 255.84 520.476 254.109 525.267C252.384 530.039 250.551 534.775 248.604 539.463C248.357 540.058 248.111 540.652 247.858 541.246C247.708 541.6 248.243 541.877 248.393 541.522L248.399 541.528Z" fill="#75BBBC"/>
<path d="M268.286 472.748C265.071 471.625 262.559 468.876 261.381 465.682C260.203 462.495 260.287 458.917 261.249 455.658C262.21 452.398 264.013 449.427 266.171 446.798C269.458 450.615 271.399 455.604 271.526 460.64C274.507 455.784 279.693 452.44 285.342 451.648C285.048 456.654 284.098 461.703 281.292 465.863C278.485 470.017 273.028 474.405 268.286 472.748Z" fill="#FF812C"/>
<path d="M257.366 451.84C255.846 456.426 255.725 461.529 257.39 466.073C259.055 470.611 262.559 474.519 267.042 476.338C271.526 478.156 276.935 477.736 280.895 474.963C285.949 471.421 287.933 464.992 289.381 458.995C285.108 459.782 281.087 461.541 277.638 464.176C278.491 457.933 277.734 451.54 275.318 445.723C269.789 449.205 265.558 454.601 263.418 460.766C262.751 456.816 260.666 454.109 257.366 451.834V451.84Z" fill="#FFAB24"/>
<path d="M248.496 355.284C248.622 355.272 248.736 355.272 248.856 355.272C249.061 355.272 249.265 355.272 249.463 355.284C251.224 355.392 252.636 356.089 254.548 355.956C260.035 347.072 266.051 337.708 275.528 333.302C277.728 332.281 280.078 331.543 282.061 330.156C284.05 328.77 285.661 326.507 285.409 324.093C285.3 323.043 284.844 322.094 284.164 321.308C284.02 321.128 283.858 320.966 283.696 320.804C282.614 319.789 281.16 319.093 279.693 318.847C276.941 318.385 274.152 319.123 271.472 319.855C275.865 312.4 282.355 306.427 290.451 303.33C292.939 302.375 295.559 301.661 297.771 300.19C299.989 298.719 301.792 296.246 301.563 293.605C301.509 292.969 301.341 292.368 301.07 291.804C300.986 291.612 300.89 291.426 300.776 291.252C299.784 289.589 297.975 288.358 296.058 287.854C293.318 287.146 290.421 287.644 287.674 288.346C292.861 282.506 299.478 278.388 306.84 275.752C308.967 274.996 311.173 274.384 313.15 273.285C315.128 272.187 316.901 270.518 317.544 268.351C318.133 266.364 317.61 264.215 316.426 262.504C316.306 262.336 316.179 262.168 316.047 262.012C315.434 261.25 314.671 260.601 313.823 260.127C310.981 258.542 307.387 258.698 304.4 259.983C310.903 255.007 316.81 248.283 323.319 243.313C325.459 241.68 327.652 239.975 328.968 237.628C330.285 235.281 330.483 232.088 328.716 230.059C328.301 229.585 327.821 229.206 327.298 228.918C327.099 228.816 326.895 228.714 326.685 228.636C324.479 227.736 321.642 228.12 319.244 228.84C307.104 232.502 296.996 242.287 292.945 254.286C292.422 251.231 289.609 249.196 286.514 248.896C285.685 248.812 284.844 248.866 284.026 249.022C283.81 249.064 283.6 249.106 283.383 249.166C281.418 249.676 279.585 250.787 278.131 252.215C275.925 254.394 274.483 257.234 273.425 260.151C270.985 266.868 270.342 274.228 271.598 281.263C270.84 278.724 267.223 277.337 264.572 277.421C263.911 277.439 263.268 277.553 262.637 277.739C262.427 277.793 262.228 277.865 262.03 277.937C260.383 278.568 258.917 279.708 257.793 281.077C256.116 283.13 255.113 285.645 254.367 288.184C251.843 296.654 251.771 305.833 254.151 314.339C252.432 312.1 248.375 311.914 245.563 313.228C245.364 313.318 245.178 313.42 244.992 313.534C244.499 313.81 244.066 314.147 243.706 314.531C241.266 317.118 240.665 320.918 240.635 324.466C240.55 335.139 244.547 345.373 248.496 355.29V355.284Z" fill="#A8DCE0"/>
<path d="M248.856 355.272C249.061 355.272 249.265 355.272 249.463 355.284C250.984 347.546 252.961 339.905 255.353 332.389C257.703 331.159 260.095 330 262.517 328.908C269.5 325.762 276.748 323.223 284.159 321.308C284.014 321.128 283.852 320.966 283.69 320.804C283.005 320.984 282.313 321.164 281.628 321.356C272.625 323.859 263.899 327.305 255.599 331.591C255.599 331.591 255.599 331.585 255.605 331.573C258.803 321.668 262.751 312.016 267.361 302.681C267.427 302.759 267.529 302.801 267.655 302.741C270.3 301.523 272.986 300.37 275.691 299.296C280.474 297.405 285.361 295.766 290.313 294.379C293.865 293.389 297.446 292.524 301.064 291.798C300.98 291.606 300.884 291.42 300.77 291.246C299.472 291.516 298.18 291.792 296.888 292.086C291.821 293.251 286.827 294.679 281.911 296.36C277.061 298.023 272.307 299.938 267.649 302.087C267.818 301.745 267.98 301.409 268.154 301.066C273.1 291.27 278.786 281.839 285.162 272.901C285.583 272.307 286.022 271.719 286.454 271.124C286.478 271.124 286.502 271.136 286.526 271.124C289.093 270.608 291.647 270.044 294.189 269.419C301.732 267.577 309.166 265.259 316.426 262.492C316.306 262.324 316.179 262.156 316.047 262C314.983 262.402 313.914 262.804 312.844 263.182C304.406 266.208 295.758 268.621 286.971 270.416C292.843 262.426 299.261 254.833 306.191 247.743C312.784 240.984 319.839 234.681 327.298 228.894C327.099 228.792 326.895 228.69 326.685 228.612C318.289 235.143 310.41 242.341 303.12 250.084C296.166 257.468 289.76 265.356 283.924 273.645C283.546 271.653 283.263 269.642 283.065 267.619C282.488 261.4 282.806 255.121 284.026 249.004C283.81 249.046 283.6 249.088 283.383 249.148C283.233 249.928 283.095 250.709 282.975 251.489C281.803 258.999 281.953 266.688 283.413 274.144C283.425 274.21 283.455 274.252 283.485 274.282C283.137 274.78 282.782 275.272 282.44 275.776C276.195 284.871 270.654 294.439 265.87 304.38C265.768 304.596 265.666 304.812 265.564 305.034C264.987 302.891 264.494 300.724 264.085 298.539C262.799 291.69 262.312 284.691 262.649 277.727C262.439 277.781 262.24 277.853 262.042 277.925C262 278.76 261.97 279.594 261.958 280.435C261.808 288.953 262.877 297.483 265.119 305.695C265.131 305.755 265.155 305.791 265.191 305.821C261.183 314.303 257.727 323.037 254.872 331.963C254.728 332.041 254.716 332.179 254.77 332.293C254.488 333.182 254.205 334.076 253.935 334.971C253.436 336.609 252.961 338.248 252.504 339.899C251.537 337.72 250.665 335.499 249.884 333.248C247.648 326.771 246.206 320.029 245.581 313.21C245.382 313.3 245.196 313.402 245.01 313.516C245.034 313.798 245.058 314.081 245.088 314.363C246.032 323.379 248.412 332.251 252.126 340.523C252.168 340.613 252.228 340.661 252.294 340.691C250.978 345.506 249.836 350.368 248.874 355.26L248.856 355.272Z" fill="#75BBBC"/>
<path d="M168.503 411.783C168.443 411.675 168.395 411.567 168.347 411.459C168.257 411.273 168.179 411.087 168.119 410.901C167.512 409.244 167.578 407.671 166.694 405.984C156.345 404.532 145.341 402.797 137.498 395.899C135.677 394.297 134.054 392.442 131.987 391.187C129.914 389.927 127.197 389.362 125.088 390.563C124.168 391.085 123.483 391.884 123.032 392.82C122.924 393.024 122.84 393.234 122.762 393.45C122.263 394.843 122.209 396.458 122.576 397.898C123.255 400.6 125.058 402.851 126.801 405.012C118.2 403.991 110.117 400.45 104.023 394.291C102.148 392.4 100.441 390.287 98.2053 388.852C95.9636 387.411 92.9767 386.757 90.6448 388.03C90.0859 388.336 89.5991 388.732 89.1964 389.2C89.0522 389.356 88.926 389.518 88.8058 389.692C87.6819 391.265 87.2792 393.42 87.5857 395.371C88.0365 398.162 89.6532 400.612 91.4021 402.839C83.9618 400.444 77.5251 396.043 72.1583 390.371C70.6077 388.726 69.1593 386.961 67.3624 385.587C65.5594 384.218 63.3177 383.263 61.076 383.552C59.0206 383.816 57.2597 385.154 56.1659 386.925C56.0577 387.105 55.9555 387.285 55.8654 387.471C55.4146 388.342 55.1261 389.296 55.03 390.263C54.7175 393.498 56.3041 396.722 58.684 398.937C51.5082 394.987 42.9681 392.286 35.7982 388.33C33.4363 387.027 30.9963 385.707 28.3159 385.448C25.6354 385.19 22.6245 386.289 21.4766 388.72C21.2061 389.29 21.0499 389.879 21.0018 390.479C20.9838 390.701 20.9778 390.929 20.9898 391.151C21.0499 393.528 22.5403 395.971 24.163 397.874C32.3966 407.503 45.4321 412.821 58.059 411.705C55.4687 413.41 54.7355 416.801 55.7031 419.755C55.9615 420.547 56.3462 421.297 56.8149 421.976C56.9351 422.156 57.0674 422.33 57.2056 422.504C58.4617 424.095 60.2226 425.325 62.1157 426.082C65.0005 427.228 68.1857 427.402 71.2868 427.198C78.4266 426.736 85.4282 424.359 91.378 420.385C89.3527 422.096 89.539 425.962 90.6809 428.351C90.9633 428.945 91.3239 429.491 91.7506 429.99C91.8889 430.158 92.0271 430.314 92.1773 430.464C93.4154 431.718 95.0501 432.601 96.7569 433.075C99.3111 433.789 102.022 433.687 104.648 433.357C113.428 432.265 121.866 428.639 128.712 423.044C127.353 425.517 128.808 429.299 131.14 431.346C131.302 431.49 131.47 431.622 131.645 431.748C132.095 432.085 132.576 432.349 133.075 432.523C136.428 433.711 140.155 432.739 143.418 431.34C153.232 427.132 161.009 419.359 168.521 411.765L168.503 411.783Z" fill="#A8DCE0"/>
<path d="M168.347 411.453C168.257 411.267 168.179 411.081 168.119 410.895C160.414 412.611 152.613 413.878 144.764 414.706C142.691 413.05 140.665 411.333 138.694 409.556C133.003 404.429 127.762 398.823 123.026 392.814C122.918 393.018 122.834 393.228 122.756 393.444C123.195 394.003 123.639 394.555 124.09 395.107C130.004 402.334 136.663 408.938 143.935 414.802C143.935 414.802 143.929 414.802 143.917 414.802C133.556 415.853 123.116 416.129 112.707 415.661C112.755 415.571 112.749 415.457 112.647 415.367C110.466 413.44 108.332 411.447 106.259 409.4C102.605 405.78 99.1369 401.974 95.8735 398C93.5356 395.149 91.3059 392.22 89.1905 389.206C89.0462 389.362 88.92 389.524 88.7998 389.698C89.5691 390.779 90.3444 391.853 91.1317 392.91C94.2328 397.076 97.5503 401.074 101.066 404.886C104.54 408.655 108.206 412.233 112.046 415.631C111.668 415.619 111.289 415.601 110.91 415.583C99.9422 415 89.0102 413.584 78.2524 411.345C77.5372 411.201 76.822 411.033 76.1069 410.877C76.1008 410.852 76.0948 410.828 76.0828 410.81C74.5803 408.673 73.0358 406.566 71.4432 404.489C66.7194 398.331 61.6169 392.46 56.1599 386.931C56.0517 387.111 55.9496 387.291 55.8594 387.477C56.6587 388.288 57.452 389.104 58.2333 389.933C64.3995 396.434 70.0849 403.373 75.2595 410.69C65.5775 408.529 56.0337 405.708 46.7484 402.22C37.9018 398.907 29.2895 394.981 20.9898 390.485C20.9718 390.707 20.9658 390.935 20.9778 391.157C30.3353 396.212 40.1074 400.528 50.132 404.087C59.6937 407.479 69.4959 410.174 79.4424 412.179C77.7656 413.326 76.0347 414.394 74.2618 415.385C68.7928 418.41 62.9091 420.643 56.809 421.988C56.9292 422.168 57.0614 422.342 57.1996 422.516C57.9749 422.342 58.7442 422.156 59.5074 421.952C66.8636 420.007 73.8531 416.777 80.1035 412.449C80.1636 412.413 80.1816 412.371 80.2056 412.329C80.8006 412.449 81.3956 412.569 81.9966 412.689C92.8385 414.748 103.843 415.973 114.877 416.351C115.117 416.357 115.358 416.363 115.598 416.369C113.861 417.756 112.076 419.076 110.237 420.331C104.474 424.263 98.2534 427.516 91.7327 430.008C91.8709 430.176 92.0091 430.332 92.1594 430.482C92.9467 430.188 93.7159 429.876 94.4912 429.551C102.358 426.268 109.75 421.862 116.379 416.507C116.427 416.471 116.451 416.435 116.463 416.387C125.851 416.645 135.245 416.297 144.578 415.325C144.71 415.427 144.836 415.379 144.926 415.289C145.852 415.187 146.79 415.09 147.715 414.976C149.422 414.772 151.111 414.55 152.812 414.304C151.201 416.063 149.518 417.756 147.769 419.377C142.727 424.023 137.132 428.051 131.128 431.364C131.29 431.508 131.458 431.64 131.633 431.766C131.879 431.628 132.131 431.496 132.378 431.352C140.269 426.868 147.445 421.129 153.539 414.406C153.605 414.334 153.623 414.256 153.623 414.184C158.569 413.452 163.479 412.545 168.353 411.459L168.347 411.453Z" fill="#75BBBC"/>
<path d="M120.069 295.328C120.021 295.244 119.967 295.166 119.919 295.088C113.11 284.157 113.933 269.173 121.446 258.705C121.536 258.578 121.632 258.446 121.722 258.32C121.83 258.458 121.939 258.608 122.047 258.759C125.863 263.897 127.882 270.512 127.876 276.911C127.876 283.256 124.998 290.538 120.556 294.86C120.4 295.022 120.232 295.178 120.063 295.328H120.069Z" fill="#A8DCE0"/>
<path d="M120.069 295.328C120.021 295.244 119.967 295.166 119.919 295.088C120.52 291.192 120.983 287.272 121.301 283.34C121.969 275.146 122.023 266.904 121.446 258.698C121.536 258.572 121.632 258.44 121.722 258.314C121.83 258.452 121.939 258.602 122.047 258.752C122.696 268.129 122.534 277.559 121.572 286.912C121.301 289.565 120.965 292.218 120.556 294.854C120.4 295.016 120.232 295.172 120.063 295.322L120.069 295.328Z" fill="#75BBBC"/>
<path d="M115.274 285.585C115.225 285.501 115.177 285.423 115.123 285.339C108.422 274.342 94.6595 268.315 81.9185 270.296C81.7622 270.32 81.606 270.344 81.4497 270.368C81.5278 270.53 81.612 270.692 81.6961 270.854C84.5689 276.575 89.5691 281.359 95.2906 284.234C100.964 287.092 108.765 287.812 114.63 285.801C114.847 285.735 115.063 285.657 115.274 285.573V285.585Z" fill="#A8DCE0"/>
<path d="M115.274 285.585C115.225 285.501 115.177 285.423 115.123 285.339C111.367 284.12 107.659 282.764 104.005 281.275C96.3783 278.178 88.9921 274.51 81.9245 270.296C81.7682 270.32 81.6119 270.344 81.4557 270.368C81.5338 270.53 81.618 270.692 81.7021 270.854C89.7854 275.656 98.2895 279.768 107.082 283.13C109.576 284.084 112.1 284.979 114.636 285.807C114.853 285.741 115.069 285.663 115.28 285.579L115.274 285.585Z" fill="#75BBBC"/>
<path d="M132.306 324.225C130.575 319.429 128.73 314.675 126.783 309.963C124.841 305.268 122.792 300.622 120.64 296.018C118.477 291.402 116.211 286.828 113.843 282.314C111.475 277.799 108.999 273.339 106.427 268.933C103.855 264.533 101.18 260.187 98.4037 255.907C98.0552 255.367 97.7006 254.827 97.352 254.292C97.1416 253.968 96.6188 254.268 96.8351 254.592C99.6177 258.836 102.31 263.146 104.9 267.511C107.503 271.899 110.003 276.341 112.401 280.843C114.787 285.321 117.071 289.859 119.252 294.445C121.44 299.049 123.525 303.702 125.502 308.396C127.468 313.078 129.331 317.796 131.08 322.563C131.302 323.169 131.524 323.769 131.741 324.375C131.873 324.736 132.45 324.58 132.318 324.213L132.306 324.225Z" fill="#75BBBC"/>
<path d="M100.297 260.169C97.1716 261.52 93.4575 261.196 90.4285 259.647C87.3995 258.098 85.0376 255.409 83.5351 252.359C82.0326 249.31 81.3475 245.906 81.1492 242.509C86.1554 243.091 90.9694 245.45 94.4732 249.07C93.3673 243.481 94.9179 237.514 98.5419 233.108C101.715 236.992 104.444 241.344 105.201 246.302C105.958 251.261 104.912 258.176 100.303 260.163L100.297 260.169Z" fill="#FF812C"/>
<path d="M78.0782 252.179C80.0674 256.585 83.445 260.421 87.7421 262.636C92.0452 264.851 97.2739 265.356 101.805 263.657C106.337 261.964 110.033 257.996 111.067 253.272C112.383 247.251 109.48 241.176 106.481 235.785C103.873 239.255 102.112 243.271 101.355 247.545C97.7486 242.377 92.8566 238.187 87.1351 235.539C85.4283 241.842 85.9752 248.674 88.5835 254.658C85.4163 252.203 82.0447 251.621 78.0721 252.185L78.0782 252.179Z" fill="#FFAB24"/>
<path d="M114.937 354.174C116.097 360.549 119.649 366.317 124.162 370.97C126.764 373.647 129.721 376.024 131.849 379.085C133.982 382.153 135.196 386.181 133.814 389.65C133.243 391.097 132.24 392.304 130.989 393.216C130.761 393.396 130.509 393.576 130.25 393.72C128.231 394.969 125.713 395.527 123.333 395.269C119.096 394.819 115.328 392.268 112.395 389.182C107.509 384.026 104.191 377.032 98.001 373.617C97.8087 373.521 97.6163 373.413 97.424 373.317C97.0634 373.137 96.6908 372.969 96.3182 372.818C92.0091 371.036 87.111 371 82.5374 369.931C73.0418 367.71 64.9103 360.567 61.2803 351.562C61.1481 351.262 61.0399 350.962 60.9318 350.662C60.6373 349.858 60.3788 349.041 60.1565 348.207C59.3992 345.361 59.0266 342.312 57.3438 339.905C54.9339 336.465 50.5526 335.193 46.6522 333.632C42.7457 332.077 38.9414 329.91 35.6059 327.197C35.1852 326.855 34.7706 326.5 34.3679 326.14C29.1753 321.518 25.3831 315.497 24.6498 308.378C24.4395 306.325 24.5417 304.29 24.9083 302.315C24.9624 302.015 25.0225 301.721 25.0826 301.427C26.4288 295.508 30.1189 290.117 34.8787 286.071C35.1131 285.879 35.3475 285.687 35.5879 285.489C38.2563 283.34 41.2372 281.617 44.3203 280.447C48.8097 278.742 54.0264 278.118 59.1348 278.622C59.4413 278.646 59.7418 278.682 60.0483 278.724C69.7844 279.936 78.9796 285.267 81.8944 294.98C82.1889 295.946 82.4052 296.942 82.5855 297.945C83.0363 300.4 83.2767 302.927 83.8416 305.31C83.8536 305.31 83.8416 305.316 83.8476 305.328C84.2563 307.075 84.8573 308.744 85.8429 310.263C89.7674 316.284 97.9589 317.322 104.456 320.528C104.768 320.672 105.069 320.834 105.369 320.996C107.076 321.926 108.645 323.037 109.949 324.472C113.392 328.271 114.372 333.704 114.492 338.824C114.612 343.957 114.017 349.131 114.943 354.18L114.937 354.174Z" fill="#A8DCE0"/>
<path d="M101.553 355.74C101.541 355.788 101.523 355.83 101.499 355.866C107.388 362.92 113.176 370.069 118.843 377.303C122.954 382.561 127.011 387.862 130.995 393.216C133.237 396.224 135.455 399.243 137.66 402.274C138.003 402.743 137.222 403.193 136.879 402.725C136.11 401.656 135.335 400.594 134.553 399.537C133.129 397.592 131.705 395.653 130.256 393.72C125.424 387.231 120.502 380.814 115.49 374.475C114.546 373.281 113.591 372.104 112.641 370.922C112.593 371 112.515 371.066 112.395 371.108C109.618 371.888 106.799 372.5 103.951 372.933C101.973 373.239 99.9962 373.467 98.0009 373.611C97.8086 373.515 97.6163 373.407 97.424 373.311C97.0634 373.131 96.6908 372.963 96.3182 372.812C101.655 372.548 106.956 371.684 112.112 370.249C106.679 363.472 101.15 356.773 95.5188 350.158C94.6174 349.107 93.7038 348.063 92.7963 347C92.8144 347.198 92.7242 347.396 92.4838 347.468C89.3346 348.411 86.1373 349.197 82.904 349.816C75.7822 351.19 68.5163 351.766 61.2743 351.55C61.1421 351.25 61.0339 350.95 60.9257 350.65C71.5092 350.998 82.1107 349.629 92.2615 346.586C92.3276 346.568 92.3877 346.568 92.4358 346.586C86.6542 339.863 80.7705 333.242 74.7726 326.711C74.1716 326.056 73.5706 325.414 72.9696 324.76C72.9275 324.886 72.8434 324.988 72.6631 325.03C69.2855 325.828 65.8779 326.47 62.4342 326.933C53.5395 328.133 44.5126 328.217 35.5999 327.185C35.1792 326.843 34.7645 326.488 34.3618 326.128C34.9087 326.212 35.4436 326.278 35.9785 326.338C48.1306 327.707 60.505 326.975 72.4167 324.165C66.0702 317.316 59.6276 310.569 53.0707 303.936C52.2173 303.065 51.3519 302.207 50.4985 301.349C50.4564 301.373 50.4204 301.391 50.3603 301.397C47.9202 301.745 45.4562 302.021 42.9921 302.213C36.9702 302.693 30.9182 302.729 24.9022 302.309C24.9563 302.009 25.0164 301.715 25.0765 301.421C33.2921 301.979 41.5677 301.691 49.7232 300.58C44.8311 295.688 39.885 290.844 34.8727 286.065C35.1071 285.873 35.3415 285.681 35.5819 285.483C42.7096 292.278 49.7112 299.188 56.5865 306.217C57.9388 307.604 59.291 308.996 60.6372 310.389C60.6012 307.423 60.5351 304.446 60.4449 301.475C60.1985 293.839 59.7598 286.221 59.1227 278.616C59.4292 278.64 59.7297 278.676 60.0362 278.718C60.9257 289.469 61.4305 300.238 61.5507 311.025C61.5507 311.115 61.5267 311.193 61.4786 311.265C67.128 317.13 72.6931 323.073 78.1742 329.106C79.4723 330.54 80.7705 331.993 82.0686 333.434C82.4052 329.814 82.6696 326.188 82.8319 322.557C83.1985 314.363 83.1144 306.139 82.5735 297.945C83.0242 300.4 83.2646 302.927 83.8295 305.31C83.8416 305.31 83.8295 305.316 83.8355 305.328C84.136 314.777 83.8355 324.261 82.9461 333.674C82.928 333.878 82.7958 334.01 82.6336 334.07C88.1747 340.265 93.6317 346.532 98.9986 352.889C99.5936 353.597 100.183 354.306 100.778 355.014C101.547 351.502 102.214 347.979 102.737 344.413C103.728 337.798 104.287 331.123 104.42 324.436C104.444 323.133 104.45 321.824 104.444 320.522C104.756 320.666 105.057 320.828 105.357 320.99C105.369 325.966 105.147 330.943 104.678 335.901C104.053 342.57 103.007 349.209 101.547 355.74H101.553Z" fill="#75BBBC"/>
<path d="M243.592 400.702C237.143 399.969 230.592 401.698 224.829 404.676C221.511 406.392 218.38 408.529 214.828 409.682C211.27 410.834 207.057 410.834 204.136 408.511C202.916 407.545 202.045 406.236 201.534 404.784C201.426 404.513 201.33 404.219 201.264 403.931C200.651 401.638 200.843 399.069 201.78 396.866C203.439 392.94 206.967 390.077 210.777 388.162C217.136 384.98 224.792 383.822 229.853 378.893C230.003 378.737 230.159 378.581 230.31 378.425C230.586 378.131 230.857 377.825 231.109 377.513C234.066 373.911 235.508 369.229 237.858 365.165C242.732 356.725 251.927 351.01 261.603 350.14C261.928 350.104 262.246 350.086 262.565 350.068C263.424 350.02 264.284 350.008 265.143 350.038C268.088 350.134 271.117 350.656 273.918 349.744C277.908 348.435 280.396 344.605 283.017 341.334C285.637 338.05 288.81 335.031 292.374 332.629C292.819 332.323 293.282 332.029 293.744 331.747C299.67 328.115 306.539 326.23 313.577 327.581C315.602 327.977 317.532 328.656 319.317 329.58C319.587 329.718 319.851 329.862 320.116 330.006C325.399 333.008 329.497 338.086 332.004 343.807C332.124 344.083 332.232 344.365 332.358 344.653C333.644 347.823 334.438 351.172 334.672 354.456C335.009 359.24 334.101 364.408 332.142 369.151C332.034 369.433 331.913 369.715 331.781 369.991C327.809 378.953 320.038 386.205 309.887 386.187C308.877 386.187 307.862 386.109 306.84 385.989C304.358 385.713 301.864 385.214 299.418 385.064C299.412 385.076 299.412 385.064 299.4 385.064C297.603 384.95 295.83 385.046 294.093 385.544C287.188 387.561 283.828 395.095 278.876 400.378C278.647 400.636 278.407 400.876 278.167 401.116C276.778 402.479 275.264 403.661 273.515 404.489C268.875 406.687 263.388 406.056 258.442 404.688C253.49 403.325 248.7 401.254 243.592 400.684V400.702Z" fill="#A8DCE0"/>
<path d="M245.953 387.453C245.911 387.423 245.875 387.399 245.851 387.363C237.389 390.959 228.867 394.429 220.297 397.754C214.071 400.167 207.814 402.515 201.534 404.778C198.006 406.05 194.472 407.305 190.921 408.535C190.374 408.727 190.169 407.851 190.716 407.659C191.96 407.233 193.204 406.801 194.442 406.356C196.72 405.552 198.986 404.754 201.258 403.925C208.872 401.182 216.445 398.325 223.969 395.365C225.387 394.807 226.788 394.237 228.194 393.672C228.134 393.606 228.092 393.51 228.092 393.384C228.146 390.503 228.374 387.633 228.783 384.782C229.06 382.807 229.408 380.844 229.847 378.893C229.997 378.737 230.153 378.581 230.304 378.425C230.58 378.131 230.85 377.825 231.103 377.513C229.817 382.693 229.114 388.012 228.993 393.354C237.059 390.119 245.076 386.763 253.045 383.293C254.313 382.735 255.581 382.165 256.855 381.601C256.663 381.565 256.495 381.415 256.495 381.168C256.507 377.885 256.669 374.601 257.012 371.33C257.751 364.12 259.295 357.007 261.597 350.146C261.922 350.11 262.24 350.092 262.559 350.074C259.169 360.092 257.42 370.627 257.402 381.21C257.402 381.276 257.384 381.337 257.36 381.379C265.474 377.789 273.521 374.073 281.508 370.231C282.307 369.841 283.095 369.457 283.894 369.073C283.786 368.995 283.714 368.881 283.726 368.707C283.936 365.249 284.309 361.803 284.856 358.376C286.274 349.521 288.798 340.871 292.362 332.641C292.807 332.335 293.27 332.041 293.732 331.759C293.498 332.257 293.276 332.749 293.065 333.242C288.245 344.467 285.372 356.515 284.621 368.713C293.017 364.625 301.347 360.411 309.599 356.059C310.68 355.494 311.75 354.918 312.82 354.342C312.808 354.3 312.802 354.252 312.82 354.198C313.192 351.76 313.637 349.329 314.166 346.916C315.44 341.021 317.159 335.223 319.299 329.586C319.569 329.724 319.833 329.868 320.098 330.012C317.189 337.708 315.08 345.704 313.787 353.825C319.894 350.56 325.964 347.228 331.991 343.813C332.112 344.089 332.22 344.371 332.346 344.659C323.776 349.509 315.134 354.21 306.407 358.754C304.688 359.648 302.958 360.537 301.239 361.425C304.093 362.247 306.966 363.046 309.839 363.82C317.225 365.789 324.653 367.572 332.13 369.157C332.022 369.439 331.901 369.721 331.769 369.997C321.204 367.746 310.74 365.117 300.361 362.115C300.271 362.091 300.205 362.043 300.151 361.977C292.897 365.681 285.595 369.289 278.227 372.788C276.472 373.617 274.711 374.439 272.956 375.262C276.328 376.63 279.729 377.927 283.161 379.133C290.908 381.853 298.817 384.146 306.822 385.995C304.34 385.719 301.846 385.22 299.4 385.07C299.394 385.082 299.394 385.07 299.382 385.07C290.235 382.627 281.238 379.608 272.469 376.036C272.277 375.958 272.193 375.796 272.181 375.622C264.644 379.133 257.06 382.537 249.415 385.833C248.562 386.193 247.714 386.559 246.861 386.919C250.004 388.672 253.189 390.323 256.453 391.853C262.511 394.711 268.743 397.178 275.114 399.231C276.352 399.627 277.608 400.017 278.858 400.384C278.629 400.642 278.389 400.882 278.149 401.122C273.377 399.699 268.671 398.042 264.055 396.17C257.841 393.642 251.783 390.731 245.941 387.447L245.953 387.453Z" fill="#75BBBC"/>
<path d="M314.965 558.877H75.9565C96.823 528.43 129.036 506.418 166.484 498.806V464.026H224.408V498.806C261.88 506.418 294.093 528.43 314.959 558.877H314.965Z" fill="#E9AE8F"/>
<path d="M224.414 469.572V493.65C183.654 499.509 172.746 479.009 172.746 479.009L224.414 469.572Z" fill="#CC7F57"/>
<path d="M314.965 558.877H75.9565C91.4682 536.258 113.236 518.309 138.778 507.462C141.946 506.1 145.155 504.857 148.442 503.741C153.31 506.244 158.353 508.387 163.539 510.134C191.077 519.45 221.126 517.379 247.029 505.391C250.172 506.586 253.261 507.894 256.284 509.305C280.024 520.272 300.307 537.471 314.965 558.871V558.877Z" fill="#D2C6FF"/>
<path d="M256.284 509.311C256.14 509.431 255.942 509.557 255.774 509.677C219.299 533.779 173.864 532.152 138.778 507.462C141.946 506.1 145.155 504.857 148.442 503.741C153.31 506.244 158.353 508.387 163.539 510.134C191.077 519.45 221.126 517.379 247.029 505.391C250.172 506.586 253.261 507.894 256.284 509.305V509.311Z" fill="#724CF9"/>
<path d="M261.639 343.843H193.481C190.343 335.673 190.428 324.964 194.31 317.124C192.91 315.311 191.846 313.252 191.167 311.073C190.554 309.122 190.247 307.075 190.289 305.034C190.367 300.706 192.062 296.48 194.833 293.149C193.03 288.977 193.937 284.108 196.45 280.297C196.54 280.153 196.636 280.008 196.732 279.87C200.674 278.202 205.416 278.592 209.028 280.879C212.478 283.064 214.804 286.906 215.146 290.976C215.17 291.168 215.182 291.36 215.194 291.546C215.471 291.426 215.753 291.3 216.042 291.186C219.738 289.727 224.624 289.091 228.897 290.652C232.774 292.068 235.544 295.958 236.349 300.016C236.373 300.13 236.397 300.25 236.416 300.376C237.053 300.16 237.702 299.986 238.357 299.854C243.207 298.881 248.694 300.172 252.582 303.173C256.867 306.469 259.391 311.926 259.163 317.322C259.157 317.496 259.145 317.664 259.133 317.832C259.385 317.994 259.638 318.151 259.872 318.331C259.89 318.331 259.902 318.337 259.908 318.349C261.11 319.189 262.174 320.222 263.1 321.38C265.137 323.943 266.441 327.125 266.766 330.336C267.252 335.307 265.305 340.457 261.639 343.849V343.843Z" fill="#EF8181"/>
<path d="M210.765 299.338C210.327 300.73 210.068 302.165 210.002 303.624C209.978 304.11 209.215 304.11 209.239 303.624C209.473 298.839 211.673 294.247 215.146 290.976C215.171 291.168 215.183 291.36 215.195 291.546C215.471 291.426 215.753 291.3 216.042 291.186C213.602 293.365 211.751 296.198 210.771 299.332L210.765 299.338Z" fill="#CC5050"/>
<path d="M230.916 310.251C230.886 310.737 230.123 310.737 230.153 310.251C230.376 307.039 231.776 303.948 234.108 301.715C234.787 301.066 235.538 300.502 236.343 300.016C236.367 300.13 236.392 300.25 236.41 300.376C237.047 300.16 237.696 299.986 238.351 299.854C236.98 300.412 235.724 301.223 234.649 302.255C232.461 304.344 231.121 307.237 230.916 310.251Z" fill="#CC5050"/>
<path d="M246.422 317.382C250.563 316.122 255.022 316.116 259.163 317.322C259.157 317.496 259.145 317.664 259.133 317.832C259.385 317.994 259.638 318.151 259.872 318.331C255.617 316.884 250.942 316.8 246.62 318.115C246.152 318.259 245.947 317.52 246.422 317.382Z" fill="#CC5050"/>
<path d="M197.129 311.806C197.597 310.941 198.343 310.209 199.268 309.843C200.404 309.398 201.642 309.602 202.766 309.975C203.992 310.383 205.158 310.923 206.426 311.211C207.7 311.499 209.016 311.601 210.326 311.529C212.797 311.391 215.189 310.593 217.244 309.218C219.371 307.79 221.066 305.785 222.148 303.462C222.358 303.017 223.013 303.402 222.809 303.846C221.295 307.093 218.578 309.717 215.303 311.133C222.406 312.946 229.811 314.675 237.131 313.222C239.162 312.82 241.133 312.172 242.984 311.241C243.423 311.019 243.814 311.679 243.369 311.902C236.404 315.413 228.356 314.849 220.952 313.27C218.65 312.778 216.372 312.196 214.101 311.613C214.089 311.613 214.083 311.601 214.071 311.595C213.746 311.703 213.422 311.8 213.091 311.884C210.741 312.46 208.253 312.454 205.909 311.866C204.677 311.553 203.535 311.001 202.327 310.623C201.167 310.263 199.917 310.167 198.884 310.911C196.51 312.616 197.207 315.899 198.379 318.091C198.613 318.523 197.952 318.913 197.718 318.475C196.63 316.44 195.975 313.937 197.141 311.788L197.129 311.806Z" fill="#CC5050"/>
<path d="M201.63 311.367C200.951 313.438 199.917 315.401 198.577 317.13C202.453 324.97 202.538 335.679 199.406 343.849H131.248C129.709 342.42 128.471 340.685 127.588 338.776C126.374 336.153 125.833 333.218 126.121 330.336C126.59 325.672 129.144 321.05 132.979 318.343C132.985 318.337 133.003 318.325 133.015 318.325C133.183 318.205 133.357 318.091 133.538 317.97C133.604 317.916 133.682 317.868 133.76 317.826C133.742 317.658 133.736 317.49 133.73 317.316C133.502 311.92 136.026 306.463 140.311 303.167C144.199 300.172 149.686 298.881 154.536 299.848C155.191 299.98 155.846 300.154 156.478 300.37C156.502 300.25 156.526 300.124 156.544 300.01C157.349 295.952 160.12 292.062 163.996 290.646C168.263 289.085 173.155 289.721 176.851 291.18C177.14 291.294 177.422 291.414 177.699 291.54C177.705 291.348 177.723 291.156 177.747 290.97C178.089 286.906 180.415 283.058 183.871 280.873C187.483 278.586 192.225 278.196 196.167 279.864C196.269 280.002 196.359 280.147 196.45 280.291C198.962 284.102 199.869 288.971 198.066 293.143C200.837 296.474 202.532 300.7 202.61 305.028C202.646 307.165 202.309 309.314 201.636 311.355L201.63 311.367Z" fill="#EF8181"/>
<path d="M182.122 299.338C182.561 300.73 182.819 302.165 182.885 303.624C182.909 304.11 183.672 304.11 183.648 303.624C183.414 298.839 181.214 294.247 177.741 290.976C177.717 291.168 177.705 291.36 177.692 291.546C177.416 291.426 177.134 291.3 176.845 291.186C179.285 293.365 181.136 296.198 182.116 299.332L182.122 299.338Z" fill="#CC5050"/>
<path d="M161.965 310.251C161.995 310.737 162.758 310.737 162.728 310.251C162.505 307.039 161.105 303.948 158.773 301.715C158.094 301.066 157.343 300.502 156.538 300.016C156.514 300.13 156.49 300.25 156.471 300.376C155.834 300.16 155.185 299.986 154.53 299.854C155.901 300.412 157.157 301.223 158.232 302.255C160.42 304.344 161.76 307.237 161.965 310.251Z" fill="#CC5050"/>
<path d="M146.465 317.382C142.324 316.122 137.865 316.116 133.724 317.322C133.73 317.496 133.742 317.664 133.754 317.832C133.502 317.994 133.249 318.151 133.015 318.331C137.27 316.884 141.946 316.8 146.267 318.115C146.735 318.259 146.94 317.52 146.465 317.382Z" fill="#CC5050"/>
<path d="M195.758 311.806C195.29 310.941 194.544 310.209 193.619 309.843C192.483 309.398 191.245 309.602 190.121 309.975C188.895 310.383 187.729 310.923 186.461 311.211C185.181 311.499 183.871 311.601 182.561 311.529C180.09 311.391 177.699 310.593 175.643 309.218C173.516 307.79 171.821 305.785 170.739 303.462C170.529 303.017 169.874 303.402 170.078 303.846C171.592 307.093 174.309 309.717 177.584 311.133C170.481 312.946 163.076 314.675 155.756 313.222C153.725 312.82 151.754 312.172 149.903 311.241C149.464 311.019 149.073 311.679 149.518 311.902C156.484 315.413 164.531 314.849 171.935 313.27C174.237 312.778 176.515 312.196 178.786 311.613C178.798 311.613 178.804 311.601 178.816 311.595C179.141 311.703 179.465 311.8 179.796 311.884C182.146 312.46 184.634 312.454 186.978 311.866C188.21 311.553 189.352 311.001 190.56 310.623C191.72 310.263 192.97 310.167 194.003 310.911C196.377 312.616 195.68 315.899 194.508 318.091C194.274 318.523 194.935 318.913 195.169 318.475C196.257 316.44 196.912 313.937 195.746 311.788L195.758 311.806Z" fill="#CC5050"/>
<path d="M201.191 298.011C200.53 296.306 199.659 294.697 198.571 293.227C198.631 293.185 198.685 293.125 198.709 293.035C199.893 288.911 199.274 284.373 197.02 280.717C196.762 280.297 196.101 280.681 196.359 281.101C198.511 284.589 199.106 288.893 197.97 292.831C197.952 292.903 197.952 292.963 197.97 293.023C197.796 293.113 197.688 293.311 197.844 293.515C201.696 298.683 202.85 305.605 201.107 311.788C200.62 313.522 199.899 315.173 198.962 316.716C198.703 317.136 199.364 317.52 199.623 317.1C203.072 311.433 203.577 304.176 201.191 298.011Z" fill="#CC5050"/>
<g style="mix-blend-mode:multiply">
<path d="M261.639 343.843H173.594C158.262 342.156 142.919 340.463 127.588 338.77C126.374 336.147 125.833 333.212 126.121 330.33C126.59 325.666 129.144 321.044 132.979 318.337C132.985 318.331 133.003 318.319 133.015 318.319C133.183 318.199 133.357 318.085 133.538 317.964C138.862 319.381 144.993 318.079 150.552 316.794C163.876 313.72 177.554 311.277 191.167 311.061C194.665 311.001 198.15 311.091 201.636 311.349C205.26 311.631 208.872 312.1 212.46 312.784C221.397 314.495 230.021 317.538 238.874 319.645C246.801 321.53 255.1 322.665 263.106 321.356C265.143 323.919 266.447 327.101 266.772 330.312C267.258 335.283 265.311 340.433 261.645 343.825L261.639 343.843Z" fill="#EDD6D6"/>
</g>
<path d="M127.371 433.963C121.157 440.17 110.057 439.15 102.58 431.682C95.1041 424.215 94.0825 413.128 100.297 406.921C106.511 400.714 117.611 401.734 125.088 409.202C132.564 416.669 133.586 427.756 127.371 433.963Z" fill="#E9AE8F"/>
<path d="M125.977 424.929C125.604 422.624 125.136 420.397 123.994 418.326C122.894 416.333 121.295 414.7 119.45 413.398C117.497 412.017 115.189 411.333 112.839 411.057C110.237 410.75 107.719 411.351 105.339 412.371C104.588 412.695 103.933 413.722 103.728 414.466C103.494 415.307 103.602 416.423 104.083 417.167C105.219 418.926 107.07 419.202 108.885 418.422C108.128 418.746 108.741 418.494 108.915 418.434C109.125 418.362 109.336 418.296 109.552 418.236C109.768 418.176 109.985 418.128 110.201 418.08C110.303 418.056 110.375 418.038 110.429 418.026C110.784 417.972 111.181 417.978 111.517 417.978C111.74 417.978 111.962 417.984 112.184 418.002C112.299 418.008 112.377 418.014 112.431 418.008C112.785 418.056 113.152 418.152 113.482 418.242C113.699 418.302 113.909 418.368 114.12 418.44C114.204 418.47 114.288 418.5 114.372 418.53C114.624 418.626 114.54 418.59 114.12 418.416C114.39 418.416 114.913 418.806 115.147 418.944C115.418 419.106 115.718 419.371 116.007 419.515C116.157 419.647 116.313 419.779 116.463 419.923C116.734 420.181 116.98 420.457 117.233 420.733C117.197 420.685 117.161 420.637 117.143 420.595C117.161 420.643 117.203 420.691 117.233 420.733C117.239 420.745 117.251 420.751 117.257 420.757C117.485 421.015 117.353 420.889 117.239 420.739C117.335 420.883 117.455 421.033 117.539 421.159C117.731 421.448 117.906 421.748 118.062 422.054C118.074 422.072 118.134 422.174 118.194 422.288C118.224 422.36 118.254 422.438 118.278 422.51C118.441 422.954 118.567 423.404 118.681 423.861C118.915 424.821 119.072 425.8 119.228 426.778C119.522 428.591 121.878 429.767 123.543 429.227C125.514 428.591 126.308 426.862 125.995 424.917L125.977 424.929Z" fill="#CC7F57"/>
<path d="M117.215 420.739C117.215 420.739 117.215 420.745 117.221 420.751C117.221 420.751 117.221 420.751 117.221 420.745L117.215 420.739Z" fill="#CC7F57"/>
<path d="M262.246 433.963C268.46 440.17 279.561 439.15 287.037 431.682C294.513 424.215 295.535 413.128 289.321 406.921C283.107 400.714 272.006 401.734 264.53 409.202C257.054 416.669 256.032 427.756 262.246 433.963Z" fill="#E9AE8F"/>
<path d="M266.086 429.239C267.757 429.779 270.107 428.609 270.402 426.79C270.558 425.812 270.714 424.833 270.949 423.873C271.063 423.416 271.195 422.966 271.351 422.522C271.375 422.444 271.405 422.372 271.435 422.3C271.495 422.192 271.556 422.09 271.568 422.066C271.73 421.76 271.904 421.46 272.09 421.171C272.175 421.045 272.295 420.895 272.391 420.751C272.277 420.901 272.144 421.027 272.373 420.769C272.379 420.757 272.391 420.751 272.397 420.745C272.427 420.697 272.469 420.649 272.487 420.607C272.469 420.649 272.433 420.697 272.397 420.745C272.643 420.469 272.896 420.193 273.166 419.935C273.316 419.797 273.467 419.659 273.623 419.527C273.917 419.377 274.212 419.112 274.482 418.956C274.717 418.818 275.24 418.422 275.51 418.428C275.089 418.602 275.005 418.638 275.258 418.542C275.342 418.512 275.426 418.482 275.51 418.452C275.72 418.38 275.931 418.314 276.147 418.254C276.478 418.164 276.844 418.068 277.199 418.02C277.253 418.02 277.337 418.02 277.445 418.014C277.668 418.002 277.89 417.99 278.112 417.99C278.455 417.99 278.846 417.99 279.2 418.038C279.254 418.05 279.326 418.074 279.429 418.092C279.645 418.14 279.861 418.188 280.078 418.248C280.294 418.308 280.504 418.374 280.715 418.446C280.889 418.506 281.496 418.752 280.745 418.434C282.56 419.208 284.411 418.932 285.547 417.179C286.027 416.435 286.13 415.319 285.901 414.478C285.697 413.734 285.042 412.707 284.291 412.383C281.911 411.363 279.392 410.762 276.79 411.069C274.434 411.345 272.132 412.029 270.179 413.41C268.334 414.718 266.73 416.345 265.636 418.338C264.5 420.409 264.025 422.636 263.652 424.941C263.34 426.886 264.133 428.615 266.105 429.251L266.086 429.239Z" fill="#CC7F57"/>
<path d="M272.403 420.739C272.403 420.739 272.403 420.745 272.397 420.751C272.397 420.751 272.397 420.751 272.397 420.745L272.403 420.739Z" fill="#CC7F57"/>
<path d="M140.028 336.435C129.511 348.459 123.177 366.371 123.177 391.968C123.177 449.835 155.54 484.369 195.458 484.369C235.376 484.369 267.739 449.835 267.739 391.968C267.739 368.046 262.204 350.836 252.895 338.872C215.267 340.505 177.614 338.584 140.028 336.435Z" fill="#E9AE8F"/>
<path d="M147.3 390.887C150.78 388.666 154.711 386.913 158.984 386.229C163.251 385.52 167.728 385.953 171.881 387.201H171.905C173.137 387.579 173.834 388.876 173.468 390.107C173.095 391.337 171.797 392.034 170.565 391.667C170.475 391.643 170.379 391.607 170.3 391.571C166.851 390.059 163.125 389.218 159.314 389.374C155.51 389.506 151.694 390.641 148.112 392.352C147.697 392.55 147.198 392.376 147 391.962C146.814 391.577 146.952 391.121 147.3 390.899V390.887Z" fill="#5B3D31"/>
<path d="M243.615 390.887C240.136 388.666 236.205 386.913 231.932 386.229C227.665 385.52 223.188 385.953 219.035 387.201H219.011C217.779 387.579 217.082 388.876 217.448 390.107C217.821 391.337 219.119 392.034 220.351 391.667C220.441 391.643 220.537 391.607 220.615 391.571C224.065 390.059 227.791 389.218 231.602 389.374C235.406 389.506 239.222 390.641 242.804 392.352C243.219 392.55 243.718 392.376 243.916 391.962C244.102 391.577 243.964 391.121 243.615 390.899V390.887Z" fill="#5B3D31"/>
<path d="M194.851 421.826C194.725 421.442 194.472 420.985 194.076 420.823C193.535 420.595 193.006 420.415 192.405 420.451C191.798 420.487 191.287 420.631 190.74 420.901C189.778 421.382 189.105 422.33 188.799 423.338C188.516 424.269 188.558 425.343 188.859 426.268C189.19 427.276 189.742 428.105 190.404 428.921C190.656 429.233 191.209 429.413 191.593 429.413C192.008 429.413 192.501 429.233 192.783 428.921C193.078 428.603 193.294 428.183 193.276 427.732C193.258 427.27 193.084 426.928 192.801 426.574L192.88 426.67C192.609 426.31 192.381 425.926 192.182 425.517C192.11 425.325 192.05 425.127 192.008 424.929C191.996 424.773 191.996 424.617 192.008 424.461C192.032 424.365 192.056 424.269 192.086 424.173C192.122 424.107 192.164 424.041 192.2 423.975C192.206 423.969 192.219 423.957 192.225 423.951C192.279 423.921 192.327 423.885 192.381 423.855C192.411 423.849 192.441 423.837 192.465 423.831C192.489 423.831 192.519 423.831 192.543 423.831C192.591 423.843 192.639 423.849 192.687 423.867C192.657 423.855 192.627 423.843 192.597 423.831C192.621 423.831 192.645 423.831 192.675 423.831C192.988 423.933 193.3 423.999 193.655 423.897C194.046 423.789 194.466 423.488 194.659 423.122C194.863 422.732 194.971 422.258 194.827 421.826H194.851Z" fill="#CC7F57"/>
<path d="M236.018 432.586C237.018 428.356 234.395 424.117 230.16 423.119C225.924 422.12 221.681 424.74 220.681 428.97C219.682 433.2 222.305 437.439 226.54 438.437C230.775 439.436 235.018 436.816 236.018 432.586Z" fill="#E59090"/>
<path d="M168.123 436.349C171.2 433.276 171.2 428.293 168.123 425.22C165.046 422.147 160.057 422.147 156.98 425.22C153.903 428.293 153.903 433.276 156.98 436.349C160.057 439.423 165.046 439.423 168.123 436.349Z" fill="#E59090"/>
<path d="M210.897 440.621C201.24 445.645 189.286 445.249 179.94 439.702C178.588 438.898 177.404 441.023 178.75 441.821C188.871 447.83 201.744 448.124 212.166 442.698C213.554 441.971 212.286 439.894 210.897 440.621Z" fill="#CC7F57"/>
<path d="M199.418 452.332C199.232 451.702 198.541 451.324 197.904 451.51C195.518 452.212 192.886 452.086 190.626 451.096C190.025 450.831 189.31 450.952 188.967 451.558C188.667 452.086 188.829 452.95 189.43 453.215C192.321 454.481 195.548 454.733 198.589 453.839C199.22 453.653 199.599 452.956 199.412 452.326L199.418 452.332Z" fill="#CC7F57"/>
<path d="M239.048 403.721C237.125 406.332 233.813 407.659 230.634 407.737C226.812 407.833 223.188 406.296 219.996 404.315C218.788 403.565 217.677 405.474 218.879 406.218C222.533 408.487 226.806 410.198 231.187 409.916C235.027 409.664 238.651 407.959 240.953 404.832C241.794 403.685 239.877 402.587 239.048 403.715V403.721Z" fill="#CC7F57"/>
<path d="M151.207 403.721C153.13 406.332 156.441 407.659 159.621 407.737C163.443 407.833 167.067 406.296 170.258 404.315C171.466 403.565 172.578 405.474 171.376 406.218C167.722 408.487 163.449 410.198 159.068 409.916C155.227 409.664 151.603 407.959 149.302 404.832C148.46 403.685 150.377 402.587 151.207 403.715V403.721Z" fill="#CC7F57"/>
<path d="M146.916 343.843C147.871 376.726 126.049 417.912 126.049 417.912C112.599 376.57 119.222 330.246 119.222 330.246C179.195 309.837 241.013 316.152 272.577 334.286C280.51 377.038 264.692 420.439 264.692 420.439C256.993 399.585 256.182 373.275 256.182 373.275C200.548 373.275 161.484 359.81 146.916 343.837V343.843Z" fill="#5B3D31"/>
<path d="M39.4703 388.762C39.4703 385.4 36.7418 382.675 33.3763 382.675C31.4771 382.675 29.7823 383.546 28.6645 384.902C27.5466 383.54 25.8518 382.675 23.9527 382.675C20.5871 382.675 17.8586 385.4 17.8586 388.762C17.8586 390.581 18.664 392.208 19.9261 393.324H19.92L28.6705 400.966L37.4209 393.33H37.4149C38.683 392.214 39.4824 390.587 39.4824 388.768L39.4703 388.762Z" fill="#FF8ABB"/>
<path d="M341 503.939C341 500.373 338.103 497.48 334.534 497.48C332.52 497.48 330.717 498.404 329.533 499.845C328.349 498.398 326.546 497.48 324.533 497.48C320.963 497.48 318.066 500.373 318.066 503.939C318.066 505.866 318.92 507.594 320.26 508.777H320.248L329.527 516.881L338.807 508.777H338.795C340.141 507.594 340.988 505.866 340.988 503.939H341Z" fill="#EF8181"/>
<line x1="76.25" y1="558.75" x2="314.75" y2="558.75" stroke="#D2C6FF" stroke-width="0.5" stroke-linecap="round"/>
</g>
<path d="M315 559C315 570.162 311.909 581.215 305.904 591.528C299.898 601.841 291.096 611.211 279.999 619.104C268.903 626.997 255.729 633.258 241.231 637.53C226.732 641.801 211.193 644 195.5 644C179.807 644 164.268 641.801 149.769 637.53C135.271 633.258 122.097 626.997 111.001 619.104C99.9041 611.211 91.1018 601.841 85.0964 591.528C79.091 581.215 76 570.162 76 559L195.5 559H315Z" fill="#D2C6FF"/>
<path d="M274.922 188.331V178.498L262.999 175.959C262.356 173.582 261.412 171.331 260.21 169.242L266.845 159.019L259.886 152.068L249.651 158.695C247.559 157.494 245.305 156.552 242.926 155.91L240.383 144H230.539L227.997 155.91C225.617 156.552 223.363 157.494 221.272 158.695L211.037 152.068L204.077 159.019L210.712 169.242C209.51 171.331 208.567 173.582 207.924 175.959L196 178.498V188.331L207.924 190.87C208.567 193.247 209.51 195.498 210.712 197.587L204.077 207.81L211.037 214.762L221.272 208.134C223.363 209.335 225.617 210.277 227.997 210.92L230.539 222.829H240.383L242.926 210.92C245.305 210.277 247.559 209.335 249.651 208.134L259.886 214.762L266.845 207.81L260.21 197.587C261.412 195.498 262.356 193.247 262.999 190.87L274.922 188.331ZM235.455 198.086C227.348 198.086 220.773 191.519 220.773 183.415C220.773 175.311 227.348 168.75 235.455 168.75C243.563 168.75 250.143 175.317 250.143 183.415C250.143 191.513 243.569 198.086 235.455 198.086Z" fill="#724CF9"/>
<path d="M350.719 146.339C349.363 140.67 343.664 137.176 337.988 138.534C334.785 139.301 332.278 141.45 330.945 144.195C328.514 142.351 325.305 141.569 322.102 142.336C316.426 143.694 312.926 149.389 314.282 155.058C315.016 158.123 317.028 160.542 319.611 161.911L319.594 161.916L337.421 171.26L349.087 154.859L349.07 154.863C350.753 152.472 351.453 149.404 350.719 146.339Z" fill="#FF8ABB"/>
<path d="M35.9817 139.929C39.8854 135.6 39.537 128.924 35.2034 125.016C32.7577 122.81 29.5662 121.961 26.5491 122.417C26.692 119.369 25.5187 116.282 23.073 114.076C18.7394 110.168 12.0631 110.508 8.15939 114.837C6.04874 117.177 5.19462 120.206 5.52908 123.11L5.51569 123.098L7.9111 143.083L28.036 143.409L28.0226 143.397C30.9461 143.43 33.8711 142.269 35.9817 139.929Z" fill="#FF8ABB"/>
<path d="M53.1435 63.5469C53.1014 63.53 53.0593 63.5153 53.0172 63.4985C47.2756 61.3067 43.2605 55.3756 43.0899 49.2298C43.0899 49.154 43.0857 49.0782 43.0836 49.0024C43.1657 49.0234 43.2499 49.0487 43.3342 49.074C46.2671 49.9267 48.9431 51.8595 50.7875 54.2934C52.6171 56.7063 53.6299 60.3045 53.1919 63.2269C53.1793 63.3342 53.1624 63.4416 53.1414 63.5469H53.1435Z" fill="#A8DCE0"/>
<path d="M53.1437 63.5466C53.1016 63.5298 53.0595 63.515 53.0174 63.4982C52.1205 61.8433 51.1646 60.2221 50.1519 58.6346C48.0401 55.3269 45.6799 52.1792 43.0923 49.2274C43.0923 49.1516 43.088 49.0758 43.0859 49C43.1681 49.0211 43.2523 49.0463 43.3365 49.0716C46.2883 52.4487 48.9517 56.0786 51.2867 59.9126C51.9499 61.0011 52.5879 62.1044 53.1942 63.2245C53.1816 63.3319 53.1648 63.4392 53.1437 63.5445V63.5466Z" fill="#A8DCE0"/>
<path d="M62.058 68.6713C62.018 68.6481 61.9801 68.6292 61.9401 68.606C56.5585 65.6373 53.4087 59.2051 54.0951 53.0951C54.1035 53.0193 54.112 52.9456 54.1204 52.8698C54.1983 52.9035 54.2783 52.9393 54.3583 52.9751C57.1438 54.2257 59.5272 56.5123 61.0158 59.1799C62.4917 61.8243 62.9949 65.5257 62.1548 68.3618C62.1274 68.467 62.0959 68.5702 62.0601 68.6713H62.058Z" fill="#A8DCE0"/>
<path d="M62.0579 68.6713C62.0179 68.6481 61.98 68.6292 61.94 68.606C61.2831 66.8437 60.561 65.1046 59.7777 63.3908C58.146 59.822 56.2469 56.3775 54.0951 53.0951C54.1035 53.0193 54.1119 52.9456 54.1204 52.8698C54.1983 52.9035 54.2783 52.9393 54.3583 52.9751C56.8132 56.7291 58.9461 60.6958 60.7252 64.8162C61.2305 65.9868 61.7084 67.168 62.1548 68.3618C62.1274 68.467 62.0958 68.5702 62.06 68.6713H62.0579Z" fill="#A8DCE0"/>
<path d="M69.804 74.4887C69.7661 74.4613 69.7303 74.4382 69.6924 74.4108C64.6582 70.8841 62.2117 64.153 63.5465 58.1503C63.5634 58.0766 63.5802 58.003 63.5971 57.9293C63.6729 57.9693 63.7466 58.0156 63.8224 58.0598C66.4584 59.601 68.5828 62.1297 69.7787 64.9383C70.9641 67.7239 71.0693 71.4589 69.9324 74.1876C69.8945 74.2887 69.8503 74.3876 69.804 74.4866V74.4887Z" fill="#A8DCE0"/>
<path d="M69.8039 74.4887C69.766 74.4613 69.7302 74.4382 69.6923 74.4108C69.227 72.5875 68.6944 70.781 68.0985 68.9955C66.8563 65.2731 65.3361 61.6454 63.5465 58.1524C63.5634 58.0787 63.5802 58.0051 63.597 57.9314C63.6728 57.9714 63.7465 58.0177 63.8223 58.0619C65.8625 62.056 67.5595 66.2269 68.8902 70.5136C69.267 71.7305 69.6165 72.958 69.9324 74.1918C69.8945 74.2929 69.8503 74.3918 69.8039 74.4908V74.4887Z" fill="#A8DCE0"/>
<path d="M75.7329 80.2955C75.7013 80.2618 75.6719 80.2303 75.6403 80.1966C71.4062 75.7414 70.3429 68.6587 72.8421 63.0413C72.8737 62.9718 72.9032 62.9023 72.9348 62.835C73 62.8897 73.0653 62.9487 73.1306 63.0076C75.4087 65.0415 76.9899 67.9407 77.6047 70.9326C78.2153 73.8991 77.5752 77.5795 75.9203 80.0302C75.8635 80.1229 75.8003 80.2113 75.7371 80.2976L75.7329 80.2955Z" fill="#A8DCE0"/>
<path d="M75.7329 80.2955C75.7013 80.2618 75.6718 80.2303 75.6402 80.1966C75.5455 78.3164 75.3813 76.4425 75.1518 74.5729C74.6738 70.6778 73.9032 66.8206 72.84 63.0413C72.8715 62.9718 72.901 62.9023 72.9326 62.835C72.9979 62.8897 73.0631 62.9487 73.1284 63.0076C74.3348 67.328 75.1707 71.7516 75.6255 76.2173C75.7539 77.4847 75.8529 78.7564 75.9181 80.0281C75.8613 80.1208 75.7981 80.2092 75.735 80.2955H75.7329Z" fill="#A8DCE0"/>
<path d="M37.3883 66.1342C37.4283 66.1574 37.4662 66.1784 37.5062 66.2016C42.8309 69.2714 49.9642 68.6418 54.8404 64.8962C54.8994 64.8499 54.9605 64.8036 55.0194 64.7573C54.9499 64.7067 54.8783 64.6583 54.8047 64.6078C52.2928 62.8708 49.1031 62.0139 46.0523 62.1191C43.0267 62.2223 39.5969 63.7087 37.6052 65.8921C37.5294 65.97 37.4578 66.05 37.3883 66.1342Z" fill="#A8DCE0"/>
<path d="M37.3883 66.1342C37.4283 66.1574 37.4662 66.1784 37.5062 66.2016C39.3548 65.8521 41.216 65.5699 43.0878 65.3552C46.9871 64.9067 50.918 64.7509 54.8404 64.8941C54.8994 64.8478 54.9605 64.8015 55.0194 64.7551C54.9499 64.7046 54.8783 64.6562 54.8047 64.6056C50.3221 64.4456 45.8249 64.673 41.3781 65.2794C40.1149 65.452 38.8558 65.6542 37.6052 65.89C37.5294 65.9679 37.4578 66.0479 37.3883 66.1321V66.1342Z" fill="#A8DCE0"/>
<path d="M46.8376 71.8758C46.8777 71.899 46.9155 71.92 46.9556 71.9432C52.2803 75.0129 59.4135 74.3834 64.2898 70.6378C64.3487 70.5915 64.4098 70.5452 64.4688 70.4988C64.3993 70.4483 64.3277 70.3999 64.254 70.3494C61.7422 68.6124 58.5524 67.7554 55.5016 67.8607C52.4761 67.9639 49.0463 69.4503 47.0545 71.6337C46.9787 71.7116 46.9071 71.7916 46.8376 71.8758Z" fill="#A8DCE0"/>
<path d="M46.8376 71.8758C46.8777 71.899 46.9155 71.92 46.9556 71.9432C48.8041 71.5937 50.6654 71.3116 52.5371 71.0968C56.4364 70.6483 60.3673 70.4925 64.2898 70.6357C64.3487 70.5894 64.4098 70.5431 64.4688 70.4967C64.3993 70.4462 64.3277 70.3978 64.254 70.3473C59.7715 70.1872 55.2742 70.4146 50.8275 71.021C49.5642 71.1936 48.3052 71.3958 47.0545 71.6316C46.9787 71.7095 46.9071 71.7895 46.8376 71.8737V71.8758Z" fill="#A8DCE0"/>
<path d="M54.8468 78.4554C54.8868 78.4785 54.9247 78.4996 54.9647 78.5227C60.2894 81.5925 67.4227 80.963 72.2989 77.2174C72.3579 77.171 72.419 77.1247 72.4779 77.0784C72.4084 77.0279 72.3368 76.9794 72.2632 76.9289C69.7513 75.1919 66.5616 74.335 63.5108 74.4403C60.4852 74.5434 57.0554 76.0299 55.0637 78.2132C54.9879 78.2911 54.9163 78.3712 54.8468 78.4554Z" fill="#A8DCE0"/>
<path d="M54.8468 78.4553C54.8868 78.4785 54.9247 78.4996 54.9647 78.5227C56.8133 78.1732 58.6745 77.8911 60.5463 77.6763C64.4456 77.2279 68.3765 77.0721 72.2989 77.2152C72.3579 77.1689 72.419 77.1226 72.4779 77.0763C72.4084 77.0257 72.3368 76.9773 72.2632 76.9268C67.7806 76.7668 63.2834 76.9942 58.8366 77.6005C57.5734 77.7732 56.3143 77.9753 55.0637 78.2111C54.9879 78.289 54.9163 78.369 54.8468 78.4532V78.4553Z" fill="#A8DCE0"/>
<path d="M45.1911 60.3905C45.1511 60.4053 45.1068 60.4221 45.0668 60.439C39.3232 62.635 32.373 60.8853 28.1537 56.4133C28.099 56.3607 28.0505 56.306 28 56.2512C28.0779 56.2112 28.1579 56.1712 28.24 56.1333C30.9961 54.8174 34.2764 54.4742 37.2703 55.0574C40.2432 55.6406 43.3951 57.6492 45.0226 60.1168C45.0795 60.2095 45.1384 60.2979 45.1932 60.3905H45.1911Z" fill="#A8DCE0"/>
<path d="M85.2095 92.9283C84.9 92.4293 84.5842 91.9303 84.2621 91.4334C81.6955 87.4899 78.7668 83.7801 75.5349 80.3629C72.2925 76.9331 68.7448 73.7918 64.9403 70.9978C61.1483 68.2123 57.1038 65.7721 52.8697 63.7193C50.3305 62.4855 47.7218 61.3906 45.0668 60.4411C43.2962 59.8031 41.4981 59.2304 39.6853 58.723C35.906 57.664 32.0509 56.8934 28.1537 56.4154C28.099 56.3628 28.0505 56.3081 28 56.2533C28.0779 56.2133 28.1579 56.1733 28.24 56.1354C32.6889 56.6849 37.0956 57.6198 41.3865 58.9209C42.6077 59.2894 43.8204 59.6894 45.0226 60.121C48.2777 61.2811 51.4548 62.6539 54.5288 64.2288C58.7544 66.3932 62.778 68.945 66.5362 71.8442C70.2839 74.7329 73.7727 77.9564 76.9414 81.4662C80.1143 84.976 82.9693 88.77 85.4601 92.7935C85.5569 92.9493 85.3085 93.0883 85.2095 92.9304V92.9283Z" fill="#A8DCE0"/>
<path d="M228.58 29.8668C226.642 27.4026 223.102 26.6508 220.221 28.0886C218.509 28.9393 217.318 30.3662 216.736 31.9742C216.297 33.1981 215.457 34.2518 214.343 34.9433C214.343 34.9433 214.343 34.9433 214.343 34.9488L207.571 24L196.633 30.7668C197.325 31.8864 198.378 32.7261 199.602 33.1596C201.21 33.7414 202.632 34.9323 203.488 36.6446C204.926 39.5258 204.174 43.0657 201.71 45.003C198.51 47.522 193.895 46.5671 191.76 43.1151C190.887 41.7046 190.574 40.1076 190.761 38.5984C190.92 37.3196 190.624 36.0189 189.938 34.9103L179 41.6772L196.677 70.2537L207.615 63.4869C208.301 64.5955 208.597 65.8962 208.438 67.1749C208.252 68.6841 208.564 70.2812 209.437 71.6916C211.572 75.1436 216.187 76.0986 219.387 73.5795C221.851 71.6422 222.603 68.1024 221.165 65.2211C220.314 63.5089 218.888 62.3179 217.28 61.7362C216.056 61.2971 215.002 60.4575 214.31 59.3434L225.248 52.5765L218.476 41.6278C218.476 41.6278 218.476 41.6278 218.481 41.6278C219.59 40.9418 220.891 40.6454 222.169 40.8046C223.679 40.9912 225.276 40.6783 226.686 39.8057C230.138 37.6709 231.093 33.0554 228.574 29.8558L228.58 29.8668Z" fill="#D2C6FF"/>
<path d="M348.323 39.0262C348.188 38.9527 348.099 38.8049 348.109 38.6401C348.122 38.4122 348.316 38.2383 348.544 38.251L352.499 38.4684C352.726 38.4811 352.9 38.6752 352.888 38.9031C352.875 39.1311 352.681 39.3049 352.453 39.2923L348.499 39.0748C348.435 39.0724 348.378 39.0534 348.323 39.0262Z" fill="white"/>
<g clip-path="url(#clip1_80_357)">
<path d="M134.746 130.929C126.002 119.988 109.874 118.426 99.1726 127.665C89.2746 136.214 87.7899 151.259 95.812 161.588C101.654 169.108 110.93 172.33 119.663 170.806C124.372 169.987 129.144 171.912 132.127 175.649L132.333 175.903L140.439 169.423L140.233 169.169C137.175 165.346 136.551 160.194 138.372 155.655C141.594 147.635 140.522 138.159 134.739 130.926L134.746 130.929Z" fill="#FFAB24"/>
<path d="M139.725 170.354C139.725 170.354 139.71 170.36 139.703 170.368C139.575 170.449 139.405 170.414 139.326 170.291L120.062 140.862L118.277 149.73C118.252 149.857 118.135 149.95 118.002 149.95L108.967 149.743L132.929 174.114C133.035 174.221 133.034 174.393 132.928 174.499C132.827 174.591 132.649 174.603 132.542 174.492L108.106 149.639C108.029 149.56 108.007 149.441 108.049 149.34C108.095 149.238 108.196 149.173 108.309 149.177L117.789 149.399L119.663 140.105C119.685 139.996 119.771 139.91 119.881 139.892C119.988 139.869 120.102 139.917 120.163 140.008L139.793 169.997C139.87 170.115 139.846 170.27 139.738 170.359L139.725 170.354Z" fill="white"/>
<path d="M135.851 178.116C135.851 178.116 139.334 183.764 142.948 180.871C146.563 177.982 141.977 173.215 141.977 173.215L135.851 178.116Z" fill="white"/>
<path d="M134.811 176.422L140.395 171.959C141.193 171.32 142.362 171.451 143 172.249L143.148 172.433C143.786 173.232 143.656 174.401 142.857 175.039L137.274 179.503C136.476 180.141 135.307 180.011 134.669 179.212L134.521 179.028C133.883 178.23 134.013 177.061 134.811 176.422Z" fill="#036A72"/>
<path d="M140.219 168.314L131.303 175.442C130.554 176.041 130.432 177.133 131.031 177.882L131.326 178.251C131.924 179 133.017 179.121 133.765 178.523L142.682 171.394C143.43 170.795 143.552 169.703 142.953 168.954L142.658 168.585C142.06 167.837 140.968 167.715 140.219 168.314Z" fill="#068FA0"/>
<g opacity="0.3">
<path d="M94.701 145.37C93.9746 145.322 93.2633 145.818 93.1944 146.575C93.0166 148.568 93.3072 150.577 94.0411 152.435C94.3058 153.098 95.1825 153.468 95.8352 153.152C96.5165 152.824 96.8314 152.07 96.5518 151.358C96.4323 151.057 96.3318 150.748 96.2379 150.443C96.0811 149.852 95.9622 149.245 95.9033 148.635C95.8869 148.475 95.8731 148.309 95.8661 148.145C95.8622 148.068 95.8603 147.997 95.8564 147.921C95.8622 147.573 95.8726 147.224 95.9061 146.877C95.9717 146.165 95.4456 145.422 94.701 145.37Z" fill="white"/>
<path d="M100.771 129.503C96.9532 132.331 94.4435 136.768 93.9605 141.49C93.7812 143.239 96.4948 143.545 96.6721 141.792C97.0871 137.748 99.2092 134.051 102.476 131.636C103.886 130.588 102.184 128.459 100.771 129.503Z" fill="white"/>
</g>
<path d="M94.6872 112.659C94.4532 112.846 94.1104 112.81 93.9174 112.574L90.6477 108.483C90.4614 108.249 90.4967 107.906 90.7335 107.713C90.9675 107.527 91.3103 107.562 91.5033 107.799L94.773 111.89C94.9593 112.124 94.924 112.466 94.6872 112.659Z" fill="white"/>
<path d="M83.1816 130.876C83.0571 130.978 82.886 131.021 82.7185 130.98L77.6129 129.816C77.3182 129.75 77.1359 129.459 77.2025 129.164C77.269 128.869 77.5603 128.687 77.8549 128.753L82.9606 129.917C83.2552 129.984 83.4375 130.275 83.371 130.569C83.3393 130.694 83.2721 130.8 83.1816 130.876Z" fill="white"/>
<path d="M85.5185 152.301C85.4845 152.327 85.4505 152.352 85.4126 152.368L80.6942 154.636C80.4203 154.766 80.0945 154.652 79.9639 154.378C79.8334 154.104 79.9501 153.783 80.222 153.648L84.9404 151.379C85.2142 151.249 85.54 151.363 85.6706 151.637C85.7834 151.868 85.7157 152.147 85.5185 152.301Z" fill="white"/>
<path d="M98.4049 172.32C98.2464 172.447 98.0208 172.479 97.8249 172.383C97.5533 172.251 97.4401 171.926 97.5718 171.654L99.8545 166.939C99.9862 166.668 100.312 166.554 100.583 166.686C100.855 166.818 100.968 167.143 100.837 167.415L98.5539 172.13C98.5187 172.206 98.4661 172.266 98.4049 172.32Z" fill="white"/>
<path d="M114.995 105.442C114.902 105.514 114.784 105.564 114.655 105.561C114.355 105.564 114.108 105.316 114.106 105.017L114.093 99.7832C114.09 99.4837 114.333 99.2382 114.637 99.234C114.937 99.2319 115.184 99.4793 115.186 99.7787L115.2 105.012C115.199 105.185 115.119 105.341 114.995 105.442Z" fill="white"/>
<path d="M135.374 112.439C135.177 112.593 134.897 112.604 134.695 112.438C134.457 112.253 134.419 111.908 134.603 111.67L137.852 107.565C138.039 107.332 138.382 107.289 138.62 107.474C138.858 107.658 138.896 108.004 138.712 108.242L135.463 112.346C135.438 112.379 135.406 112.409 135.377 112.432L135.374 112.439Z" fill="white"/>
<path d="M152.068 129.417C152.005 129.465 151.931 129.502 151.851 129.524L146.75 130.711C146.455 130.778 146.164 130.599 146.097 130.304C146.03 130.009 146.209 129.718 146.504 129.651L151.605 128.464C151.9 128.397 152.191 128.576 152.258 128.871C152.308 129.084 152.229 129.294 152.065 129.424L152.068 129.417Z" fill="white"/>
</g>
<g clip-path="url(#clip2_80_357)">
<path d="M394.394 47.8197C399.476 38.5299 395.863 26.8238 386.297 22.0533C377.447 17.6419 366.52 20.9934 361.654 29.6014C358.112 35.8695 358.57 43.2801 362.179 48.9269C364.123 51.9735 364.172 55.8636 362.435 59.0345L362.318 59.252L369.202 63.0165L369.319 62.799C371.094 59.551 374.506 57.6131 378.204 57.56C384.737 57.4688 391.035 53.9579 394.394 47.8142L394.394 47.8197Z" fill="#FFAB24"/>
<path d="M368.345 62.7899C368.345 62.7899 368.336 62.7817 368.328 62.779C368.235 62.7136 368.209 62.5846 368.272 62.4937L383.183 40.4736L376.477 41.8147C376.381 41.8344 376.282 41.78 376.243 41.6868L373.753 35.3236L363.74 59.1464C363.696 59.251 363.576 59.3009 363.471 59.2575C363.378 59.214 363.317 59.0935 363.363 58.9862L373.574 34.693C373.607 34.6159 373.683 34.5662 373.766 34.5658C373.851 34.5681 373.925 34.6199 373.956 34.6994L376.565 41.3778L383.595 39.9747C383.678 39.9578 383.763 39.9931 383.807 40.0643C383.854 40.1327 383.855 40.226 383.808 40.2949L368.613 62.7337C368.554 62.8219 368.438 62.8499 368.345 62.8009L368.345 62.7899Z" fill="white"/>
<path d="M361.8 62.3513C361.8 62.3513 358.876 66.4283 361.948 68.1051C365.017 69.7845 367.005 65.1958 367.005 65.1958L361.8 62.3513Z" fill="white"/>
<path d="M362.679 61.1322L367.42 63.7251C368.098 64.0958 368.349 64.9495 367.978 65.6274L367.892 65.7841C367.521 66.462 366.668 66.7121 365.99 66.3414L361.248 63.7485C360.57 63.3778 360.32 62.5241 360.691 61.8462L360.776 61.6895C361.147 61.0116 362.001 60.7615 362.679 61.1322Z" fill="#036A72"/>
<path d="M369.912 62.5396L362.339 58.3988C361.703 58.051 360.906 58.2847 360.558 58.9206L360.387 59.234C360.039 59.8699 360.273 60.6673 360.908 61.015L368.481 65.1559C369.117 65.5036 369.915 65.27 370.262 64.6341L370.434 64.3207C370.781 63.6848 370.548 62.8874 369.912 62.5396Z" fill="#068FA0"/>
<g opacity="0.3">
<path d="M372.643 24.0971C372.465 23.5763 371.911 23.2248 371.363 23.3976C369.921 23.8546 368.604 24.6433 367.522 25.6972C367.137 26.0751 367.135 26.7944 367.545 27.1576C367.973 27.5372 368.59 27.5371 369.006 27.1343C369.181 26.9632 369.367 26.8031 369.553 26.6485C369.919 26.3667 370.308 26.1068 370.716 25.888C370.823 25.8299 370.935 25.7717 371.047 25.719C371.099 25.694 371.149 25.6718 371.201 25.6469C371.445 25.5496 371.691 25.4551 371.943 25.3771C372.459 25.2154 372.824 24.6317 372.643 24.0971Z" fill="white"/>
<path d="M385.482 23.7044C382.395 21.8658 378.569 21.4089 375.134 22.4491C373.862 22.834 374.439 24.8162 375.714 24.4286C378.656 23.5389 381.853 23.9412 384.491 25.5156C385.633 26.1938 386.621 24.3854 385.482 23.7044Z" fill="white"/>
</g>
<path d="M388.856 19.035C388.658 18.9261 388.582 18.6766 388.691 18.473L390.591 14.9992C390.7 14.801 390.949 14.7257 391.153 14.8346C391.351 14.9435 391.427 15.193 391.318 15.3966L389.418 18.8704C389.309 19.0686 389.059 19.1439 388.856 19.035Z" fill="white"/>
<path d="M372.793 16.3213C372.686 16.2642 372.606 16.1575 372.586 16.0285L371.908 12.1277C371.869 11.9027 372.019 11.6906 372.244 11.6511C372.469 11.6116 372.681 11.7616 372.72 11.9866L373.398 15.8874C373.437 16.1124 373.287 16.3245 373.062 16.364C372.966 16.3781 372.873 16.3621 372.793 16.3213Z" fill="white"/>
<path d="M358.529 24.1993C358.501 24.183 358.474 24.1667 358.452 24.1448L355.494 21.5149C355.323 21.3619 355.308 21.1012 355.461 20.9302C355.614 20.7593 355.872 20.7471 356.045 20.8973L359.004 23.5272C359.175 23.6802 359.189 23.9409 359.037 24.1118C358.908 24.258 358.694 24.2919 358.529 24.1993Z" fill="white"/>
</g>
<defs>
<clipPath id="clip0_80_357">
<rect width="373" height="405" fill="white" transform="translate(9 182)"/>
</clipPath>
<clipPath id="clip1_80_357">
<rect width="76.5565" height="77.4192" fill="white" transform="translate(65 134.399) rotate(-22.5829)"/>
</clipPath>
<clipPath id="clip2_80_357">
<rect width="57.8821" height="58.5344" fill="white" transform="translate(376.195) rotate(44.73)"/>
</clipPath>
</defs>
</svg>
