<svg width="353" height="435" viewBox="0 0 353 435" fill="none" xmlns="http://www.w3.org/2000/svg">
<path d="M122.744 433.176C113.776 431.488 105.089 428.491 96.9517 424.384C99.9661 422.339 102.426 419.407 104.003 416.129C105.761 412.472 106.585 408.412 106.76 404.358C107.28 392.318 101.859 380.739 92.5761 373.052C87.3009 380.774 84.6838 390.285 85.2796 399.626C85.8112 408.015 88.9366 416.211 94.0716 422.865C93.207 422.392 92.3425 421.913 91.4895 421.411C84.3917 417.263 77.7845 412.233 71.8901 406.49C75.3893 405.042 78.4855 402.512 80.7055 399.451C83.0889 396.168 84.6195 392.318 85.5133 388.357C88.1655 376.603 84.8941 364.242 77.1302 355.029C70.564 361.689 66.2994 370.586 65.2186 379.881C64.2489 388.24 65.8671 396.875 69.7461 404.341C68.42 402.968 67.1348 401.566 65.8905 400.123C59.6513 392.879 54.5047 384.753 50.6665 376.013C54.6273 375.488 58.4596 373.653 61.4682 371.024C64.5235 368.355 66.8777 364.943 68.6303 361.286C73.8412 350.42 73.409 337.644 67.9001 326.924C60.0077 331.948 53.8679 339.671 50.7425 348.486C47.7982 356.782 47.547 366 49.9947 374.454C49.4514 373.151 48.9374 371.836 48.4466 370.504C44.2113 358.903 42.225 346.524 42.447 334.18C42.4938 331.522 42.6573 328.869 42.9144 326.223C46.6824 327.152 50.7834 326.901 54.4579 325.662C58.3019 324.365 61.7836 322.116 64.8039 319.406C73.777 311.361 78.2752 299.397 77.288 287.386C75.4711 287.708 73.6777 288.152 71.9251 288.712C72.1705 288.52 72.4158 288.327 72.6553 288.122C81.8797 280.364 86.7518 268.546 86.1442 256.512C76.8849 257.844 68.1104 262.342 61.6259 269.09C55.3868 275.586 51.3208 284.121 50.17 293.053C50.1466 293.088 50.1232 293.117 50.1057 293.158C49.3288 294.805 48.5985 296.482 47.915 298.17C48.7037 292.235 48.2597 286.136 46.548 280.405C43.8725 271.444 38.1241 263.423 30.5004 258.008C24.4541 268.435 23.385 281.171 28.041 292.288C29.6066 296.032 31.7856 299.555 34.7007 302.377C37.4172 305.005 40.9048 306.957 44.5968 307.774C42.5522 314.855 41.2787 322.157 40.8172 329.512C40.7646 330.307 40.7237 331.095 40.6945 331.89C39.5027 323.472 35.7347 315.427 29.9922 309.159C23.6713 302.26 15.0019 297.557 5.77761 296.009C4.88965 308.026 9.48136 319.955 18.5187 327.929C21.5623 330.61 25.0616 332.836 28.9173 334.098C32.6561 335.325 36.8213 335.529 40.6244 334.524C40.5075 341.996 41.1969 349.474 42.6866 356.794C39.0529 350.04 33.5791 344.269 26.9836 340.355C18.9393 335.576 9.28273 333.572 0 334.758C2.61716 346.524 10.4628 356.618 21.4163 361.636C25.1025 363.325 29.0925 364.446 33.1526 364.54C36.8447 364.628 40.6419 363.745 43.8666 361.929C44.2872 363.564 44.7487 365.194 45.257 366.807C47.325 373.408 50.1057 379.764 53.5174 385.763C48.0669 378.888 40.4374 373.758 32.0018 371.334C23.0111 368.752 13.1617 369.26 4.48071 372.754C9.99544 383.468 20.1369 391.249 32.0076 393.329C36.0035 394.03 40.1453 394.1 44.0944 393.165C47.9734 392.248 51.6772 390.209 54.4053 387.312C56.6311 391.056 59.1022 394.655 61.8128 398.072C64.4125 401.355 67.2224 404.469 70.2018 407.402C65.8729 405.047 61.141 403.435 56.2631 402.705C47.0095 401.32 37.312 403.114 29.1685 407.717C36.0385 417.619 47.1147 424.004 59.1548 424.513C63.209 424.682 67.3276 424.209 71.1189 422.766C74.6591 421.416 77.9189 419.085 80.2323 416.077C82.4463 417.759 84.7305 419.354 87.0731 420.856C96.6538 426.995 107.263 431.546 118.35 434.128C119.694 434.444 121.049 434.724 122.405 434.981C123.567 435.203 123.9 433.392 122.738 433.176H122.744ZM51.5136 294.49C54.3469 295.121 57.3496 295.109 60.2063 294.525C57.6417 296.33 55.2758 298.404 53.1727 300.735C49.3288 304.994 46.3961 310.059 44.5443 315.492C45.7827 309.556 47.5645 303.738 49.8954 298.141C50.4037 296.914 50.947 295.699 51.5078 294.49H51.5136Z" fill="#A8DCE0"/>
<path d="M251.002 355.392C252.17 354.924 253.327 354.428 254.478 353.914C263.924 349.637 272.599 343.696 280.071 336.516C281.899 334.758 283.652 332.93 285.334 331.037C287.934 333.315 291.258 334.822 294.658 335.401C298.303 336.02 302.066 335.71 305.652 334.84C316.32 332.252 325.083 324.587 329.464 314.528C321.373 311.858 312.388 311.975 304.367 314.849C300.144 316.362 296.2 318.646 292.748 321.515C294.892 318.366 296.849 315.088 298.59 311.694C300.407 308.16 301.978 304.509 303.298 300.764C306.254 302.873 309.923 304.036 313.551 304.17C317.243 304.304 320.935 303.51 324.382 302.172C334.617 298.211 342.304 289.466 345.331 278.916C336.959 277.327 328.068 278.618 320.491 282.52C313.387 286.177 307.475 292.112 303.824 299.222C305.81 293.257 307.171 287.083 307.849 280.82C308.013 279.289 308.135 277.753 308.223 276.217C311.424 277.268 314.97 277.385 318.259 276.649C321.864 275.843 325.234 274.137 328.231 271.975C337.129 265.549 342.351 255.139 342.602 244.168C334.102 244.752 325.83 248.257 319.492 253.947C314.293 258.615 310.425 264.737 308.375 271.42C308.41 264.615 307.697 257.815 306.272 251.161C309.847 251.383 313.533 250.466 316.659 248.707C319.877 246.896 322.611 244.291 324.855 241.352C331.52 232.63 333.512 221.157 330.586 210.577C322.617 213.592 315.706 219.334 311.284 226.613C307.259 233.232 305.325 241.084 305.746 248.818C305.577 248.117 305.401 247.416 305.214 246.715C303.497 240.225 301.072 233.927 297.988 227.963C301.143 226.578 303.912 224.212 305.874 221.385C307.983 218.347 309.304 214.813 310.04 211.191C312.23 200.436 309.017 189.243 301.768 181C295.914 187.192 292.199 195.371 291.398 203.853C290.884 209.28 291.568 214.807 293.32 219.971C292.409 218.581 291.463 217.214 290.475 215.882C290.452 215.853 290.429 215.829 290.399 215.8C287.788 208.024 282.647 201.119 275.923 196.417C268.936 191.539 260.302 189.068 251.79 189.523C253.379 200.383 259.823 210.081 269.439 215.374C269.69 215.508 269.941 215.636 270.192 215.771C268.522 215.584 266.845 215.502 265.163 215.537C266.407 226.444 272.547 236.34 281.987 241.931C285.165 243.818 288.676 245.208 292.339 245.687C295.838 246.143 299.548 245.64 302.749 244.145C303.45 246.464 304.064 248.807 304.578 251.173C306.967 262.161 307.382 273.57 305.652 284.687C305.454 285.961 305.226 287.229 304.969 288.49C305.658 280.505 303.801 272.314 299.7 265.421C295.347 258.095 288.489 252.288 280.55 249.198C277.524 259.748 279.405 271.239 285.983 280.026C288.197 282.982 290.902 285.616 294.109 287.456C297.264 289.273 301.008 290.231 304.642 290.003C302.761 298.492 299.6 306.664 295.312 314.241C294.459 315.749 293.554 317.232 292.613 318.693C294.757 311.338 294.676 303.335 292.327 296.038C289.716 287.924 284.336 280.738 277.284 275.948C271.98 285.558 271.244 297.177 275.695 307.208C277.197 310.584 279.241 313.757 281.952 316.269C284.476 318.611 287.689 320.323 291.071 321C286.818 327.175 281.806 332.836 276.204 337.802C275.532 338.398 274.842 338.982 274.153 339.554C277.565 332.702 278.903 324.827 277.892 317.232C276.77 308.785 272.751 300.753 266.664 294.788C259.73 303.3 256.943 314.604 259.537 325.265C260.413 328.858 261.862 332.339 264.082 335.295C266.068 337.942 268.784 340.127 271.846 341.418C265.303 346.529 258.07 350.741 250.359 353.838C249.36 354.241 249.979 355.795 250.978 355.392H251.002ZM291.544 220.292C294.611 224.878 297.234 229.762 299.396 234.845C296.779 230.323 293.262 226.315 289.073 223.19C286.783 221.484 284.3 220.047 281.689 218.89C284.341 218.908 287.029 218.388 289.447 217.319C290.16 218.295 290.861 219.288 291.539 220.292H291.544Z" fill="#A8DCE0"/>
<g clip-path="url(#clip0_80_354)">
<path d="M256.884 329.282C233.277 353.734 244.914 409.251 254.228 433H129.493C132.896 368.337 107.485 352.776 84.6448 345.049C84.6448 345.049 84.6448 345.049 84.6306 345.049C77.1784 342.53 70.0032 340.834 64.1849 338.549C38.2051 328.31 60.2918 302.525 59.7093 296.067C59.3754 292.42 46.2399 285.197 59.6098 278.307C53.4435 274.823 52.0795 263.853 63.2969 261.072C63.2969 261.072 44.1228 250.463 47.3694 240.53C50.5166 230.879 78.6915 227.594 88.7368 191.874C93.1058 176.314 102.675 161.491 115.832 149.258C125.728 162.59 139.986 172.418 154.422 180.897C202.673 209.238 257.268 226.686 313 231.809C307.366 269.452 279.852 305.512 256.884 329.297V329.282Z" fill="#D2C6FF"/>
<g style="mix-blend-mode:multiply">
<path d="M129.493 433C132.896 368.337 107.485 352.776 84.6448 345.049C121.714 355.38 174.1 348.795 174.1 348.795C158.954 395.939 129.486 433 129.486 433H129.493Z" fill="#724CF9"/>
</g>
<path d="M266.333 254.948C264.841 259.589 262.042 263.754 258.426 267.032C256.252 269.019 253.773 270.672 251.102 271.928C244.012 275.242 235.693 275.696 228.184 273.496C220.668 271.304 214.48 266.415 209.663 260.248C206.893 268.032 208.47 277.136 213.613 283.6C210.146 285.623 205.99 286.531 201.984 286.304C192.94 278.151 187.641 265.804 187.825 253.635C178.355 254.671 168.488 250.719 162.357 243.439C158.84 239.252 156.624 234.037 155.871 228.623C153.107 227.949 150.486 226.636 148.71 224.458C148.156 223.769 147.701 222.982 147.381 222.152C146.451 219.768 146.543 216.993 148.078 214.978C150.678 215.333 154.088 216.504 156.24 218.355C156.368 217.774 156.517 217.199 156.681 216.624C164.843 214.056 173.446 213.048 182.071 213.339C193.835 213.729 205.642 216.532 216.412 221.08C219.36 222.322 222.252 223.677 225.086 225.132C240.211 232.866 253.787 243.403 266.333 254.948Z" fill="#CC5050"/>
<g style="mix-blend-mode:multiply">
<path d="M266.333 254.948C264.841 259.589 262.042 263.754 258.426 267.032C254.363 266.94 250.32 265.904 246.79 263.91C240.24 267.089 232.546 267.834 225.506 265.975C218.465 264.116 212.292 259.674 208.171 253.678C200.769 254.579 193.089 254.387 186.106 251.79C179.13 249.186 172.907 243.921 170.363 236.918C169.148 233.562 169.063 230.078 169.632 226.551C162.044 228.36 153.725 226.643 147.374 222.159C146.444 219.775 146.536 217 148.07 214.985C150.671 215.34 154.081 216.511 156.233 218.363C156.361 217.781 156.51 217.206 156.674 216.631C164.836 214.063 173.439 213.055 182.064 213.346C188.28 215.021 194.496 216.695 200.712 218.37C208.846 220.562 217.002 222.748 225.079 225.132C240.204 232.866 253.78 243.403 266.326 254.948H266.333Z" fill="#FFE0E0"/>
</g>
<path d="M287.347 234.03C288.427 236.79 288.377 239.99 287.127 242.679C285.606 245.951 282.829 248.817 279.255 249.335C276.897 255.423 271.37 260.192 264.99 261.625C259.2 262.923 252.508 261.398 247.77 257.744C247.287 257.375 246.825 256.977 246.377 256.559C246.314 256.608 246.25 256.658 246.186 256.708C240.829 260.901 233.689 262.732 226.976 261.639C220.227 260.539 214.118 256.708 210.388 250.974C210.36 250.946 210.345 250.918 210.317 250.875C209.074 251.145 207.816 251.379 206.559 251.57C201.408 252.351 196.151 252.422 191.107 251.209C184.827 249.697 178.902 246.029 175.578 240.501C172.764 235.832 171.947 229.666 173.93 224.635C174.278 223.734 174.718 222.875 175.258 222.059L175.265 222.045C175.265 222.045 175.286 222.003 175.301 221.981C172.388 223.372 169.212 224.195 165.994 224.436C163.515 224.621 160.993 224.465 158.556 223.947C153.612 222.897 149.363 220.179 145.882 216.553C145.435 216.092 145.009 215.617 144.589 215.127C144.575 215.12 144.568 215.113 144.561 215.099C136.37 217.994 126.694 216.205 120.087 210.572C113.48 204.938 110.191 195.671 111.775 187.134C112.578 182.806 114.617 178.754 117.509 175.434C120.308 172.205 123.909 169.665 127.944 168.232C127.895 168.182 127.859 168.139 127.817 168.09C127.39 167.607 127.113 167.018 126.964 166.387C126.573 164.769 126.993 162.86 127.859 161.647C129.088 159.908 130.886 158.028 133.003 157.737C133.123 152.749 135.539 147.867 139.418 144.738C141.925 142.715 145.023 141.445 148.22 141.048C151.196 140.686 153.946 141.311 156.752 142.041C157.384 142.197 158.016 142.368 158.649 142.524H158.67C158.67 142.524 159.039 142.006 159.707 141.247C159.714 141.232 159.728 141.218 159.743 141.211C159.835 141.112 159.927 140.998 160.034 140.885C160.034 140.885 160.034 140.871 160.041 140.871C161.384 139.409 163.621 137.316 166.442 136.046C169.568 134.633 172.757 133.243 176.174 132.874C180.941 132.363 185.921 133.186 190.106 135.577C192.528 132.959 195.903 131.249 199.448 130.837C202.225 130.518 205.287 130.937 207.909 132.1C208.612 132.398 209.28 132.76 209.898 133.179C209.919 133.193 209.933 133.207 209.962 133.214C217.265 129.617 225.981 129.021 233.718 131.561C240.815 133.903 247.01 138.884 250.86 145.284C251.194 145.83 251.5 146.391 251.798 146.966C251.805 146.98 251.812 146.994 251.819 147.008C259.442 145.909 267.548 149.144 272.322 155.183C276.669 160.689 278.097 168.345 276.158 175.079C275.988 175.675 275.789 176.257 275.568 176.832C275.547 176.888 275.526 176.945 275.497 177.009C278.758 178.109 281.458 180.755 282.623 183.991C283.582 186.659 283.823 189.951 282.864 192.662C282.665 193.251 282.41 193.804 282.083 194.322C282.175 194.358 282.268 194.4 282.36 194.443C282.374 194.443 282.381 194.443 282.381 194.457C289.407 197.494 294.586 204.42 295.488 212.005C295.659 213.445 295.673 214.9 295.538 216.34C294.956 222.599 291.617 228.63 286.516 232.341C286.523 232.355 286.53 232.377 286.544 232.391C286.878 232.916 287.148 233.469 287.375 234.051L287.347 234.03Z" fill="#EF8181"/>
<g style="mix-blend-mode:multiply">
<path d="M287.347 234.03C288.427 236.79 288.377 239.99 287.127 242.68C285.606 245.951 282.829 248.817 279.255 249.335C276.897 255.423 271.37 260.192 264.99 261.625C259.2 262.924 252.508 261.398 247.77 257.744C247.287 257.375 246.825 256.977 246.377 256.559C246.314 256.608 246.25 256.658 246.186 256.708C240.829 260.901 233.689 262.732 226.976 261.639C220.227 260.539 214.118 256.708 210.388 250.974C210.36 250.946 210.345 250.918 210.317 250.875C209.074 251.145 207.816 251.379 206.559 251.57C201.408 252.351 196.151 252.422 191.107 251.209C184.827 249.697 178.902 246.029 175.578 240.501C172.764 235.832 171.947 229.666 173.93 224.635C174.278 223.734 174.718 222.875 175.258 222.059L175.265 222.045C175.265 222.045 175.286 222.003 175.301 221.981C172.388 223.372 169.212 224.195 165.994 224.436C163.515 224.621 160.993 224.465 158.556 223.947C153.612 222.897 149.363 220.179 145.882 216.553C145.435 216.092 145.009 215.617 144.589 215.127C144.575 215.12 144.568 215.113 144.561 215.099C136.37 217.994 126.694 216.206 120.087 210.572C113.48 204.938 110.191 195.671 111.775 187.134C112.578 182.806 114.617 178.754 117.509 175.434C115.612 179.329 115.058 183.885 116.102 188.085C117.587 194.046 122.219 199.119 128.023 201.141C133.834 203.149 140.625 202.043 145.477 198.282C148.205 204.554 153.647 209.365 160.382 210.614C167.11 211.863 174.391 209.571 179.187 204.696C179.869 207.421 183.321 209.046 185.864 207.847C183.882 211.92 185.715 216.88 188.543 220.42C191.946 224.699 196.791 227.8 202.105 229.113C207.411 230.425 213.151 229.936 218.167 227.75C219.545 232.497 222.209 236.613 226.152 239.593C230.095 242.573 235.018 244.233 239.955 244.269C243.401 244.29 247.067 243.425 249.425 240.906C250.498 244.439 253.73 247.001 257.403 247.448C261.062 247.902 264.912 246.022 266.802 242.857C270.262 245.695 275.753 245.646 279.156 242.743C282.552 239.841 283.454 234.427 281.195 230.581C287.411 227.793 292.519 222.535 295.517 216.34C294.934 222.599 291.595 228.63 286.494 232.341C286.502 232.355 286.509 232.377 286.523 232.391C286.857 232.916 287.127 233.469 287.354 234.051L287.347 234.03Z" fill="#FFE0E0"/>
</g>
<path d="M199.646 218.987C194.617 223.067 187.172 223.677 181.51 220.548C179.172 222.201 176.629 223.592 173.937 224.642C174.285 223.741 174.725 222.883 175.265 222.067C176.388 221.556 177.489 220.967 178.554 220.321C182.22 218.1 185.374 215.191 187.918 211.813C184.309 207.854 183.627 201.929 186.426 197.288C187.037 196.274 188.692 197.118 188.067 198.14C185.737 202 186.106 206.889 189.004 210.281C192.201 205.505 194.191 199.935 194.61 194.102C194.695 192.932 196.542 192.811 196.464 193.989C196.229 197.31 195.555 200.56 194.432 203.689C192.201 209.89 188.23 215.269 183.165 219.313C188.173 221.662 194.325 220.938 198.645 217.44C199.575 216.688 200.577 218.249 199.654 218.987H199.646Z" fill="#CC5050"/>
<path d="M159.849 141.098C159.807 141.133 159.778 141.169 159.735 141.204C159.828 141.105 159.92 140.991 160.027 140.878C159.977 140.949 159.92 141.02 159.849 141.091V141.098Z" fill="#CC5050"/>
<path d="M175.563 150.84C169.731 153.26 163.188 153.465 157.192 151.578C157.832 155.154 159.437 158.489 160.68 161.888C161.931 165.322 162.755 168.863 162.336 172.539C161.554 179.414 156.752 185.268 150.244 187.553C149.122 187.943 148.539 186.191 149.662 185.8C153.008 184.623 155.977 182.38 157.924 179.407C159.941 176.335 160.879 172.617 160.545 168.955C160.432 167.728 160.176 166.521 159.849 165.337C154.933 165.989 150.401 168.615 147.339 172.503C146.607 173.44 145.236 172.191 145.968 171.254C149.243 167.103 154.088 164.357 159.295 163.555C158.748 161.945 158.102 160.355 157.491 158.787C156.219 155.523 155.004 152.082 155.054 148.534C155.082 146.277 155.601 143.986 156.738 142.048C157.37 142.205 158.002 142.375 158.634 142.531C157.249 144.567 156.801 147.094 156.944 149.57C162.762 151.677 169.262 151.457 174.96 149.094C176.068 148.633 176.643 150.393 175.549 150.854L175.563 150.84Z" fill="#CC5050"/>
<path d="M139.894 169.48C136.157 167.579 131.852 167.103 127.81 168.083C127.383 167.6 127.106 167.011 126.957 166.38C131.539 165.159 136.505 165.677 140.746 167.834C141.812 168.373 140.959 170.02 139.894 169.473V169.48Z" fill="#CC5050"/>
<path d="M154.173 209.5C152.042 212.487 149.157 214.907 145.882 216.546C145.435 216.085 145.009 215.609 144.589 215.12C146.678 214.126 148.589 212.792 150.259 211.196C147.211 209.748 144.753 207.258 143.339 204.192C141.734 200.709 141.741 196.685 143.083 193.137C143.503 192.023 145.144 192.882 144.732 193.982C142.38 200.226 145.534 207.187 151.601 209.784C151.971 209.358 152.319 208.918 152.66 208.45C155.757 204.2 157.036 198.778 156.397 193.584C156.254 192.399 158.109 192.3 158.251 193.471C158.94 199.105 157.462 204.874 154.173 209.5Z" fill="#CC5050"/>
<path d="M244.474 185.24C240.573 177.96 233.583 173.113 225.498 171.595H225.47C223.779 178.052 223.971 184.992 226.109 191.335C226.493 192.47 224.731 193.045 224.355 191.917C222.77 187.22 222.216 182.246 222.621 177.307C223.325 168.799 227.083 160.668 233.235 154.728C234.393 153.614 235.622 152.586 236.901 151.635C230.123 146.725 221.243 144.873 213.073 146.71C211.915 146.973 211.326 145.22 212.484 144.951C221.499 142.921 231.111 144.979 238.499 150.521C242.25 148.044 246.441 146.249 250.832 145.284C251.166 145.83 251.471 146.391 251.769 146.966C248.53 147.611 245.397 148.733 242.477 150.287C235.672 153.912 230.166 159.688 227.111 166.777C226.678 167.77 226.301 168.785 225.974 169.814C234.45 171.439 241.923 176.583 246.015 184.239C246.569 185.282 245.021 186.297 244.466 185.247L244.474 185.24Z" fill="#CC5050"/>
<path d="M276.137 175.065C275.966 175.661 275.767 176.243 275.547 176.817C271.249 175.434 266.66 174.994 262.184 175.483C262.184 175.512 262.184 175.547 262.17 175.576C260.87 180.819 257.772 185.46 253.439 188.696C252.48 189.412 251.478 187.858 252.43 187.142C256.195 184.325 258.945 180.287 260.195 175.76C257.055 176.299 253.993 177.307 251.159 178.776C250.107 179.322 249.091 177.775 250.15 177.229C258.135 173.078 267.626 172.319 276.144 175.058L276.137 175.065Z" fill="#CC5050"/>
<path d="M287.347 234.03C285.059 235.655 282.317 236.513 279.497 236.74C276.201 237.003 272.805 236.506 269.622 235.669C266.503 234.853 263.498 233.597 260.841 231.759C256.181 228.531 252.736 223.344 252.594 217.561C252.565 216.369 254.412 216.262 254.441 217.447C254.512 220.307 255.471 223.017 257.048 225.38C258.398 227.395 260.138 229.042 262.099 230.368C262.149 230.319 262.205 230.262 262.269 230.219C267.228 226.743 269.402 220.442 267.647 214.652C267.306 213.509 269.061 212.927 269.409 214.063C271.348 220.47 269.068 227.367 263.775 231.383C266.006 232.618 268.45 233.505 270.936 234.087C276.002 235.265 282.168 235.697 286.516 232.369C286.85 232.895 287.12 233.448 287.347 234.03Z" fill="#CC5050"/>
<path d="M263.385 245.156C256.437 246.788 250.732 251.542 247.77 257.751C247.287 257.382 246.825 256.984 246.377 256.566C246.314 256.615 246.25 256.665 246.186 256.715C247.131 254.714 248.36 252.841 249.83 251.159C253.212 247.313 257.815 244.567 262.795 243.396C263.953 243.127 264.536 244.879 263.378 245.149L263.385 245.156Z" fill="#CC5050"/>
<path d="M238.662 220.527C237.092 225.274 234.336 229.631 230.194 232.54C226.55 235.101 222.046 236.407 217.606 235.775C216.76 239.153 215.581 242.495 214.032 245.617C213.08 247.547 211.901 249.435 210.388 250.967C210.36 250.939 210.345 250.91 210.317 250.868C209.074 251.138 207.816 251.372 206.559 251.563C206.573 251.549 206.594 251.542 206.609 251.528C209.827 249.747 211.667 246.447 213.109 243.19C216.291 235.981 217.648 228.055 217.215 220.215C210.935 219.782 205.06 216.127 202.069 210.55C201.508 209.507 203.056 208.485 203.618 209.543C206.282 214.503 211.461 217.944 217.087 218.363C216.64 213.431 215.489 208.571 213.62 203.98C213.173 202.873 214.935 202.298 215.382 203.391C216.888 207.102 217.94 210.976 218.551 214.935C219.524 221.222 219.318 227.722 217.989 233.952C220.192 234.257 222.429 234.016 224.539 233.32C233.675 230.312 237.845 220.725 238.392 211.771C238.463 210.586 240.318 210.472 240.24 211.657C240.055 214.666 239.579 217.646 238.641 220.513L238.662 220.527Z" fill="#CC5050"/>
<path d="M282.054 194.308C282.147 194.344 282.239 194.386 282.331 194.429C279.476 193.336 276.435 192.783 273.394 192.783C273.423 192.946 273.402 193.13 273.309 193.329C271.32 197.565 267.796 200.921 263.513 202.78C263.051 202.979 262.49 202.631 262.34 202.192C262.17 201.681 262.468 201.219 262.93 201.021C266.638 199.403 269.658 196.451 271.462 192.854C268.862 193.052 266.29 193.648 263.854 194.663C262.745 195.124 262.17 193.364 263.264 192.903C269.466 190.335 276.577 190.278 282.836 192.641C282.637 193.23 282.381 193.783 282.054 194.301V194.308Z" fill="#CC5050"/>
<path d="M217.904 174.611C214.494 166.855 206.438 162.115 198.027 162.661C198.169 163.123 198.311 163.57 198.467 164.031C198.794 165.01 199.149 165.975 199.504 166.94C199.789 167.763 200.073 168.579 200.357 169.395C200.421 169.551 200.471 169.707 200.527 169.864C201.586 172.787 202.73 175.668 203.362 178.719C203.419 178.989 203.476 179.258 203.525 179.535C204.023 182.295 204.122 185.126 203.611 187.894C203.39 189.072 201.572 188.681 201.799 187.511C202.701 182.693 201.501 177.846 199.916 173.305C199.718 172.73 199.504 172.155 199.291 171.581C193.864 174.213 189.772 179.336 188.422 185.219C188.159 186.382 186.348 185.999 186.61 184.835C188.116 178.307 192.635 172.744 198.645 169.849C197.565 167.004 196.45 164.18 195.682 161.228C194.574 156.985 194.304 152.6 195.327 148.3C196.975 141.318 201.629 135.428 207.901 132.093C208.605 132.391 209.273 132.753 209.891 133.172C206.452 134.747 203.44 137.167 201.131 140.182C198.595 143.496 197.075 147.533 196.627 151.67C196.3 154.771 196.727 157.843 197.508 160.831C206.95 160.022 215.872 165.393 219.673 174.029C220.156 175.129 218.394 175.696 217.911 174.618L217.904 174.611Z" fill="#CC5050"/>
<g style="mix-blend-mode:soft-light" opacity="0.5">
<path d="M195.838 181.915C216.372 181.063 232.649 171.516 232.195 160.592C231.74 149.668 214.726 141.503 194.192 142.356C173.659 143.208 157.381 152.755 157.836 163.679C158.291 174.603 175.305 182.768 195.838 181.915Z" fill="white"/>
</g>
</g>
<g clip-path="url(#clip1_80_354)">
<path d="M353 226.612H340.125V213.701H326.526V226.612H313.65V240.249H326.526V253.16H340.125V240.249H353V226.612Z" fill="#CC5050"/>
<path d="M160.599 78.2862H154.331V72H147.704V78.2862H141.435V84.9318H147.704V91.218H154.331V84.9318H160.599V78.2862Z" fill="#CC5050"/>
<path d="M35.6121 331.016H25.9285V321.298H15.6904V331.016H6V341.283H15.6904V351H25.9285V341.283H35.6121V331.016Z" fill="#CC5050"/>
<path d="M70.5795 87.8668C68.6422 85.4026 65.1024 84.6508 62.2211 86.0886C60.5089 86.9393 59.3179 88.3662 58.7362 89.9742C58.2971 91.1981 57.4575 92.2518 56.3434 92.9433C56.3434 92.9433 56.3434 92.9433 56.3434 92.9488L49.5711 82L38.6333 88.7668C39.3248 89.8864 40.3785 90.7261 41.6023 91.1596C43.2104 91.7414 44.6318 92.9323 45.4879 94.6446C46.9258 97.5258 46.1739 101.066 43.7098 103.003C40.5102 105.522 35.8947 104.567 33.7598 101.115C32.8872 99.7046 32.5744 98.1076 32.761 96.5984C32.9202 95.3196 32.6238 94.0189 31.9378 92.9103L21 99.6772L38.6772 128.254L49.615 121.487C50.301 122.595 50.5973 123.896 50.4382 125.175C50.2516 126.684 50.5644 128.281 51.437 129.692C53.5719 133.144 58.1874 134.099 61.3869 131.58C63.8511 129.642 64.603 126.102 63.1651 123.221C62.3144 121.509 60.8875 120.318 59.2795 119.736C58.0557 119.297 57.0019 118.457 56.3104 117.343L67.2482 110.577L60.4759 99.6278C60.4759 99.6278 60.4759 99.6278 60.4814 99.6278C61.59 98.9418 62.8907 98.6454 64.1694 98.8046C65.6786 98.9912 67.2757 98.6783 68.6861 97.8057C72.1381 95.6709 73.0931 91.0554 70.574 87.8558L70.5795 87.8668Z" fill="#D2C6FF"/>
</g>
<path d="M88.8931 10.2633C87.5367 4.59454 81.8373 1.10066 76.1619 2.45865C72.9589 3.22505 70.4513 5.3743 69.1183 8.11898C66.6872 6.27496 63.4784 5.4935 60.2754 6.2599C54.6 7.6179 51.0994 13.3131 52.4558 18.9818C53.1891 22.0468 55.2017 24.4662 57.7849 25.8356L57.7674 25.8398L75.5943 35.1842L87.2609 18.7827L87.2434 18.7869C88.927 16.3966 89.6264 13.3283 88.8931 10.2633Z" fill="#FF8ABB"/>
<g clip-path="url(#clip2_80_354)">
<path d="M301.746 54.9286C293.002 43.988 276.874 42.4256 266.173 51.6649C256.275 60.2143 254.79 75.2589 262.812 85.5875C268.654 93.1077 277.93 96.3296 286.663 94.8057C291.372 93.9871 296.144 95.9123 299.127 99.6492L299.333 99.9029L307.439 93.4227L307.233 93.1689C304.175 89.3463 303.551 84.1945 305.372 79.6549C308.594 71.6353 307.522 62.1588 301.739 54.9258L301.746 54.9286Z" fill="#FFAB24"/>
<path d="M306.725 94.3537C306.725 94.3537 306.71 94.3596 306.703 94.3683C306.575 94.4492 306.405 94.4143 306.326 94.2914L287.062 64.8622L285.277 73.7301C285.252 73.8572 285.135 73.9504 285.002 73.9503L275.967 73.7426L299.93 98.1142C300.035 98.2206 300.034 98.3932 299.928 98.4986C299.827 98.5906 299.649 98.6035 299.542 98.4924L275.106 73.639C275.029 73.5599 275.007 73.441 275.049 73.3403C275.095 73.2376 275.196 73.1733 275.309 73.1765L284.789 73.3991L286.663 64.1047C286.685 63.9957 286.771 63.9096 286.881 63.8919C286.988 63.8695 287.102 63.9166 287.163 64.0082L306.793 93.997C306.87 94.1152 306.846 94.27 306.738 94.3592L306.725 94.3537Z" fill="white"/>
<path d="M302.851 102.116C302.851 102.116 306.334 107.764 309.948 104.871C313.563 101.982 308.977 97.2155 308.977 97.2155L302.851 102.116Z" fill="white"/>
<path d="M301.811 100.422L307.395 95.9585C308.193 95.3204 309.362 95.4507 310 96.2488L310.148 96.4333C310.786 97.2315 310.656 98.4008 309.857 99.0389L304.274 103.503C303.476 104.141 302.307 104.011 301.669 103.212L301.521 103.028C300.883 102.23 301.013 101.061 301.811 100.422Z" fill="#036A72"/>
<path d="M307.219 92.3135L298.303 99.4422C297.554 100.041 297.432 101.133 298.031 101.882L298.326 102.251C298.924 103 300.017 103.121 300.765 102.523L309.682 95.3939C310.43 94.7953 310.552 93.7031 309.953 92.9543L309.658 92.5853C309.06 91.8366 307.968 91.7149 307.219 92.3135Z" fill="#068FA0"/>
<g opacity="0.3">
<path d="M261.701 69.37C260.975 69.3217 260.263 69.8178 260.194 70.575C260.017 72.5678 260.307 74.5771 261.041 76.4353C261.306 77.0983 262.182 77.4678 262.835 77.1518C263.516 76.824 263.831 76.0701 263.552 75.3577C263.432 75.057 263.332 74.7485 263.238 74.4427C263.081 73.8516 262.962 73.2448 262.903 72.6352C262.887 72.4752 262.873 72.3085 262.866 72.1446C262.862 72.0683 262.86 71.9968 262.856 71.9206C262.862 71.5734 262.873 71.2242 262.906 70.8766C262.972 70.1652 262.446 69.4218 261.701 69.37Z" fill="white"/>
<path d="M267.771 53.5028C263.953 56.3311 261.443 60.7675 260.96 65.49C260.781 67.2387 263.495 67.545 263.672 65.7916C264.087 61.7481 266.209 58.0512 269.476 55.6358C270.886 54.5876 269.184 52.4593 267.771 53.5028Z" fill="white"/>
</g>
<path d="M261.687 36.6594C261.453 36.8457 261.11 36.8103 260.917 36.5735L257.648 32.483C257.461 32.249 257.497 31.9061 257.733 31.7131C257.967 31.5268 258.31 31.5622 258.503 31.799L261.773 35.8895C261.959 36.1235 261.924 36.4664 261.687 36.6594Z" fill="white"/>
<path d="M250.182 54.8762C250.057 54.978 249.886 55.0214 249.718 54.9798L244.613 53.8163C244.318 53.7498 244.136 53.4585 244.202 53.1639C244.269 52.8692 244.56 52.6869 244.855 52.7535L249.961 53.9169C250.255 53.9835 250.437 54.2747 250.371 54.5694C250.339 54.6938 250.272 54.7996 250.182 54.8762Z" fill="white"/>
<path d="M252.518 76.3012C252.484 76.3265 252.45 76.3518 252.413 76.3675L247.694 78.6359C247.42 78.7664 247.094 78.6517 246.964 78.3778C246.833 78.104 246.95 77.7829 247.222 77.6476L251.94 75.3793C252.214 75.2487 252.54 75.3635 252.671 75.6373C252.783 75.8685 252.716 76.1469 252.518 76.3012Z" fill="white"/>
<path d="M265.405 96.3197C265.246 96.4468 265.021 96.4794 264.825 96.3829C264.553 96.2512 264.44 95.9256 264.572 95.6539L266.855 90.9393C266.986 90.6676 267.312 90.5544 267.584 90.6861C267.855 90.8179 267.968 91.1434 267.837 91.4151L265.554 96.1298C265.519 96.2056 265.466 96.2664 265.405 96.3197Z" fill="white"/>
<path d="M281.995 29.4424C281.902 29.5142 281.784 29.5635 281.655 29.5615C281.355 29.5637 281.108 29.3162 281.106 29.0168L281.093 23.7831C281.09 23.4837 281.333 23.2382 281.637 23.234C281.937 23.2318 282.184 23.4793 282.186 23.7787L282.2 29.0124C282.199 29.185 282.119 29.3406 281.995 29.4424Z" fill="white"/>
<path d="M302.374 36.4391C302.177 36.5934 301.898 36.6039 301.695 36.4379C301.457 36.2533 301.419 35.9076 301.603 35.6695L304.852 31.5654C305.039 31.332 305.382 31.2892 305.62 31.4738C305.858 31.6585 305.897 32.0041 305.712 32.2422L302.463 36.3463C302.438 36.3791 302.406 36.4091 302.377 36.4324L302.374 36.4391Z" fill="white"/>
<path d="M319.068 53.4168C319.005 53.4653 318.931 53.5016 318.851 53.5237L313.75 54.711C313.455 54.778 313.164 54.5988 313.097 54.3041C313.03 54.0094 313.209 53.718 313.504 53.651L318.605 52.4637C318.9 52.3967 319.191 52.5759 319.258 52.8706C319.308 53.0836 319.229 53.2944 319.065 53.4235L319.068 53.4168Z" fill="white"/>
</g>
<defs>
<clipPath id="clip0_80_354">
<rect width="266" height="303" fill="white" transform="translate(47 130)"/>
</clipPath>
<clipPath id="clip1_80_354">
<rect width="347" height="279" fill="white" transform="translate(6 72)"/>
</clipPath>
<clipPath id="clip2_80_354">
<rect width="76.5565" height="77.4192" fill="white" transform="translate(232 58.3992) rotate(-22.5829)"/>
</clipPath>
</defs>
</svg>
