<svg xmlns="http://www.w3.org/2000/svg" width="297" height="404" fill="none" xmlns:v="https://vecta.io/nano"><style><![CDATA[.B{fill:#181054}.C{stroke-miterlimit:10}.D{fill:#5349db}.E{fill:#6a61f1}.F{fill:#db6b93}.G{stroke:#db6b93}.H{stroke-width:1.5}.I{fill:#ff8abb}]]></style><path d="M148.503 341.193c57.743 0 104.553-4.021 104.553-8.982s-46.81-8.981-104.553-8.981-104.553 4.021-104.553 8.981 46.81 8.982 104.553 8.982z" class="B"/><g style="mix-blend-mode:multiply" opacity=".4"><path d="M120.635 267.919c-16.537-2.889-48.489-8.467-68.559-36.242-23.867-33.025-21.024-84.155 7.627-115.475 33.963-37.123 127.841-51.49 143.082 10.23 3.797-.894 22.165-4.812 38.057 6.17 16.93 11.697 18.78 31.822 19.541 40.154 2.424 26.333-11.495 46.446-16.085 52.873-27.368 38.346-81.731 49.605-123.663 42.283v.007z" fill="#ffe6c8"/></g><g fill="#fff"><path d="M109.536 370.997a1.31 1.31 0 0 0-.609-.986c-.357-.233-.794-.35-1.311-.35-.379 0-.71.061-.994.183s-.501.291-.66.506-.233.457-.233.73c0 .228.054.425.162.589a1.47 1.47 0 0 0 .426.405 3.09 3.09 0 0 0 .543.263l.522.163.868.234c.223.058.471.139.744.242s.538.243.789.421a2.15 2.15 0 0 1 .626.677c.164.275.246.614.246 1.014a2.25 2.25 0 0 1-.363 1.253c-.239.373-.59.669-1.052.889s-1.017.33-1.674.33c-.613 0-1.143-.099-1.591-.296s-.796-.473-1.052-.827-.397-.764-.43-1.232h1.068c.028.323.137.59.326.802a1.76 1.76 0 0 0 .727.468c.295.1.612.15.952.15.395 0 .75-.064 1.064-.192a1.83 1.83 0 0 0 .748-.543 1.29 1.29 0 0 0 .275-.818c0-.284-.079-.515-.238-.693a1.75 1.75 0 0 0-.626-.435c-.259-.111-.539-.208-.839-.292l-1.052-.3c-.668-.193-1.197-.467-1.587-.823s-.585-.823-.585-1.399c0-.478.13-.896.389-1.252s.612-.638 1.052-.835.937-.301 1.482-.301c.551 0 1.041.099 1.47.297s.768.462 1.019.801a2 2 0 0 1 .4 1.157h-1.002zm5.553-.133v.853h-3.392v-.853h3.392zm-2.403-1.568h1.006v6.239c0 .284.041.497.123.639s.193.233.324.281a1.29 1.29 0 0 0 .422.069c.111 0 .202-.006.273-.017l.17-.035.205.904a2.2 2.2 0 0 1-.286.077 2.13 2.13 0 0 1-.464.042 2.03 2.03 0 0 1-.836-.183c-.269-.122-.494-.308-.673-.558s-.264-.566-.264-.946v-6.512zm5.842 8.267c-.414 0-.791-.078-1.129-.234s-.607-.388-.805-.686-.299-.665-.299-1.091c0-.375.074-.679.222-.912a1.57 1.57 0 0 1 .592-.554 3.12 3.12 0 0 1 .818-.298l.908-.162.967-.115c.25-.029.432-.076.546-.141s.175-.179.175-.341v-.034c0-.42-.115-.747-.346-.98s-.572-.349-1.035-.349c-.48 0-.857.105-1.129.315s-.465.435-.576.673l-.954-.341c.17-.397.398-.707.682-.929a2.56 2.56 0 0 1 .937-.468 3.89 3.89 0 0 1 1.006-.137 3.99 3.99 0 0 1 .724.077 2.32 2.32 0 0 1 .797.302c.259.154.473.385.644.695s.255.725.255 1.244v4.313h-1.005v-.886h-.052c-.068.142-.181.294-.34.456a2 2 0 0 1-.635.413c-.265.114-.587.17-.968.17zm.154-.903c.397 0 .733-.078 1.005-.234s.483-.358.623-.606a1.54 1.54 0 0 0 .213-.779v-.921c-.043.051-.137.098-.282.141s-.306.075-.494.106l-.541.077-.422.051a3.89 3.89 0 0 0-.733.166 1.26 1.26 0 0 0-.545.337c-.137.148-.205.349-.205.605 0 .35.129.614.388.793s.592.264.993.264zm4.682.75v-6.546h.971v.989h.069c.119-.324.335-.587.647-.788s.665-.303 1.057-.303l.277.004.252.013v1.023c-.034-.009-.113-.021-.235-.038a2.29 2.29 0 0 0-.379-.03c-.318 0-.602.067-.852.2s-.443.313-.588.546-.213.492-.213.788v4.142h-1.006zm7.721-6.546v.853h-3.392v-.853h3.392zm-2.403-1.568h1.006v6.239c0 .284.041.497.123.639s.193.233.324.281a1.29 1.29 0 0 0 .422.069c.111 0 .202-.006.273-.017l.17-.035.205.904a2.2 2.2 0 0 1-.286.077 2.13 2.13 0 0 1-.464.042c-.284 0-.563-.061-.835-.183a1.66 1.66 0 0 1-.674-.558c-.176-.25-.264-.566-.264-.946v-6.512zm9.217 8.267c-.414 0-.791-.078-1.129-.234a1.94 1.94 0 0 1-.805-.686c-.199-.301-.299-.665-.299-1.091 0-.375.074-.679.222-.912a1.57 1.57 0 0 1 .592-.554c.248-.133.52-.233.819-.298l.907-.162.968-.115c.25-.029.431-.076.545-.141s.175-.179.175-.341v-.034c0-.42-.115-.747-.345-.98s-.573-.349-1.036-.349c-.48 0-.857.105-1.129.315s-.465.435-.576.673l-.954-.341c.17-.397.398-.707.682-.929a2.56 2.56 0 0 1 .937-.468 3.89 3.89 0 0 1 1.006-.137 3.99 3.99 0 0 1 .724.077 2.31 2.31 0 0 1 .797.302c.259.154.473.385.644.695s.255.725.255 1.244v4.313h-1.005v-.886h-.051c-.069.142-.182.294-.341.456a1.99 1.99 0 0 1-.635.413c-.264.114-.587.17-.968.17zm.154-.903c.398 0 .733-.078 1.005-.234s.483-.358.623-.606a1.54 1.54 0 0 0 .213-.779v-.921c-.043.051-.137.098-.282.141s-.306.075-.494.106l-.541.077-.422.051a3.89 3.89 0 0 0-.733.166 1.26 1.26 0 0 0-.545.337c-.137.148-.205.349-.205.605 0 .35.129.614.388.793s.592.264.993.264zm7.529-5.796v.853h-3.392v-.853h3.392zm-2.404-1.568h1.006v6.239c0 .284.041.497.123.639s.194.233.324.281a1.29 1.29 0 0 0 .422.069c.111 0 .202-.006.273-.017l.17-.035.205.904c-.068.025-.163.051-.286.077a2.13 2.13 0 0 1-.464.042c-.284 0-.563-.061-.835-.183a1.66 1.66 0 0 1-.674-.558c-.176-.25-.264-.566-.264-.946v-6.512zm-35.382 14.387v8.727h-1.057v-7.619h-.051l-2.13 1.414v-1.073l2.181-1.449h1.057zm5.357 8.846c-.642 0-1.189-.174-1.641-.524s-.797-.862-1.035-1.53-.358-1.48-.358-2.429c0-.943.119-1.748.358-2.416s.588-1.182 1.039-1.534 1-.533 1.637-.533 1.18.178 1.632.533.801.864 1.04 1.534.362 1.473.362 2.416c0 .949-.12 1.759-.358 2.429s-.584 1.178-1.036 1.53-.998.524-1.64.524zm0-.937c.636 0 1.13-.307 1.483-.921s.528-1.488.528-2.625c0-.755-.081-1.399-.243-1.93s-.389-.936-.69-1.215-.658-.417-1.078-.417c-.631 0-1.124.311-1.479.933s-.533 1.496-.533 2.629c0 .756.08 1.398.239 1.926s.388.931.686 1.206a1.55 1.55 0 0 0 1.087.414zm8.045 3.272v-9h.972v1.04h.119l.307-.434c.133-.179.324-.338.571-.478s.588-.213 1.014-.213c.551 0 1.037.138 1.458.414s.748.666.984 1.171.354 1.103.354 1.79c0 .693-.118 1.294-.354 1.803s-.563.898-.98 1.176-.899.413-1.445.413c-.42 0-.757-.069-1.01-.209s-.447-.302-.584-.481l-.315-.452h-.085v3.46h-1.006zm.989-5.727c0 .495.072.931.217 1.308s.357.669.635.883.619.315 1.023.315c.42 0 .771-.111 1.052-.333a2.03 2.03 0 0 0 .64-.903c.144-.381.217-.804.217-1.27 0-.46-.071-.875-.213-1.244s-.351-.666-.635-.882-.635-.328-1.061-.328c-.409 0-.753.103-1.031.311s-.489.491-.631.861-.213.794-.213 1.282zm6.324 3.273v-6.546h.971v1.023h.085a1.65 1.65 0 0 1 .661-.814c.304-.196.669-.294 1.095-.294.432 0 .791.098 1.078.294s.516.465.678.814h.068a1.91 1.91 0 0 1 .754-.805c.336-.202.738-.303 1.206-.303.585 0 1.064.183 1.436.55s.559.93.559 1.7v4.381h-1.006v-4.381c0-.483-.132-.828-.396-1.035s-.576-.311-.934-.311c-.46 0-.816.139-1.069.417s-.38.625-.38 1.049v4.261h-1.022v-4.483c0-.372-.121-.672-.362-.899s-.553-.345-.934-.345c-.261 0-.505.069-.733.208s-.406.333-.545.58-.205.527-.205.848v4.091h-1.005z"/><path d="M108.965 359.567c0-2.508-1.788-4.284-4.152-4.284-2.352 0-4.152 1.776-4.152 4.284 0 2.52 1.8 4.284 4.152 4.284 2.364 0 4.152-1.764 4.152-4.284zm-7.44 0c0-2.196 1.428-3.54 3.288-3.54s3.288 1.344 3.288 3.54-1.428 3.552-3.288 3.552-3.288-1.356-3.288-3.552zm8.593 0c0 2.52 1.776 4.272 4.104 4.272 1.872 0 3.264-.936 3.864-2.52h-.984c-.468 1.092-1.452 1.788-2.88 1.788-1.836 0-3.24-1.356-3.24-3.54 0-2.196 1.404-3.552 3.24-3.552 1.428 0 2.412.696 2.88 1.812h.984c-.6-1.608-1.992-2.544-3.864-2.544-2.328 0-4.104 1.764-4.104 4.284zm9.042-3.492h2.34v7.692h.84v-7.692h2.328v-.696h-5.508v.696zm14.755 3.492c0-2.508-1.788-4.284-4.152-4.284-2.352 0-4.152 1.776-4.152 4.284 0 2.52 1.8 4.284 4.152 4.284 2.364 0 4.152-1.764 4.152-4.284zm-7.44 0c0-2.196 1.428-3.54 3.288-3.54s3.288 1.344 3.288 3.54-1.428 3.552-3.288 3.552-3.288-1.356-3.288-3.552zm-20.654 19.872c0 1.008-.72 1.62-1.932 1.62h-2.004v-3.276h1.968c1.2 0 1.968.648 1.968 1.656zm-.204-3.864c0 .936-.636 1.512-1.776 1.512h-1.956v-3h1.92c1.212 0 1.812.588 1.812 1.488zm1.044 3.948c0-1.056-.756-1.92-1.692-2.088.804-.228 1.5-.84 1.5-1.944 0-1.176-.84-2.112-2.604-2.112h-2.82v8.388h2.904c1.764 0 2.712-.984 2.712-2.244zm5.924-6.156h-4.38v8.4h4.38v-.696h-3.54v-3.18h3.18v-.696h-3.18v-3.132h3.54v-.696zm6.168 2.448c0 1.02-.612 1.764-1.98 1.764h-1.692v-3.492h1.68c1.416 0 1.992.672 1.992 1.728zm-4.512-2.436v8.388h.84v-3.504h1.548l2.076 3.504h1.008l-2.16-3.564c1.416-.264 2.064-1.236 2.064-2.388 0-1.38-.912-2.436-2.856-2.436h-2.52zm10.936 8.388h.852v-8.604h-2.04v.756h1.188v7.848zm2.723-4.38c0 2.508.552 4.404 2.916 4.404 2.352 0 2.916-1.896 2.916-4.404 0-2.46-.564-4.344-2.916-4.344-2.364 0-2.916 1.884-2.916 4.344zm5.004 0c0 2.016-.264 3.636-2.088 3.636s-2.088-1.62-2.088-3.636c0-1.944.264-3.588 2.088-3.588s2.088 1.644 2.088 3.588zm1.971-3.312h2.34v7.692h.84v-7.692h2.328v-.696h-5.508v.696zm12.222 7.692h.84v-8.388h-.84v3.768h-4.548v-3.768h-.84v8.388h.84v-3.924h4.548v3.924z"/></g><g fill="#e1c8ff"><path d="M1.953 286.917S9.4 352.021 77.888 322.22c0 0-12.849-65.606-75.934-35.303z"/><path d="M77.727 322.432c-27.903-22.113-75.36-35.129-75.838-35.257l.142-.515c.477.129 48.044 13.17 76.031 35.354l-.329.418h-.006z" style="mix-blend-mode:multiply"/><path d="M18.71 292.27l-13.423 7.65-.264-.463 13.068-7.451-2.779-10.738.516-.135 2.882 11.137zm13.268 4.98l-.296.077c-11.843 3.204-21.714 13.17-21.811 13.267l-.38-.373c.097-.103 9.909-10.005 21.759-13.331-.858-2.053-5.719-14.071-3.733-17.873l.471.244c-2.012 3.854 3.81 17.564 3.868 17.7l.122.283v.006zm12.939 5.527l-.38.07c-22.597 4.208-27.226 15.911-27.271 16.027l-.503-.186c.045-.123 4.7-11.974 27.297-16.297-1.438-2.464-9.716-17.211-5.112-23.117l.419.328c-4.7 6.035 5.242 22.679 5.345 22.847l.2.328h.007zm12.488 6.208l-.393.052c-20.682 2.715-31.849 15.801-31.958 15.93l-.413-.341c.11-.135 11.257-13.209 31.913-16.065-1.476-2.664-10.264-19.102-6.505-25.8l.464.257c-3.862 6.885 6.589 25.433 6.699 25.62l.193.341v.006zm11.206 6.588l-.38.039c-22.378 2.477-32.216 13.447-32.313 13.556l-.4-.347c.097-.11 9.948-11.105 32.281-13.691-1.186-2.458-7.898-16.838-6.763-24.378l.529.077c-1.193 7.92 6.802 24.236 6.879 24.403l.168.341z" style="mix-blend-mode:multiply"/><path d="M287.955 295.59s-49.998-37.033-73.691 29.602c0 0 53.846 33.623 73.691-29.602z"/><path d="M214.303 325.456l-.078-.528c33.416-4.954 73.195-29.312 73.594-29.563l.284.457c-.4.244-40.269 24.667-73.794 29.634h-.006z" style="mix-blend-mode:multiply"/><path d="M282.978 308.934l-9.607-5.224 3.392-14.245.522.129-3.301 13.839 9.251 5.031-.257.47zm-6.596 9.606c-1.367-3.88-14.641-8.731-14.777-8.783l-.29-.103.142-.27c5.448-10.255 4.932-23.528 4.926-23.663l.535-.026c0 .135.522 13.318-4.842 23.663 2.024.76 13.462 5.173 14.815 9.001l-.509.181zm-7.607 7.649c-1.142-7.148-19.123-11.059-19.303-11.098l-.381-.084.207-.328c11.714-18.33 6.595-29.106 6.544-29.216l.483-.238c.052.109 5.261 11.002-6.37 29.422 2.702.618 18.226 4.452 19.342 11.452l-.529.084.007.006zm-9.594 5.482c-2.269-7.122-21.907-11.915-22.107-11.96l-.387-.09.232-.322c11.515-16.046 9.671-32.234 9.652-32.395l.535-.064c.019.161 1.869 16.336-9.516 32.452 2.875.727 19.896 5.302 22.107 12.225l-.516.161v-.007zm-12.572 2.586c-4.719-5.951-21.211-10.995-21.378-11.047l-.368-.109.232-.309c12.772-17.062 11.541-30.959 11.528-31.095l.535-.051c.013.142 1.263 14.064-11.399 31.166 2.534.797 16.795 5.462 21.282 11.117l-.419.335-.013-.007z" style="mix-blend-mode:multiply"/></g><path d="M271.514 228.472s15.441-11.864 0-28.946c0 0-17.794 12.045 0 28.946z" class="D"/><path d="M193.175 325.218c11.45-5.289 22.024-12.057 31.424-20.112 29.431-25.227 41.461-57.506 46.367-80.14l-.599-.129c-4.887 22.544-16.866 54.688-46.168 79.805-9.355 8.017-19.883 14.753-31.282 20.023l.258.553z" class="B"/><g class="D"><path d="M266.492 240.214s.065-20.106-20.083-18.304c0 0-.986 20.105 20.083 18.304zm-7.717 17.899s2.044-18.15-16.331-18.504c0 0-2.881 18.06 16.331 18.504zm-8.091 15.776s2.456-13.357-11.16-14.566c0 0-3.069 13.247 11.16 14.566zm-7.324 9.914s1.663-14.759-13.275-15.049c0 0-2.34 14.682 13.275 15.049zm12.282 5.688s-9.858-8.725-17.685 1.923c0 0 9.465 9.175 17.685-1.923zm-8.981 20.807s-8.111-14.779-22.166-5.315c0 0 7.434 15.152 22.166 5.315zm-36.304-17.32s-8.62 12.391 4.597 19.842c0 0 9.187-11.999-4.597-19.842zm42.158-21.753s11.018 9.586 19.599-2.303c0 0-10.58-10.089-19.599 2.303zm-21.372 27.164s5.286-13.601-8.827-17.616c0 0-5.912 13.357 8.827 17.616z"/><path d="M282.984 253.59s-13.662-12.147-24.57 2.612c0 0 13.107 12.778 24.57-2.612zm8.974-22.525s-17.91-9.207-25.472 9.516c0 0 17.491 10.03 25.472-9.516zM44.382 257.701s-18.097-10.423-4.12-30.76c0 0 20.624 10.281 4.12 30.76z"/></g><path d="M78.017 310.549l4.526 3.976c4.423 3.661 9.2 7.006 14.19 9.946l.335-.566a108.8 108.8 0 0 1-14.106-9.882c-17.807-14.74-30.895-35.599-37.87-60.324l-.632.18c6.408 22.712 17.955 42.181 33.557 56.676v-.006z" class="B"/><g class="D"><path d="M51.39 269.469s-2.927-21.361 18.748-22.294c0 0 3.907 21.232-18.748 22.294zm7.866 18.053s-4.752-18.999 14.725-21.978c0 0 5.628 18.787-14.725 21.978zm14.196 17.487s-4.507-13.852 9.787-17.062c0 0 5.145 13.646-9.787 17.062zm13.584 12.552s-9.567-12.745 4.094-21.103c0 0 10.154 12.308-4.094 21.103zm-24.447-1.248s7.376-12.025 18.742-3.551c0 0-6.821 12.366-18.742 3.551zm6.06-15.428s-10.348 11.748-21.159.328c0 0 9.813-12.224 21.16-.328z"/><path d="M32.997 287.651s12.798-14.843 26.485-.702c0 0-12.121 15.435-26.485.702zm-9.974-24.301s17.723-12.321 28.425 6.511c0 0-17.162 13.132-28.425-6.511z"/></g><g class="E"><path d="M88.571 317.368c50.848 40.559 131.199 16.889 151.823-44.541 21.031-55.292-17.207-120.435-75.863-128.998-12.005-2.034-24.364-1.77-36.291.669-1.605.36-3.269.727-4.874 1.164-.458.11-.909.232-1.354.367-11.237 3.101-21.92 8.3-31.365 15.177-52.331 36.783-53.247 118.132-2.063 156.156l-.013.006z" style="mix-blend-mode:screen"/><path d="M243.515 244.029l-.033.972-.399 5.591-.155 1.37-.232 1.834-.174 1.222-.039.219-.277 1.782-.69 3.584-.322 1.428-.387 1.666-.297 1.133-.245.933-.883 3.036-.464 1.474-.78 2.297-.716 1.955-.509 1.319a90.37 90.37 0 0 1-7.543 14.824l-.709 1.107-3.862 5.539c-4.907 6.543-10.786 12.54-17.575 17.764-5.01 3.854-10.283 7.135-15.757 9.824-3.385 1.68-6.853 3.127-10.367 4.343-1.818.65-3.662 1.223-5.512 1.744-4.442 1.267-8.955 2.187-13.494 2.766-2.598.341-5.209.567-7.814.682-16.608.734-33.261-2.953-48.083-10.815l-2.018-1.1c-3.874-2.168-7.594-4.626-11.166-7.373-2.334-1.795-4.603-3.719-6.782-5.759a91.78 91.78 0 0 1-6.138-6.318c-1.373-1.544-2.708-3.159-3.991-4.812a94.04 94.04 0 0 1-6.421-9.439c-.148-.231-.277-.45-.419-.688-.045-.084-.09-.154-.135-.232-.129-.225-.245-.45-.38-.675-.187-.322-.374-.643-.541-.972l-.703-1.293-.812-1.557-.883-1.782c-.019-.058-.051-.103-.071-.154l-.445-.946-.896-1.982-.335-.778-.903-2.194-.761-1.988c-.174-.438-.329-.862-.471-1.293l-.593-1.705c-.071-.245-.155-.483-.239-.721-.026-.097-.052-.187-.09-.277-.097-.341-.2-.675-.309-1.01l-.303-1.003-.619-2.207c-.039-.11-.058-.213-.084-.322l-.535-2.136-.193-.804-.458-2.136-.483-2.555-.413-2.567c-.361-2.477-.632-4.96-.787-7.444a93.04 93.04 0 0 1-.11-10.384l.077-1.473.193-2.567a64.95 64.95 0 0 1 .264-2.567l.155-1.281.367-2.547.303-1.796.155-.823.316-1.57c.032-.167.065-.334.11-.495a60.96 60.96 0 0 1 .419-1.873 29.66 29.66 0 0 1 .361-1.492c.09-.412.206-.817.309-1.216l.445-1.602.451-1.538a23.08 23.08 0 0 1 .316-1.016l.735-2.246c.065-.219.142-.425.213-.63.045-.097.071-.2.11-.29.187-.54.387-1.074.6-1.621 1.102-2.953 2.36-5.849 3.772-8.686l.677-1.325h.006c.999-1.93 2.05-3.809 3.198-5.662 3.842-6.35 8.51-12.302 13.984-17.693 2.386-2.361 4.926-4.613 7.621-6.756l1.09-.855 2.037-1.532c1.219-.887 2.444-1.737 3.675-2.547l1.451-.933c.199-.135.412-.258.612-.386 1.251-.792 2.534-1.532 3.817-2.239.528-.303 1.051-.586 1.586-.869 1.644-.881 3.32-1.711 5.003-2.483l2.095-.933c2.45-1.049 4.932-1.995 7.446-2.818 1.084-.354 2.147-.689 3.218-.998.348-.109.689-.205 1.044-.302h.013c.406-.122.812-.232 1.225-.322a.7.7 0 0 1 .084-.019l1.025-.277 2.243-.534a38.09 38.09 0 0 1 1.387-.296 37.53 37.53 0 0 1 1.624-.321l1.489-.27c.097-.02.2-.026.304-.045a28.89 28.89 0 0 1 .825-.142c.728-.122 1.444-.225 2.172-.328h.097c1.103-.161 2.199-.29 3.301-.393l.187-.012a94.82 94.82 0 0 1 5.596-.386l2.876-.065c1.811-.006 3.61.039 5.422.129.451.019.909.038 1.36.077l1.354.097c.303.019.599.051.89.083a66.3 66.3 0 0 1 3.178.335c1.347.154 2.688.36 4.036.585 8.097 1.364 16.021 3.783 23.538 7.238 1.135.515 2.257 1.055 3.372 1.622 3.308 1.672 6.525 3.538 9.632 5.623 2.515 1.679 4.945 3.493 7.298 5.436.69.56 1.367 1.133 2.038 1.731a82.54 82.54 0 0 1 3.339 3.056c.368.341.722.695 1.083 1.055 1.464 1.454 2.889 2.96 4.275 4.53 1.321 1.512 2.617 3.043 3.868 4.658a108.55 108.55 0 0 1 3.714 5.153 83.72 83.72 0 0 1 1.205 1.834 4.65 4.65 0 0 0 .142.225c1.502 2.374 2.895 4.793 4.152 7.251l.709 1.396a72 72 0 0 1 1.045 2.213c.038.052.064.129.09.181.2.424.387.862.574 1.28l.509 1.177.754 1.834.245.643c.071.161.129.335.187.489a106.02 106.02 0 0 1 1.103 2.999c.045.135.09.276.142.405l.38 1.152.316 1.01.741 2.483a55.24 55.24 0 0 1 .523 1.93l.38 1.506c.013.045.019.077.032.109.896 3.764 1.56 7.566 1.979 11.382.484 4.387.658 8.788.523 13.183v-.007z"/></g><path d="M241.007 219.465c-.007-.039-.02-.065-.033-.11l-.38-1.505c-1.218 1.531-2.443 2.966-5.003 2.323-.864-.399.232-2.079-.638-3.102l-1.032 1.744-.696-2.284c-.303-.759-.554-1.699-1.09-2.155-1.27-1.075-1.734-2.574-2.404-3.867.793-1.776 2.024-.766 3.062-.843.309.566.612 1.01.806 1.506.806 1.981 2.211 3.101 3.939 3.963.89.444 1.734.83 2.527.778l-.741-2.483-.316-1.01-.38-1.152-.142-.405-1.103-2.998-.187-.489-.245-.644-.754-1.833-.509-1.178-.574-1.28c-.026-.052-.052-.129-.09-.18l-1.045-2.214-.709-1.396-4.152-7.251-.142-.225-1.205-1.833-3.714-5.154-3.868-4.658-4.275-4.529-1.083-1.056-3.339-3.056-2.038-1.73-7.298-5.437c-3.107-2.085-6.324-3.95-9.632-5.623-1.115-.566-2.237-1.107-3.372-1.621-.219.051-.438.109-.657.186-.2.064-.464.109-.677.071-1.238-.238-1.896.264-2.347.817-.838.277-1.592-.592-2.256.122l.818.38c-.599.354-1.121.643-1.592.971-.432.303-.941.599-1.18.991-.619 1.004-1.818 1.589-2.985 2.149-1.296.618-2.746 1.049-4.307 1.641.052.913-.051 1.82.187 2.676.394 1.428 1.799 1.782 3.314.907.316-.173.58-.437.922-.553.426-.154.909-.212 1.335-.309l1.173 2.304 1.161 2.181 3.397-1.397c0-.167-.019-.379 0-.591.039-.94.09-1.808 1.438-2.143.354-.096.541-.598.857-.965l-1.863-.907c-.187-1.261.335-2.046 1.67-2.548.883-.335 1.728-.631 1.992-1.589.31-1.075 2.463-1.049 3.636-.026l-3.507 2.194.89 2.194c.864.656 1.799.791 2.83.508.587-.154 1.199-.251 1.799-.341 1.276-.173 2.54-.257 3.933.528-1.612.264-2.927.778-4.488.579-.612-.084-1.27.199-2.23.379l1.508 1.442c-.135.36-.29.791-.496 1.396l-2.012-1.133c-2.153.644-.49 2.066-.748 3.037l-1.882 1.055a2.81 2.81 0 0 0-2.83-.373l-2.573 1.004c-1.534-.849-1.521-.843-3.758-.386l-1.464-1.268 1.225-.424c-.361-.225-.606-.393-.645-.418l.258-2.079-2.05.689c-.78 1.248.696 2.335.239 3.674-1.541.366-3.295.244-4.584 1.325-.278.508-.529.984-.755 1.428l-2.849 1.017c-.426.72-1.051 1.184-1.593 1.724-.767.772-1.573.225-2.353.245-.258 1.428-.4 1.55-1.786 1.106-.767-.244-1.289.122-2.211.483l2.172.984c.916.457 1.889 2.052 1.709 2.889-.168.811-.4 1.634-.593 2.464-.155.682-.516 1.094-1.27.997l-4.707-.656c-1.296-.206-2.501-.006-3.642.759-.078 1.055-.394 2.181-.149 3.134.361 1.396-.851 2.129-1.031 2.779l.541 3.365c1.503-.039 3.321-.232 3.405 2.252-1.148.45-1.49 1.621-2.128 2.547-.451.65-.78 1.59-1.386 1.918-1.96 1.094-2.502 2.991-2.959 5.037-.497 2.149-1.503 3.796-3.566 4.523-.612.213-1.283.702-1.657 1.274-2.185 3.294-3.977 6.865-5.061 11.163.639.849.613 2.007-.006 3.256-.174.347-.135.945-.013 1.351.555 1.769.277 3.468-.387 5.115-.883 2.187.007 4.182.89 5.796l3.211 6.061c.631 1.184 1.179 2.381 2.14 3.217 2.173 1.898 4.397 3.719 6.589 5.54.645-.354 1.128-.522 1.509-.843 1.721-1.429 3.52-1.982 5.525-.656.651.424 1.225.193 1.754-.316 1.469-1.422 3.268-1.821 5.131-2.065 2.837-.367 3.463-.006 4.72 2.818.096.212.245.392.38.592 1.341.225 2.701.334 4.004.714 1.631.476 2.198 1.892 1.747 3.706-.155.656-.426 1.448-.239 2.001.303.907.013 1.531-.335 2.226l-.799 1.621 5.815 11.009c.432.849.87 1.962.716 2.818-.22 1.235.129 2.232.29 3.339.109.759.116 1.75-.245 2.303-1.238 1.866-1.502 3.97-1.96 6.009-.361 1.564-.277 3.076.296 4.485.639 1.576 1.354 3.114 2.244 4.503.754 1.171 1.219 2.317 1.154 3.655-.11 2.31.916 4.343 1.644 6.292.529 1.416 1.328 2.812 2.044 4.137.509.939.748 1.782.129 2.625 1.122 1.885 1.811 2.239 3.449 1.885.419-.096.787-.379 1.206-.495.586-.167 1.257-.438 1.785-.335 1.419.283 2.631-.09 3.888-.637 1.812-.785 3.256-1.943 4.513-3.397.851-.984 1.599-2.123 3.043-2.573.226-.078.529-.316.567-.502.297-1.383 1.664-2.638.839-4.279l4.242-2.715-.065-4.889c.013-.554.084-1.326.452-1.66 2.185-2.033 4.164-4.382 6.821-5.977.586-.361 1.231-1.159 1.341-1.815.348-2.02.457-4.06.619-6.208-1.374-1.306-1.27-1.345-1.799-3.475-.297-1.203.039-2.419-.168-3.545-.232-1.351.103-2.412.658-3.525 1.18-2.375 1.979-4.929 3.391-7.251 1.599-2.625 3.256-5.077 5.661-6.679 2.92-1.962 4.506-4.928 5.505-8.46.426-1.519.916-3.011 1.361-4.517.329-1.119.586-2.252.148-3.21-1.799.457-3.43.997-5.1 1.241-1.154.174-2.288.187-3.204 1.352-.922-1.165-2.321-1.705-2.095-3.629.032-.277-.316-.734-.587-.927-1.857-1.267-2.746-3.364-3.713-5.829l-.838 1.429c-.826-.856-1.245-1.828-1.509-2.934-.168-.682-.303-1.486-.703-1.95-1.16-1.37-1.547-3.011-1.831-4.767-.129-.817-.419-1.75-.909-2.329-.973-1.126-1.934-2.13-1.631-3.88.039-.238-.232-.553-.374-.823l-1.921-3.687c-.729-1.332-1.548-2.612-2.231-3.957-.451-.913-.728-1.923-1.218-3.229 1.605 1.042 1.476 3.204 3.107 3.583l.264-.424c.69.617 1.728 1.119 1.999 1.91.632 1.828 2.695 2.677 2.618 4.929 0 .225.483.553.786.714 1.386.727 2.044 1.994 1.941 3.603-.097 1.634.69 2.49 1.592 3.622 1.547 1.924 2.727 4.221 4.036 6.376.11.174.097.47.077.708-.187 2.226.684 4.195 1.161 6.279l1.631.431 3.011-1.396c.922-.437 1.857-.843 2.746-1.351.845-.483 1.644-1.062 2.45-1.621.58-.399 1.419-.663 1.67-1.268.555-1.338 1.605-1.795 2.579-2.033 1.315-.315 2.198-1.287 3.036-2.194A94.14 94.14 0 0 0 241 219.478l.007-.013zm-27.813-28.316c-1.083-.34-2.154-.746-3.237-1.08-1.263-.38-2.553-.496-3.617.251-.883.611-1.753.829-2.856.431l-1.07 1.409-3.333.379c.729.869 1.148 1.499 1.264 2.542.206 1.872 1.889 3.184 3.842 3.313.252.019.625-.006.754-.18.768-.978 1.522-.644 2.27.096.825.811 1.573.631 2.424.148.735-.424 1.573-.649 2.482-1.003.851 3.365.097 6.292-1.089 9.213-.51 1.261-1.786.778-2.799.643-.735-.096-1.656-.592-2.172-.289-1.573.907-3.024.437-4.578-.045-.651-.213-1.386-.045-1.992-.335-1.502-.823-2.972-1.763-4.526-2.432-.98-.424-2.366.734-2.656 1.988-.097.438.045.952-.097 1.351-.193.509-.483 1.191-.876 1.351-.407.161-1.238-.045-1.47-.405-.703-1.1-1.561-1.364-2.702-1.351-.432 0-1.031-.508-1.283-.952-.528-.965-1.289-1.474-2.218-1.499-1.431-.045-2.385-.734-3.017-1.988-.129-.258-.296-.496-.464-.779l-1.399 1.351c-.986-1.351.438-1.84.632-2.715l-.574-3.481-4.539.02c-.271 0-.58.045-.806.18-1.457.894-2.901 1.152-4.545.521-.535-.206-1.463.245-2.069.631-1.889 1.216-3.914 1.878-6.093 2.136-1.354.154-2.463 0-3.224-1.191.71-1.434 1.986-1.679 3.301-1.769 1.818-.129 3.211-.952 4.165-2.548.142-.231.393-.495.374-.701-.271-2.4 1.116-3.391 3.146-3.963.987-.283 1.161-.824 1.109-2.477.838-.714 1.812-1.03 2.805-.566.915.424 1.56.148 2.424-.251.864-.386 1.476-1.403 2.701-1.088 1.128.283 1.141 1.326 1.735 1.956 1.076 1.145 2.056 2.419 3.79 2.889 1.245.335 2.199 1.293 2.831 2.477.554 1.023.341 1.776-.742 2.11-1.018.316-2.101.425-3.281.65.728.927 1.708 1.319 2.959 1.602-.052-1.743 1.805-2.123 2.237-3.712-.419-.631-1.07-1.493.2-2.265l1.373.837c.045-.142.136-.303.11-.329-.413-.347-.793-.791-1.27-.99-2.528-1.043-4.236-3.011-5.932-4.884-.857-.952-.586-1.718.626-2.303l1.715 1.158c.161.109.451.129.509.264.799 1.737 2.688 2.194 4.107 3.243.928.688 1.818 1.254 1.915 2.663.058.837.689 1.769 1.308 2.445.6.663 1.283 1.39 2.437 1.274.6-.052 1.251.334 2.115.212-.458-.444-.999-.83-1.347-1.344-.316-.483-.439-1.101-.761-1.95l1.728.341c.432-1.004 1.089-1.634 2.443-.894.451.244 1.18.077 1.741-.052.58-.135 1.109-.444 1.747-.714l-1.547-1.795c.864-2.721 1.856-5.018 3.726-6.176l2.083.939 1.225 2.284 3.346-1.132 6.885 3.808.529 1.693c-1.489 1.19-3.108 1.396-4.906.817l-.026.012zM60.932 213.153l.735-2.245.213-.631c.045-.096.071-.199.11-.289l.6-1.622c1.102-2.953 2.36-5.848 3.771-8.685l.677-1.326 3.198-5.668a91.28 91.28 0 0 1 13.977-17.693c-.522.978-1.547 1.692-1.56 2.696 0 .109-.58.418-.948.675l.722 2.265c2.147-1.402 3.166-3.313 4.255-5.327l1.767-.83 2.527-1.428c1.341-.94 1.644-1.686 1.393-2.915.064-.109.116-.251.206-.309 1.483-.939 2.656-2.123 3.72-3.423.69-.836 1.451-1.151 2.334-.913.432.116 1.09-.077 1.651-.155l1.231-.244.348 1.422 1.386.141-1.805 2.124.851.823c1.941-.154 3.333-1.756 5.029-2.535l.226 2.632c-.078.978-1.625 2.097-.658 3.178.909.045 1.954.064 1.921 1.447-.013.329.561.496.929.779-.626 1.126-1.419 1.853-2.592 2.335-.864.354-1.683.998-2.476 1.487-.084.81.084 1.209.722 1.184.884-.026.839.624.735 1.344l-.245 1.66c-.09.759-.509 1.049-1.276 1.042l-.032-1.145-4.488-.167c.291-1.538 1.78-1.988 2.476-3.121-1.405-.849-3.12.264-4.706.592l-.193.817c-1.199.747-1.212-.656-2.173-.701-2.224 1.281-4.797 2.033-6.931 4.343 2.334-1.023 4.61-2.966 7.027-2.786.226.02.367.29.78.624l-1.85.882.219 1.814c.271.019.767-.071 1.044.122.168.116 0 .695-.026 1.12 1.09.508 1.986-.637 3.314-1.712-.348.805-.425 1.3-.683 1.506a5.02 5.02 0 0 1-1.554.856c-1.689.527-3.353 1.08-4.906 2.348-.161.135-.425.09-.78.154.496-1.782 2.237-1.505 2.934-2.843-.89-.644-1.921-.013-2.934.54l-2.54 1.396-3.211 1.879c-.915.605-1.096 1.164-1.044 2.709-2.708-.123-5.132 1.029-7.182 4.342l-.271-1.293c-.484 1.21-.561 2.426-1.638 3.378l.271-2.207c-1.064 1.158-1.173 2.278-1.444 3.404-.245 1.01-.948 1.898-1.767 3.011-1.47.971-3.494 1.666-4.79 3.699-.232.367-.683.463-.993.766-1.225 1.184-2.173 2.593-2.147 4.684l.148 2.953c.174 1.769-.155 3.371-1.077 5.205-.516-2.066-1.599-3.378-1.18-5.649.245-1.3-.406-2.252-1.36-2.49l.013-.026zm37.735-49.849c-.161-.045-.316-.116-.464-.219.728-.367 1.302-.688 1.915-.714.18-.013.367 0 .554.058 1.012.27 2.14-.322 2.779-1.248.503-.155 1.038-.258 1.547-.47 1.199-.508 1.618-1.19 1.135-1.827l5.003-2.484 1.766.978-1.992 1.055c.251.232.348.406.542.489l2.92 1.236-3.61 1.602-1.122-1.525-1.406 1.364c.181.663 1.026 1.261-.773 2.451-.832.457-1.232-.469-2.424-.437l.902 1.306c-1.025.521-1.824.585-2.166-.065-.277-.514-.754-.373-1.412-.07-.039-.509.213-1.023-.155-1.422-.406-.438-.689-.611-1.547-.303-.657.245-1.373.438-1.992.251v-.006zm18.851 120.879c-.483.444-.799 1.222-.947 1.936-.207 1.023-.542 1.821-1.619 2.033l.258 2.375c.535 3.03.452 5.848-.064 8.486-.187.926-.297 1.872-.413 2.805-.116 1.042-.541 1.641-1.65 1.576-1.116-.064-2.083.219-2.818.94-.212.218-.554.334-.864.398-1.592.335-2.333 1.409-2.172 3.166.019.186.019.38.103.553 1.077 2.406.793 4.247-.355 5.739-1.147-.489-1.192-.476-1.186.483l.065 2.753c-.046 1.693-.71 2.098-2.631 1.641-.857-.199-1.721-.54-2.959-.939 1.16.997 1.966 1.82 2.888 2.406.761.483 1.032.92 1.051 1.518 0 .161 0 .316-.026.464-3.874-2.169-7.594-4.626-11.166-7.374a92.02 92.02 0 0 1-6.782-5.758 91.78 91.78 0 0 1-6.138-6.318c-.123-.341-.303-.701-.303-.997 0-2.053-1.122-4.144-1.754-6.26-.29-.991-.774-1.77-1.592-2.361l-6.544-4.794a5.82 5.82 0 0 1-.638-.527c-.045-.084-.09-.155-.135-.232-.129-.225-.245-.45-.38-.675-.187-.322-.374-.644-.541-.972l-.703-1.293-.812-1.557-.883-1.782c-.019-.058-.051-.103-.071-.155l-.445-.946-.896-1.981-.335-.779-.903-2.194-.761-1.988c-.174-.437-.329-.862-.471-1.293l-.593-1.705c-.071-.244-.155-.482-.239-.72l.677-1.171-1.167-1.3c.342-2.02.393-4.092 1.741-5.449.69-.695 1.18-1.847 1.651-2.909.245-.553.335-1.331.348-2.026.032-1.377-.026-2.76-.052-4.568-.187-.303-.574-.972-.967-1.622l.529-1.254-1.322-1.268c-.806.663-1.515 1.332-1.206 3.256-1.431-1.377-3.03-1.441-3.933-3.5-.123-.277-.329-.47-.574-.643a93.06 93.06 0 0 1-.11-10.385c.896-.161 1.502.676 2.192 1.577-1.083 3.512-2.095 6.993.716 10.358.574-.225 1.444-.457 2.263-.914 1.315-.739 1.779-.572 2.618 1.287.084.187.142.399.303.85.619-.895 1.122-1.5 1.509-2.233.4-.759.69-1.641.877-2.085l3.952-2.464c-.052 1.454-.529 2.973.213 4.768.123-.714.148-1.1.245-1.448.155-.508.309-1.055.567-1.467.419-.688.915-1.28 1.444-2.001l.922 1.351c.709 1.03 1.522 1.628 2.643 1.532 1.496-.129 3.017-.026 4.449-.02l1.206 1.802c.226.321.574.56.716.933.329.836.864 1.132 1.496 1.441.509.251 1.032.688 1.386 1.229.677 1.029 1.238 2.194 1.863 3.313 1.102-.154 2.07-.405 3.043-.399.638 0 1.425.135 1.902.618 1.122 1.145 2.398 2.136 3.12 3.899.445 1.087 1.044 2.078 1.683 3.307-.6 1.531-.032 2.818 1.399 3.68l-.226 2.593c.606-.714.992-1.088 1.296-1.544.542-.805 1.161-.805 1.98-.431 1.457.675 2.488 1.846 3.081 3.866 1.522-1.319 3.056-.714 4.617-.038.483.206 1.005.289 1.521.366 1.399.219 2.611.863 3.656 2.182.49.617 1.179 1.158 1.856 1.434 1.058.425 1.58 1.248 1.741 2.362.426 2.843.671 5.571-1.405 7.476l-.033-.013zm45.575-134.461c-2.643-.142-5.39 0-7.975-.18.019-.052.039-.11.052-.174l2.263-.18c-1.367-.2-2.728-.405-4.165-.38-3.772.078-7.563.174-11.47.509-1.831.154-3.72.289-5.448.244-1.25-.038-2.514-.045-3.803.007l-1.625.308-1.386.309-2.244.534-1.025.277c-.039.006-.058.013-.084.019a20.59 20.59 0 0 0-1.218.322h-.02c-.354.096-.696.199-1.044.302a85.42 85.42 0 0 0-3.198.997c.045 0 .091-.019.142-.019 1.522-.244 2.946-.302 4.255-.148 1.135.135 1.09.547.993 1.383-.084.676-.909 1.088-1.386 1.648 1.354.083 1.392.115 1.683.727l-1.348-.097c-.599.322-1.051.598-1.554.894.381.341 1.084.464 1.586.045.755-.617.916-.308 1.341-.083-.56.579-1.012 1.01-2.005.978-1.366-.045-2.089.527-2.862 1.589-.671.933-.587 1.763-.703 2.644-.11.862.045 1.705.219 2.548.052.232.503.38.858.425.483.058 1.038-.052 1.18-.065.522.483.773.991 1.263 1.126.626.167 1.09-.463 1.573-.862 1.18-.978 1.999-2.226 3.682-2.728.406-.122.889-.476 1.121-.785.574-.753 1.438-1.074 2.321-1.39.677-.238 1.361-.437 2.083-.669l.058.438c1.753-.341 3.481-.689 5.074-1.544.445-.245 1.031-.393 1.553-.464 1.677-.244 3.359-.328 5.016-.656 1.18-.231 2.495-.418 3.469-1.132l2.173-.598c-.755-.348-1.206-.631-1.773-.792-.568-.154-.6-.379-.4-.849l1.741.888c.283-.373.438-.566.644-.824 1.238.335 1.696-.836 2.947-.707l-.464-.451.863-.302-.999-.94 1.902.245c.193.019.426-.032.967-.077l-1.708-.785c2.243-.927 4.551-1.236 6.911-1.525h-.026zm-12.81 6.685l-2.998.218 2.089-1.125.909.907zm79.099 134.242l-.709 1.106-3.862 5.54c.02-.418-.012-.843-.077-1.274-.335-2.207.387-3.359 2.527-4.086.819-.276 1.522-.694 2.121-1.28v-.006zm-61.421-113.757l-6.048.438c.265-1.126 1.831-.451 2.289-1.474l-2.482.013c1.154-.701 1.115-2.226 2.669-2.509l-.696-1.525-1.225-.071.593-1.434-1.232.546c-.032-.585.594-1.055.284-1.698-.142-.29.613-1.017 1.09-1.428.232-.2.767-.155 1.36-.258l-.587 1.068.987.052 1.109.064-1.251 1.313c.748 1.46 2.682 2.245 2.54 4.162l2.057.18c-.477.541-.845.856-1.058 1.236-.206.373-.264.81-.412 1.319l.013.006zm-11.521-15.885c-1.638.45-3.275 1.074-4.939 1.306-.954.129-1.96-.36-2.862-.663-.149-.051-.819-.373-.213-.875.142-.116-.129-.495-.226-.804l.89-.347.774.92 5.028-.818c.581-.045 1.142.547 1.715.85l-.161.431h-.006zm3.636 13.813c-1.354.039-2.566 1.287-4.358 1.043.322-.489.444-.747.651-.953.213-.212.503-.366.535-.392l-.335-1.666 2.166-.361-.116-.727c.458-.412 2.121-.56 2.45-.193.129.142.213.528.129.586-.954.688-.626 1.705-1.116 2.657l-.006.006zM69.21 228.324l-1.76.335c-.516.058-1.031.038-1.579.058l.29-.895c-1.212-1.344-2.398-2.663-4.004-2.83-.709-1.5-1.547-.464-2.379.09-.303-.702-.006-.908.342-1.062 1.934-.843 3.681-.039 5.351 1.177 1.141.824 2.211 1.84 3.739 3.121v.006zm1.251.573c1.709-.354 3.327.013 4.719 2.007-1.167.264-2.347-.193-3.204.997l-1.019-.759-.49-2.245h-.006zm107.067-38.095l.368 2.606-1.399.707-.31-2.451 1.335-.862h.006zm17.872 5.475l-.464 1.19c-1.026.148-1.709-.193-2.044-1.537l2.501.347h.007z" class="D"/><g style="mix-blend-mode:multiply" opacity=".78" class="E"><g style="mix-blend-mode:screen"><path d="M93.013 315.129c25.092 19.321 58.424 24.539 88.093 14.103 9.181-3.191 18.014-7.932 26.124-14.18 8.659-6.678 15.847-14.592 21.443-23.297 3.308-5.076 6.054-10.41 8.253-15.93l.509-1.312a100.87 100.87 0 0 0 1.496-4.247l.464-1.473.89-3.043.245-.933c.103-.373.206-.753.29-1.126l.393-1.66.322-1.428c.252-1.197.484-2.394.69-3.59l.284-1.783.206-1.441c.09-.611.161-1.222.232-1.833l.155-1.371c.193-1.866.322-3.725.4-5.591l.032-.965c.258-8.216-.567-16.47-2.508-24.564 0-.039-.019-.071-.026-.116-.477-1.988-1.018-3.957-1.637-5.919l-.316-1.004-.374-1.152c-.052-.135-.097-.27-.142-.405l-2.843 7.56c-37.574 101.989-123.547 92.666-152.694 86.22a91.93 91.93 0 0 0 3.262 4.735 92.39 92.39 0 0 0 6.782 5.765l-.026-.02z"/></g></g><g style="mix-blend-mode:screen" opacity=".43" class="E"><g style="mix-blend-mode:screen"><path d="M66.928 219.047c4.732 6.112 10.522 11.034 17.066 14.746.928.534 1.876 1.036 2.837 1.518a63.65 63.65 0 0 0 7.633 3.204 34.1 34.1 0 0 0 1.393.457 76.91 76.91 0 0 0 2.198.669 69.84 69.84 0 0 0 6.157 1.441c20.676 3.867 44.557-1.145 65.355-15.209a104.13 104.13 0 0 0 5.183-3.745c18.613-14.341 30.56-33.597 34.725-52.982a90.69 90.69 0 0 0-7.298-5.43 89.75 89.75 0 0 0-9.632-5.617c-8.511-4.33-17.595-7.296-26.904-8.86a88.95 88.95 0 0 0-4.036-.585 78.71 78.71 0 0 0-4.062-.418l-1.36-.097-1.361-.077a92.93 92.93 0 0 0-13.893.315c-.058 0-.123.013-.181.02-1.102.109-2.205.231-3.307.379-.032.007-.065.007-.09.013l-2.173.328-1.128.187a76.14 76.14 0 0 0-4.5.894l-2.244.534-1.115.29-1.219.328a5.21 5.21 0 0 0-1.07.302 92.15 92.15 0 0 0-19.348 8.1c-3.997 2.207-7.865 4.768-11.598 7.644-9.348 7.206-16.943 15.801-22.7 25.304a92.31 92.31 0 0 0-3.191 5.662l-.677 1.332c-1.412 2.837-2.669 5.732-3.778 8.685l-.593 1.615c-.039.097-.071.2-.11.296-.077.206-.155.412-.219.624.077.161.161.309.239.451a61.64 61.64 0 0 0 1.238 2.181 58 58 0 0 0 3.772 5.52l-.006-.019z"/></g></g><path d="M236.229 195.917a18.99 18.99 0 0 1-.651 4.915c-.483 1.821-1.225 3.603-2.211 5.321l-1.07 1.718c-2.728 4.047-6.809 7.811-11.979 11.169-3.037 1.982-6.447 3.848-10.187 5.507-.896.425-1.811.811-2.746 1.197-4.333 1.802-9.052 3.397-14.106 4.755-1.548.424-3.134.81-4.746 1.196l-4.003.869a166.67 166.67 0 0 1-11.605 1.904 172.29 172.29 0 0 1-16.588 1.313 161.35 161.35 0 0 1-6.402.122c-22.198 0-42.448-3.886-57.734-10.281-.909-.367-1.799-.746-2.669-1.152-.677-.302-1.341-.63-1.999-.933-7.459-3.622-13.462-7.894-17.588-12.61v-.019c-.587-.669-1.141-1.358-1.657-2.066-3.011-4.027-4.642-8.396-4.642-12.932 0-.263 0-.508.013-.772.077-1.859.432-3.725 1.051-5.526 1.953-5.707 6.531-11.028 13.139-15.705.116-.058.226-.142.335-.225a57.88 57.88 0 0 1 3.327-2.143c6.55-3.944 14.654-7.309 23.887-9.876 13.004-3.641 28.238-5.726 44.53-5.726a178.5 178.5 0 0 1 10.915.322c.954.038 1.908.122 2.85.18a59.08 59.08 0 0 1 2.843.244c1.051.084 2.082.18 3.114.303a149.52 149.52 0 0 1 11.747 1.698l2.153.386c.645.142 1.283.264 1.915.386.47.123.934.2 1.399.322l2.514.566c9.877 2.349 18.652 5.565 25.853 9.432 3.965 2.123 7.447 4.433 10.38 6.923 2.779 2.348 5.061 4.819 6.789 7.425 2.482 3.725 3.816 7.669 3.816 11.78l.013.013z" class="B"/><path d="M233.36 206.159l-1.07 1.718c-2.727 4.047-6.808 7.811-11.979 11.169-3.036 1.982-6.447 3.848-10.186 5.508-.896.424-1.812.81-2.747 1.197-4.332 1.801-9.051 3.397-14.106 4.754-1.547.425-3.133.811-4.745 1.197l-4.004.868c-3.732.747-7.614 1.397-11.604 1.905-5.339.688-10.89 1.132-16.589 1.312a161.34 161.34 0 0 1-6.402.123c-22.197 0-42.448-3.886-57.734-10.282-.909-.366-1.799-.746-2.669-1.151-.677-.303-1.341-.631-1.999-.933-7.459-3.623-13.462-7.895-17.588-12.611v-.019a29.33 29.33 0 0 1-1.657-2.065c2.405-4.208 6.273-8.158 11.334-11.735.116-.058.226-.142.335-.226 1.057-.727 2.173-1.454 3.327-2.142 6.55-3.944 14.654-7.303 23.886-9.876 13.004-3.642 28.239-5.726 44.531-5.726 3.7 0 7.343.103 10.915.321.954.039 1.908.123 2.849.181a59.08 59.08 0 0 1 2.843.244 80.07 80.07 0 0 1 3.114.303c4.03.424 7.956.99 11.747 1.698l2.153.386c.645.142 1.283.264 1.915.386.471.122.935.2 1.399.322l2.515.566c9.877 2.348 18.651 5.565 25.853 9.432 3.965 2.123 7.446 4.433 10.379 6.923 2.36 1.981 4.359 4.066 5.971 6.253h.012z" fill="#2e1f8c"/><path d="M174.504 286.242c.942 8.319 9.31 14.199 18.684 13.144s16.215-8.66 15.273-16.972c-.941-8.319-9.309-14.2-18.683-13.145s-16.215 8.66-15.274 16.973zm-80.55-2.78c.941 8.319 9.31 14.2 18.684 13.145s16.214-8.66 15.273-16.973c-.941-8.319-9.31-14.199-18.684-13.144s-16.214 8.66-15.273 16.972z" style="mix-blend-mode:screen" class="E"/><path d="M187.637 265.39c-.696-.586-3.681 4.658-9.135 5.005-5.442.348-9.007-4.452-9.723-3.699-.909.945 2.985 10.545 9.6 10.442 7.002-.11 10.174-10.97 9.252-11.742l.006-.006zm-54.214.411c-.696-.585-3.681 4.659-9.135 5.006-5.442.347-9.007-4.452-9.722-3.7-.909.946 2.985 10.546 9.599 10.443 7.002-.11 10.174-10.97 9.252-11.742l.006-.007z" class="B"/><path d="M135.976 279.634s18.607 14.798 30.386-3.777" stroke="#181054" stroke-width="5" stroke-linecap="round" stroke-linejoin="round"/><mask id="A" maskUnits="userSpaceOnUse" x="60" y="118" width="177" height="119"><path d="M236.229 195.917c-.322 10.339-7.13 17.204-15.918 23.13-38.985 24.062-118.421 23.779-150.385-8.114v-.019c-11.508-12.372-13.32-29.853-.709-43.615l8.787-17.41c51.087-48.929 112.141-31.744 139.716-6.884 3.836 3.461 18.799 18.15 18.516 52.918l-.007-.006z" fill="#fff"/></mask><g mask="url(#A)"><g style="mix-blend-mode:screen" class="F"><path d="M223.419 171.79c-3.881-12.881-14.132-24.436-28.87-32.549-13.017-7.167-28.497-11.111-43.577-11.111-10.489 0-20.366 1.872-29.366 5.559-8.878 3.641-30.56 14.746-40.14 39.208-2.379 6.08-3.823 12.52-4.281 19.153-2.74 11.484.587 23.754 8.755 32.15a31.49 31.49 0 0 0 7.376 5.617c1.941 3.564 4.603 6.762 7.885 9.47l-4.262 6.782 7.853 2.393 7.852 2.393 7.853 2.394 9.264 2.824 3.559 1.088 3.559 1.087 3.559 1.087 2.663-2.593 2.662-2.593 2.663-2.592 6.376-6.196c1.186-.341 2.373-.746 3.533-1.21 2.605.431 5.216.65 7.795.65 12.127 0 23.003-4.825 29.831-13.241a31.84 31.84 0 0 0 4.983-8.57c6.48-2.567 11.831-6.485 15.95-11.671 12.708-16.007 7.653-35.74 6.506-39.529h.019z"/></g><path d="M217.397 173.598c-3.404-11.298-12.597-21.547-25.885-28.862-12.108-6.666-26.504-10.333-40.539-10.333-9.665 0-18.742 1.711-26.975 5.089-8.13 3.333-27.974 13.485-36.672 35.689-2.211 5.648-3.527 11.651-3.901 17.834-2.469 9.58.193 19.791 7.027 26.816 2.16 2.22 4.694 4.009 7.575 5.34 2.263 5.07 6.286 9.317 11.695 12.366l-3.095 4.922 7.853 2.394 7.852 2.393 9.265 2.824 3.559 1.088 3.559 1.087 2.662-2.593 2.663-2.593 7.569-7.347c2.037-.476 4.049-1.171 6.009-2.078 2.843.592 5.699.894 8.516.894 10.225 0 19.316-3.976 24.944-10.912 2.276-2.805 3.92-6.035 4.868-9.502 5.254-1.654 11.334-4.781 16.021-10.681 10.767-13.569 6.402-30.554 5.415-33.822l.013-.013z" fill="#ed8eb2"/><path d="M211.376 175.406c-2.927-9.715-11.064-18.658-22.901-25.169-11.192-6.158-24.512-9.555-37.502-9.555-8.84 0-17.111 1.551-24.583 4.62-7.382 3.03-25.389 12.224-33.203 32.169-2.05 5.231-3.23 10.796-3.514 16.548-2.186 7.656-.2 15.795 5.293 21.437 2.16 2.22 4.835 3.867 7.988 4.929 1.754 5.99 6.473 10.686 13.7 13.492.774.302 1.541.566 2.289.804l-2.624 4.175 7.853 2.394 9.264 2.824 3.559 1.087 2.663-2.592 8.897-8.647c3.404-.547 6.273-1.815 8.272-2.928a35.75 35.75 0 0 0 9.309 1.255c8.317 0 15.628-3.127 20.057-8.589 2.482-3.056 3.933-6.698 4.3-10.629 5.003-1.004 11.754-3.468 16.544-9.503 8.826-11.124 5.151-25.375 4.319-28.122h.02z" class="F"/><g style="mix-blend-mode:multiply" class="F"><path d="M155.904 224.129s-4.403 3.552-10.167 3.777l-10.457 10.159-9.264-2.825 3.133-4.986s-20.341-.933-20.663-14.997c0 0 15.176-5.256 26.427-.431 0 0 17.471 2.213 20.998 9.303h-.007z"/></g><path d="M145.744 227.906s-12.024.869-13.849-14.122m4.797 10.712s-1.818 2.67-7.543 5.758" stroke="#181054" stroke-width="2" class="C"/><path d="M183.924 207.421s11.708.379 18.2-7.798c6.995-8.815 3.752-20.679 3.23-22.416-6.698-22.222-47.154-38.172-76.572-26.108-5.874 2.406-22.669 10.596-29.735 28.65-2.385 6.093-2.998 11.6-3.12 15.325-1.876 5.681-.484 11.858 3.552 16.007 2.553 2.625 6.654 4.485 13.172 4.421 0 0 20.65-3.114 38.283 6.401s36.355 1.345 32.99-14.482z" fill="#eebacc"/><path d="M183.924 207.42s2.185-11.947-11.837-13.813-18.059-4.684-23.036-9.631c-4.977-4.955-13.926-3.037-15.073 1.196m72.801-2.927s-11.586 19.565-25.518.811c0 0-13.971-2.838-12.862-14.264m-60.59-3.108s10.825-5.443 13.017 2.754c2.192 8.203-6.389 17.448 8.955 24.088m-16.95-.868s-11.031-4.105-16.911 3.422" class="C G H"/><path d="M106.88 183.782s-4.306-.591-4.983 7.316m76.05 31.635s-15.55 1.589-14.628-16.368c0 0-.097-11.484-11.212-7.36" class="C G H"/><path d="M174.537 206.944s-8.369-4.323-11.251.477m-13.687-44.291c6.589 2.741 8.485 5.771 9 8.029 1.026 4.504-2.959 8.036-1.702 14.264.49 2.439 1.586 4.279 2.36 5.385m-40.05 24.23s-4.828-7.791-.606-13.575m21.676 16.155s6.054-.122 9.625-6.459m41.907-51.381s2.321 6.942-2.863 11.111m-12.146-7.926s-.413-8.371-15.718-7.592m-1.219-8.049s1.702 5.726.993 12.469m36.71 43.898s-8.22-.026-9.98-6.447" class="C G H"/><path d="M142.166 181.048s.741-4.697-1.206-7.405m-2.353-25.485s4.319 5.945 9.413 9.375" class="C G H"/></g><path d="M207.179 223.479l7.317.026c.509-8.608-2.392-9.779 6.963-9.355 1.154 0 2.082.94 2.076 2.091l-.026 7.303c8.626.502 9.8-2.387 9.374 6.948 0 1.152-.941 2.078-2.095 2.072l-7.318-.026c-.509 8.609 2.392 9.78-6.962 9.355-1.154 0-2.083-.939-2.076-2.091l.025-7.302-7.311-.026c-1.154 0-2.082-.939-2.076-2.091.265-1.821-1.038-6.974 2.109-6.91v.006z" fill="#fff"/><g style="mix-blend-mode:multiply" opacity=".3" class="F"><path d="M230.788 232.558l-7.318-.026c-.509 8.608 2.392 9.779-6.963 9.355-1.154 0-2.082-.94-2.076-2.091l.02-7.303-7.311-.019c-1.154 0-2.083-.939-2.083-2.091.129-.888-.103-2.554-.025-4.034 2.482 1.184 5.273 2.027 8.265 2.445 7.446 1.036 14.422-.843 19.012-4.562.658.856.735 2.638.568 6.254 0 1.152-.942 2.078-2.096 2.072h.007z"/></g><path d="M54.47 121.625l7.311-.084c.374-8.615-2.54-9.741 6.821-9.464a2.08 2.08 0 0 1 2.108 2.059l.084 7.302c8.633.373 9.761-2.535 9.484 6.807a2.08 2.08 0 0 1-2.063 2.104l-7.318.084c-.374 8.615 2.54 9.741-6.821 9.464a2.08 2.08 0 0 1-2.108-2.059l-.084-7.296-7.311.084a2.08 2.08 0 0 1-2.108-2.059c.239-1.821-1.141-6.955 2.005-6.942z" class="I"/><g style="mix-blend-mode:multiply" opacity=".3" class="I"><path d="M78.221 130.349l-7.318.084c-.374 8.615 2.547 9.741-6.821 9.464-1.154.013-2.102-.907-2.108-2.059l-.09-7.302-7.311.09c-1.154.013-2.102-.907-2.115-2.059.116-.888-.142-2.548-.084-4.034 2.502 1.145 5.306 1.949 8.304 2.316 7.459.92 14.409-1.061 18.935-4.851.67.843.774 2.625.664 6.247a2.08 2.08 0 0 1-2.063 2.104h.007z"/></g><path d="M255.681 92.073c-9.845 12.276-27.807 14.257-40.108 4.427-2.779-2.22-5.022-4.858-6.731-7.753l-8.387-.515 2.082-2.593 3.288-4.098c-2.224-8.422-.561-17.744 5.319-25.066 9.845-12.276 27.806-14.257 40.108-4.427a28.33 28.33 0 0 1 8.394 11.015c4.003 9.342 2.849 20.518-3.959 29.004l-.006.006z" fill="#fff"/><path d="M248.131 78.182l-1.231 1.937-.168.238c-.89 1.248-1.889 2.4-2.959 3.487l-.207.212c-1.386 1.377-2.888 2.651-4.454 3.854l-4.043 2.902c-.696.489-1.418.534-2.153.045-2.934-1.95-5.751-4.021-8.233-6.46-.071-.064-.136-.135-.206-.206a32.45 32.45 0 0 1-3.005-3.429c-.058-.077-.122-.161-.174-.238-.245-.328-.477-.663-.709-1.004-1.464-2.168-2.476-4.516-2.573-7.18-.128-3.667 1.387-6.511 4.507-8.396 3.062-1.846 6.099-1.184 8.981.534.883.528 1.631 1.274 2.54 2.001 1.522-1.75 3.456-2.876 5.738-3.397 5.113-1.171 8.949 2.805 9.832 6.421.748 3.095.051 5.971-1.483 8.673v.006z" class="I"/><g style="mix-blend-mode:multiply" opacity=".3"><path d="M255.681 92.073c-9.845 12.276-27.807 14.257-40.108 4.426a28.32 28.32 0 0 1-6.731-7.753l-8.387-.515 2.082-2.593c9.787.997 33.648.495 57.102-22.576 4.004 9.342 2.85 20.518-3.958 29.004v.006z" fill="#fff5e9"/></g></svg>