<svg width="52" height="52" viewBox="0 0 52 52" fill="none" xmlns="http://www.w3.org/2000/svg">
<path d="M4.33325 23.2917C4.33325 29.038 6.61598 34.549 10.6793 38.6123C14.7426 42.6756 20.2536 44.9583 25.9999 44.9583C31.7463 44.9583 37.2573 42.6756 41.3206 38.6123C45.3839 34.549 47.6666 29.038 47.6666 23.2917C47.6666 17.5453 45.3839 12.0343 41.3206 7.97102C37.2573 3.90773 31.7463 1.625 25.9999 1.625C20.2536 1.625 14.7426 3.90773 10.6793 7.97102C6.61598 12.0343 4.33325 17.5453 4.33325 23.2917Z" fill="#FFE500"/>
<path d="M25.9999 1.625C21.7147 1.625 17.5256 2.89573 13.9626 5.27649C10.3995 7.65726 7.62244 11.0411 5.98254 15.0002C4.34264 18.9593 3.91357 23.3157 4.74958 27.5186C5.58559 31.7215 7.64914 35.5822 10.6793 38.6123C13.7094 41.6425 17.5701 43.706 21.773 44.542C25.9759 45.378 30.3323 44.949 34.2914 43.3091C38.2505 41.6692 41.6343 38.8921 44.0151 35.329C46.3959 31.766 47.6666 27.5769 47.6666 23.2917C47.6666 17.5453 45.3839 12.0343 41.3206 7.97102C37.2573 3.90773 31.7463 1.625 25.9999 1.625ZM25.9999 41.7083C22.0896 41.7083 18.2671 40.5488 15.0158 38.3763C11.7645 36.2039 9.23047 33.1161 7.73406 29.5035C6.23765 25.8908 5.84612 21.9156 6.60899 18.0804C7.37185 14.2452 9.25484 10.7224 12.0198 7.95741C14.7848 5.19241 18.3077 3.30942 22.1428 2.54656C25.978 1.7837 29.9533 2.17522 33.5659 3.67163C37.1785 5.16804 40.2663 7.70212 42.4388 10.9534C44.6112 14.2047 45.7708 18.0272 45.7708 21.9375C45.7708 27.1811 43.6878 32.2098 39.98 35.9176C36.2723 39.6253 31.2435 41.7083 25.9999 41.7083Z" fill="#EBCB00"/>
<path d="M19.5 5.95831C19.5 6.38929 20.1848 6.80262 21.4038 7.10736C22.6228 7.41211 24.2761 7.58331 26 7.58331C27.7239 7.58331 29.3772 7.41211 30.5962 7.10736C31.8152 6.80262 32.5 6.38929 32.5 5.95831C32.5 5.52734 31.8152 5.11401 30.5962 4.80926C29.3772 4.50452 27.7239 4.33331 26 4.33331C24.2761 4.33331 22.6228 4.50452 21.4038 4.80926C20.1848 5.11401 19.5 5.52734 19.5 5.95831Z" fill="#FFF48C"/>
<path opacity="0.15" d="M8.66675 49.2917C8.66675 49.7227 10.4929 50.136 13.7436 50.4407C16.9942 50.7455 21.403 50.9167 26.0001 50.9167C30.5972 50.9167 35.006 50.7455 38.2566 50.4407C41.5072 50.136 43.3334 49.7227 43.3334 49.2917C43.3334 48.8607 41.5072 48.4474 38.2566 48.1426C35.006 47.8379 30.5972 47.6667 26.0001 47.6667C21.403 47.6667 16.9942 47.8379 13.7436 48.1426C10.4929 48.4474 8.66675 48.8607 8.66675 49.2917Z" fill="#45413C"/>
<path d="M4.33325 23.2917C4.33325 29.038 6.61598 34.549 10.6793 38.6123C14.7426 42.6756 20.2536 44.9583 25.9999 44.9583C31.7463 44.9583 37.2573 42.6756 41.3206 38.6123C45.3839 34.549 47.6666 29.038 47.6666 23.2917C47.6666 17.5453 45.3839 12.0343 41.3206 7.97102C37.2573 3.90773 31.7463 1.625 25.9999 1.625C20.2536 1.625 14.7426 3.90773 10.6793 7.97102C6.61598 12.0343 4.33325 17.5453 4.33325 23.2917Z" stroke="#45413C" stroke-linecap="round" stroke-linejoin="round"/>
<path d="M41.7084 28.7083C41.7084 29.6075 40.4951 30.3333 39.0001 30.3333C37.5051 30.3333 36.2917 29.6075 36.2917 28.7083C36.2917 27.8091 37.5051 27.0833 39.0001 27.0833C40.4951 27.0833 41.7084 27.8091 41.7084 28.7083Z" fill="#FFAA54"/>
<path d="M10.2917 28.7083C10.2917 29.6075 11.5051 30.3333 13.0001 30.3333C14.4951 30.3333 15.7084 29.6075 15.7084 28.7083C15.7084 27.8091 14.4951 27.0833 13.0001 27.0833C11.5051 27.0833 10.2917 27.8091 10.2917 28.7083Z" fill="#FFAA54"/>
<path d="M15.7084 22.2083C15.7084 22.4226 15.6449 22.632 15.5258 22.8102C15.4068 22.9884 15.2376 23.1272 15.0397 23.2092C14.8417 23.2912 14.6239 23.3127 14.4137 23.2709C14.2036 23.2291 14.0106 23.1259 13.859 22.9744C13.7075 22.8229 13.6044 22.6298 13.5626 22.4197C13.5208 22.2095 13.5422 21.9917 13.6242 21.7938C13.7062 21.5958 13.8451 21.4266 14.0232 21.3076C14.2014 21.1885 14.4108 21.125 14.6251 21.125C14.9124 21.125 15.1879 21.2391 15.3911 21.4423C15.5943 21.6455 15.7084 21.921 15.7084 22.2083Z" fill="#45413C" stroke="#45413C" stroke-linecap="round" stroke-linejoin="round"/>
<path d="M36.2917 22.2083C36.2917 22.4226 36.3553 22.632 36.4743 22.8102C36.5934 22.9884 36.7626 23.1272 36.9605 23.2092C37.1585 23.2912 37.3763 23.3127 37.5864 23.2709C37.7966 23.2291 37.9896 23.1259 38.1411 22.9744C38.2926 22.8229 38.3958 22.6298 38.4376 22.4197C38.4794 22.2095 38.4579 21.9917 38.3759 21.7938C38.294 21.5958 38.1551 21.4266 37.9769 21.3076C37.7988 21.1885 37.5893 21.125 37.3751 21.125C37.0878 21.125 36.8122 21.2391 36.609 21.4423C36.4059 21.6455 36.2917 21.921 36.2917 22.2083Z" fill="#45413C" stroke="#45413C" stroke-linecap="round" stroke-linejoin="round"/>
<path d="M17.875 34.125C17.875 36.2799 18.731 38.3465 20.2548 39.8702C21.7785 41.394 23.8451 42.25 26 42.25C28.1549 42.25 30.2215 41.394 31.7452 39.8702C33.269 38.3465 34.125 36.2799 34.125 34.125C34.125 31.9701 33.269 29.9035 31.7452 28.3798C30.2215 26.856 28.1549 26 26 26C23.8451 26 21.7785 26.856 20.2548 28.3798C18.731 29.9035 17.875 31.9701 17.875 34.125Z" fill="#FFB0CA" stroke="#45413C" stroke-linecap="round" stroke-linejoin="round"/>
<path d="M19.1208 38.4367C19.1208 39.448 19.8456 40.418 21.1357 41.1331C22.4258 41.8483 24.1755 42.25 26 42.25C27.8245 42.25 29.5742 41.8483 30.8643 41.1331C32.1544 40.418 32.8792 39.448 32.8792 38.4367C32.8792 37.4253 32.1544 36.4554 30.8643 35.7403C29.5742 35.0251 27.8245 34.6234 26 34.6234C24.1755 34.6234 22.4258 35.0251 21.1357 35.7403C19.8456 36.4554 19.1208 37.4253 19.1208 38.4367Z" fill="#FF866E" stroke="#45413C" stroke-linecap="round" stroke-linejoin="round"/>
</svg>
