<svg width="46" height="50" viewBox="0 0 46 50" fill="none" xmlns="http://www.w3.org/2000/svg">
<path d="M1.33325 22.2917C1.33325 28.038 3.61598 33.549 7.67927 37.6123C11.7426 41.6756 17.2536 43.9583 22.9999 43.9583C28.7463 43.9583 34.2573 41.6756 38.3206 37.6123C42.3839 33.549 44.6666 28.038 44.6666 22.2917C44.6666 16.5453 42.3839 11.0343 38.3206 6.97102C34.2573 2.90773 28.7463 0.625 22.9999 0.625C17.2536 0.625 11.7426 2.90773 7.67927 6.97102C3.61598 11.0343 1.33325 16.5453 1.33325 22.2917Z" fill="#FF6242"/>
<path d="M22.9999 0.625C18.7147 0.625 14.5256 1.89573 10.9626 4.27649C7.39951 6.65726 4.62244 10.0411 2.98254 14.0002C1.34264 17.9593 0.913568 22.3157 1.74958 26.5186C2.58559 30.7215 4.64914 34.5822 7.67928 37.6123C10.7094 40.6425 14.5701 42.706 18.773 43.542C22.9759 44.378 27.3323 43.949 31.2914 42.3091C35.2505 40.6692 38.6343 37.8921 41.0151 34.329C43.3959 30.766 44.6666 26.5769 44.6666 22.2917C44.6666 16.5453 42.3839 11.0343 38.3206 6.97102C34.2573 2.90773 28.7463 0.625 22.9999 0.625ZM22.9999 40.7083C19.0896 40.7083 15.2671 39.5488 12.0158 37.3763C8.76455 35.2039 6.23047 32.1161 4.73406 28.5035C3.23765 24.8908 2.84612 20.9156 3.60899 17.0804C4.37185 13.2452 6.25484 9.72241 9.01984 6.95741C11.7848 4.19241 15.3077 2.30942 19.1428 1.54656C22.978 0.783696 26.9533 1.17522 30.5659 2.67163C34.1785 4.16804 37.2663 6.70212 39.4388 9.95341C41.6112 13.2047 42.7708 17.0272 42.7708 20.9375C42.7708 26.1811 40.6878 31.2098 36.98 34.9176C33.2723 38.6253 28.2435 40.7083 22.9999 40.7083Z" fill="#E04122"/>
<path d="M16.5 4.95831C16.5 5.38929 17.1848 5.80262 18.4038 6.10736C19.6228 6.41211 21.2761 6.58331 23 6.58331C24.7239 6.58331 26.3772 6.41211 27.5962 6.10736C28.8152 5.80262 29.5 5.38929 29.5 4.95831C29.5 4.52734 28.8152 4.11401 27.5962 3.80926C26.3772 3.50452 24.7239 3.33331 23 3.33331C21.2761 3.33331 19.6228 3.50452 18.4038 3.80926C17.1848 4.11401 16.5 4.52734 16.5 4.95831Z" fill="#FF866E"/>
<path d="M1.33325 22.2917C1.33325 28.038 3.61598 33.549 7.67927 37.6123C11.7426 41.6756 17.2536 43.9583 22.9999 43.9583C28.7463 43.9583 34.2573 41.6756 38.3206 37.6123C42.3839 33.549 44.6666 28.038 44.6666 22.2917C44.6666 16.5453 42.3839 11.0343 38.3206 6.97102C34.2573 2.90773 28.7463 0.625 22.9999 0.625C17.2536 0.625 11.7426 2.90773 7.67927 6.97102C3.61598 11.0343 1.33325 16.5453 1.33325 22.2917Z" stroke="#45413C" stroke-linecap="round" stroke-linejoin="round"/>
<path d="M12.7083 23.375C12.7083 23.6623 12.8224 23.9379 13.0256 24.1411C13.2287 24.3442 13.5043 24.4584 13.7916 24.4584C14.0789 24.4584 14.3545 24.3442 14.5576 24.1411C14.7608 23.9379 14.8749 23.6623 14.8749 23.375C14.8749 23.0877 14.7608 22.8122 14.5576 22.609C14.3545 22.4058 14.0789 22.2917 13.7916 22.2917C13.5043 22.2917 13.2287 22.4058 13.0256 22.609C12.8224 22.8122 12.7083 23.0877 12.7083 23.375Z" fill="#45413C" stroke="#45413C" stroke-linecap="round" stroke-linejoin="round"/>
<path d="M17.9408 21.75C17.9408 21.75 14.6908 16.875 11.0833 18.5" stroke="#45413C" stroke-linecap="round" stroke-linejoin="round"/>
<path d="M28.0591 21.75C28.0591 21.75 31.3091 16.875 34.9166 18.5" stroke="#45413C" stroke-linecap="round" stroke-linejoin="round"/>
<path d="M31.125 23.375C31.125 23.6623 31.2391 23.9379 31.4423 24.1411C31.6455 24.3442 31.921 24.4584 32.2083 24.4584C32.4957 24.4584 32.7712 24.3442 32.9744 24.1411C33.1775 23.9379 33.2917 23.6623 33.2917 23.375C33.2917 23.0877 33.1775 22.8122 32.9744 22.609C32.7712 22.4058 32.4957 22.2917 32.2083 22.2917C31.921 22.2917 31.6455 22.4058 31.4423 22.609C31.2391 22.8122 31.125 23.0877 31.125 23.375Z" fill="#45413C" stroke="#45413C" stroke-linecap="round" stroke-linejoin="round"/>
<path d="M17.5833 33.125C19.1866 32.0537 21.0716 31.4819 22.9999 31.4819C24.9282 31.4819 26.8132 32.0537 28.4166 33.125" stroke="#45413C" stroke-linecap="round"/>
<path d="M30.4966 8.0675C30.3625 8.77328 29.9545 9.39731 29.3618 9.80327C28.7691 10.2092 28.0398 10.3642 27.3333 10.2342" stroke="#45413C" stroke-linecap="round" stroke-linejoin="round"/>
<path d="M34.2667 13.0834C33.9013 12.8612 33.5833 12.5691 33.331 12.2238C33.0787 11.8785 32.897 11.4868 32.7964 11.0711C32.6957 10.6555 32.6781 10.2241 32.7445 9.80159C32.8109 9.37912 32.9601 8.97391 33.1834 8.60919" stroke="#45413C" stroke-linecap="round" stroke-linejoin="round"/>
<path d="M27.9185 12.8342C28.6784 12.4277 29.5687 12.3397 30.3936 12.5896C31.2184 12.8395 31.9102 13.4068 32.3168 14.1667" stroke="#45413C" stroke-linecap="round" stroke-linejoin="round"/>
<path d="M38.7084 28.25C38.7084 29.1492 37.4951 29.875 36.0001 29.875C34.5051 29.875 33.2917 29.1492 33.2917 28.25C33.2917 27.3508 34.5051 26.625 36.0001 26.625C37.4951 26.625 38.7084 27.3508 38.7084 28.25Z" fill="#E04122"/>
<path d="M7.29175 28.25C7.29175 29.1492 8.50508 29.875 10.0001 29.875C11.4951 29.875 12.7084 29.1492 12.7084 28.25C12.7084 27.3508 11.4951 26.625 10.0001 26.625C8.50508 26.625 7.29175 27.3508 7.29175 28.25Z" fill="#E04122"/>
<path opacity="0.15" d="M5.66675 48.2917C5.66675 48.7227 7.49293 49.136 10.7436 49.4407C13.9942 49.7455 18.403 49.9167 23.0001 49.9167C27.5972 49.9167 32.006 49.7455 35.2566 49.4407C38.5072 49.136 40.3334 48.7227 40.3334 48.2917C40.3334 47.8607 38.5072 47.4474 35.2566 47.1426C32.006 46.8379 27.5972 46.6667 23.0001 46.6667C18.403 46.6667 13.9942 46.8379 10.7436 47.1426C7.49293 47.4474 5.66675 47.8607 5.66675 48.2917Z" fill="#45413C"/>
</svg>
