<svg width="52" height="52" viewBox="0 0 52 52" fill="none" xmlns="http://www.w3.org/2000/svg">
<path d="M4.33325 23.2917C4.33325 29.038 6.61598 34.549 10.6793 38.6123C14.7426 42.6756 20.2536 44.9583 25.9999 44.9583C31.7463 44.9583 37.2573 42.6756 41.3206 38.6123C45.3839 34.549 47.6666 29.038 47.6666 23.2917C47.6666 17.5453 45.3839 12.0343 41.3206 7.97102C37.2573 3.90773 31.7463 1.625 25.9999 1.625C20.2536 1.625 14.7426 3.90773 10.6793 7.97102C6.61598 12.0343 4.33325 17.5453 4.33325 23.2917Z" fill="#FFE500"/>
<path d="M25.9999 1.625C21.7147 1.625 17.5256 2.89573 13.9626 5.27649C10.3995 7.65726 7.62244 11.0411 5.98254 15.0002C4.34264 18.9593 3.91357 23.3157 4.74958 27.5186C5.58559 31.7215 7.64914 35.5822 10.6793 38.6123C13.7094 41.6425 17.5701 43.706 21.773 44.542C25.9759 45.378 30.3323 44.949 34.2914 43.3091C38.2505 41.6692 41.6343 38.8921 44.0151 35.329C46.3959 31.766 47.6666 27.5769 47.6666 23.2917C47.6666 17.5453 45.3839 12.0343 41.3206 7.97102C37.2573 3.90773 31.7463 1.625 25.9999 1.625ZM25.9999 41.7083C22.0896 41.7083 18.2671 40.5488 15.0158 38.3763C11.7645 36.2039 9.23047 33.1161 7.73406 29.5035C6.23765 25.8908 5.84612 21.9156 6.60899 18.0804C7.37185 14.2452 9.25484 10.7224 12.0198 7.95741C14.7848 5.19241 18.3077 3.30942 22.1428 2.54656C25.978 1.7837 29.9533 2.17522 33.5659 3.67163C37.1785 5.16804 40.2663 7.70212 42.4388 10.9534C44.6112 14.2047 45.7708 18.0272 45.7708 21.9375C45.7708 27.1811 43.6878 32.2098 39.98 35.9176C36.2723 39.6253 31.2435 41.7083 25.9999 41.7083Z" fill="#EBCB00"/>
<path d="M19.5 5.95831C19.5 6.38929 20.1848 6.80262 21.4038 7.10736C22.6228 7.41211 24.2761 7.58331 26 7.58331C27.7239 7.58331 29.3772 7.41211 30.5962 7.10736C31.8152 6.80262 32.5 6.38929 32.5 5.95831C32.5 5.52734 31.8152 5.11401 30.5962 4.80926C29.3772 4.50452 27.7239 4.33331 26 4.33331C24.2761 4.33331 22.6228 4.50452 21.4038 4.80926C20.1848 5.11401 19.5 5.52734 19.5 5.95831Z" fill="#FFF48C"/>
<path d="M4.33325 23.2917C4.33325 29.038 6.61598 34.549 10.6793 38.6123C14.7426 42.6756 20.2536 44.9583 25.9999 44.9583C31.7463 44.9583 37.2573 42.6756 41.3206 38.6123C45.3839 34.549 47.6666 29.038 47.6666 23.2917C47.6666 17.5453 45.3839 12.0343 41.3206 7.97102C37.2573 3.90773 31.7463 1.625 25.9999 1.625C20.2536 1.625 14.7426 3.90773 10.6793 7.97102C6.61598 12.0343 4.33325 17.5453 4.33325 23.2917Z" stroke="#45413C" stroke-linecap="round" stroke-linejoin="round"/>
<path d="M20.5833 34.125C22.1866 33.0537 24.0716 32.4819 25.9999 32.4819C27.9282 32.4819 29.8132 33.0537 31.4166 34.125" stroke="#45413C" stroke-linecap="round"/>
<path opacity="0.15" d="M8.66675 49.2917C8.66675 49.7227 10.4929 50.136 13.7436 50.4407C16.9942 50.7455 21.403 50.9167 26.0001 50.9167C30.5972 50.9167 35.006 50.7455 38.2566 50.4407C41.5072 50.136 43.3334 49.7227 43.3334 49.2917C43.3334 48.8607 41.5072 48.4474 38.2566 48.1426C35.006 47.8379 30.5972 47.6667 26.0001 47.6667C21.403 47.6667 16.9942 47.8379 13.7436 48.1426C10.4929 48.4474 8.66675 48.8607 8.66675 49.2917Z" fill="#45413C"/>
<path d="M16.2499 23.2916C16.2499 23.5059 16.1864 23.7154 16.0673 23.8935C15.9483 24.0717 15.7791 24.2105 15.5812 24.2925C15.3832 24.3745 15.1654 24.396 14.9552 24.3542C14.7451 24.3124 14.5521 24.2092 14.4006 24.0577C14.249 23.9062 14.1459 23.7131 14.1041 23.503C14.0623 23.2928 14.0837 23.075 14.1657 22.8771C14.2477 22.6791 14.3866 22.5099 14.5647 22.3909C14.7429 22.2718 14.9523 22.2083 15.1666 22.2083C15.4539 22.2083 15.7295 22.3224 15.9326 22.5256C16.1358 22.7288 16.2499 23.0043 16.2499 23.2916Z" fill="#45413C" stroke="#45413C" stroke-linecap="round" stroke-linejoin="round"/>
<path d="M35.75 23.2916C35.75 23.5059 35.8135 23.7154 35.9326 23.8935C36.0516 24.0717 36.2208 24.2105 36.4188 24.2925C36.6167 24.3745 36.8345 24.396 37.0447 24.3542C37.2548 24.3124 37.4479 24.2092 37.5994 24.0577C37.7509 23.9062 37.8541 23.7131 37.8959 23.503C37.9377 23.2928 37.9162 23.075 37.8342 22.8771C37.7522 22.6791 37.6134 22.5099 37.4352 22.3909C37.257 22.2718 37.0476 22.2083 36.8333 22.2083C36.546 22.2083 36.2705 22.3224 36.0673 22.5256C35.8641 22.7288 35.75 23.0043 35.75 23.2916Z" fill="#45413C" stroke="#45413C" stroke-linecap="round" stroke-linejoin="round"/>
<path d="M41.7084 28.7083C41.7084 29.6075 40.4951 30.3333 39.0001 30.3333C37.5051 30.3333 36.2917 29.6075 36.2917 28.7083C36.2917 27.8091 37.5051 27.0833 39.0001 27.0833C40.4951 27.0833 41.7084 27.8091 41.7084 28.7083Z" fill="#FFAA54"/>
<path d="M10.2917 28.7083C10.2917 29.6075 11.5051 30.3333 13.0001 30.3333C14.4951 30.3333 15.7084 29.6075 15.7084 28.7083C15.7084 27.8091 14.4951 27.0833 13.0001 27.0833C11.5051 27.0833 10.2917 27.8091 10.2917 28.7083Z" fill="#FFAA54"/>
<path d="M9.42505 22.6742C9.75949 21.2726 10.4863 19.9953 11.5205 18.9918C12.5546 17.9884 13.8532 17.3004 15.2642 17.0083C16.3345 16.7707 17.4439 16.7707 18.5142 17.0083" stroke="#45413C" stroke-linecap="round" stroke-linejoin="round"/>
<path d="M42.575 22.6742C42.2406 21.2726 41.5137 19.9953 40.4796 18.9918C39.4455 17.9884 38.1469 17.3004 36.7358 17.0083C35.6655 16.7707 34.5561 16.7707 33.4858 17.0083" stroke="#45413C" stroke-linecap="round" stroke-linejoin="round"/>
<path d="M41.0474 43.6367C37.0933 41.9033 41.9683 37.57 41.4266 34.5908C45.9116 37.3858 44.9908 45.3592 41.0474 43.6367Z" fill="#00B8F0"/>
<path d="M41.4266 34.5908C41.4327 34.6629 41.4327 34.7354 41.4266 34.8075C44.33 38.1225 43.2683 44.1458 39.845 42.7808C40.154 43.1629 40.5572 43.4579 41.015 43.6367C44.9908 45.3592 45.9116 37.3858 41.4266 34.5908Z" fill="#4ACFFF"/>
<path d="M41.0474 43.6367C37.0933 41.9033 41.9683 37.57 41.4266 34.5908C45.9116 37.3858 44.9908 45.3592 41.0474 43.6367Z" stroke="#45413C" stroke-linecap="round" stroke-linejoin="round"/>
<path d="M40.8525 32.2942C37.8733 31.6658 40.6142 27.9608 39.7692 26C43.3333 27.2892 43.8208 32.9225 40.8525 32.2942Z" fill="#00B8F0"/>
<path d="M39.8232 26C39.8232 26 39.8232 26.0975 39.8232 26.1517C42.3041 28.015 42.4341 32.3267 39.8774 31.8717C40.1451 32.0925 40.4666 32.2383 40.8091 32.2942C43.8207 32.9225 43.3332 27.2892 39.8232 26Z" fill="#4ACFFF"/>
<path d="M40.8525 32.2942C37.8733 31.6658 40.6142 27.9608 39.7692 26C43.3333 27.2892 43.8208 32.9225 40.8525 32.2942Z" stroke="#45413C" stroke-linecap="round" stroke-linejoin="round"/>
<path d="M11.1475 32.2942C14.1266 31.6658 11.3858 27.9608 12.2308 26C8.66662 27.2892 8.17912 32.9225 11.1475 32.2942Z" fill="#00B8F0"/>
<path d="M12.1767 26C12.1767 26 12.1767 26.0975 12.1767 26.1517C9.69588 28.015 9.56588 32.3267 12.1767 31.8717C11.909 32.0925 11.5875 32.2383 11.245 32.2942C8.17921 32.9225 8.66671 27.2892 12.1767 26Z" fill="#4ACFFF"/>
<path d="M11.1475 32.2942C14.1266 31.6658 11.3858 27.9608 12.2308 26C8.66662 27.2892 8.17912 32.9225 11.1475 32.2942Z" stroke="#45413C" stroke-linecap="round" stroke-linejoin="round"/>
</svg>
