<svg width="46" height="50" viewBox="0 0 46 50" fill="none" xmlns="http://www.w3.org/2000/svg">
<path d="M1.33325 22.2917C1.33325 28.038 3.61598 33.549 7.67927 37.6123C11.7426 41.6756 17.2536 43.9583 22.9999 43.9583C28.7463 43.9583 34.2573 41.6756 38.3206 37.6123C42.3839 33.549 44.6666 28.038 44.6666 22.2917C44.6666 16.5453 42.3839 11.0343 38.3206 6.97102C34.2573 2.90773 28.7463 0.625 22.9999 0.625C17.2536 0.625 11.7426 2.90773 7.67927 6.97102C3.61598 11.0343 1.33325 16.5453 1.33325 22.2917Z" fill="#FFE500"/>
<path d="M22.9999 0.625C18.7147 0.625 14.5256 1.89573 10.9626 4.27649C7.39951 6.65726 4.62244 10.0411 2.98254 14.0002C1.34264 17.9593 0.913568 22.3157 1.74958 26.5186C2.58559 30.7215 4.64914 34.5822 7.67928 37.6123C10.7094 40.6424 14.5701 42.706 18.773 43.542C22.9759 44.378 27.3323 43.949 31.2914 42.3091C35.2505 40.6692 38.6343 37.8921 41.0151 34.329C43.3959 30.766 44.6666 26.5769 44.6666 22.2917C44.6666 16.5453 42.3839 11.0343 38.3206 6.97102C34.2573 2.90773 28.7463 0.625 22.9999 0.625ZM22.9999 40.7083C19.0896 40.7083 15.2671 39.5488 12.0158 37.3763C8.76454 35.2039 6.23047 32.1161 4.73406 28.5035C3.23765 24.8908 2.84612 20.9156 3.60899 17.0804C4.37185 13.2452 6.25484 9.72241 9.01984 6.95741C11.7848 4.19241 15.3077 2.30942 19.1428 1.54656C22.978 0.783696 26.9532 1.17522 30.5659 2.67163C34.1785 4.16804 37.2663 6.70212 39.4388 9.95341C41.6112 13.2047 42.7708 17.0272 42.7708 20.9375C42.7708 26.181 40.6878 31.2098 36.98 34.9176C33.2723 38.6253 28.2435 40.7083 22.9999 40.7083Z" fill="#EBCB00"/>
<path d="M16.5 4.95831C16.5 5.38929 17.1848 5.80262 18.4038 6.10736C19.6228 6.41211 21.2761 6.58331 23 6.58331C24.7239 6.58331 26.3772 6.41211 27.5962 6.10736C28.8152 5.80262 29.5 5.38929 29.5 4.95831C29.5 4.52734 28.8152 4.11401 27.5962 3.80926C26.3772 3.50452 24.7239 3.33331 23 3.33331C21.2761 3.33331 19.6228 3.50452 18.4038 3.80926C17.1848 4.11401 16.5 4.52734 16.5 4.95831Z" fill="#FFF48C"/>
<path opacity="0.15" d="M5.66675 48.2917C5.66675 48.7227 7.49293 49.136 10.7436 49.4407C13.9942 49.7455 18.403 49.9167 23.0001 49.9167C27.5972 49.9167 32.006 49.7455 35.2566 49.4407C38.5072 49.136 40.3334 48.7227 40.3334 48.2917C40.3334 47.8607 38.5072 47.4474 35.2566 47.1426C32.006 46.8379 27.5972 46.6667 23.0001 46.6667C18.403 46.6667 13.9942 46.8379 10.7436 47.1426C7.49293 47.4474 5.66675 47.8607 5.66675 48.2917Z" fill="#45413C"/>
<path d="M1.33325 22.2917C1.33325 28.038 3.61598 33.549 7.67927 37.6123C11.7426 41.6756 17.2536 43.9583 22.9999 43.9583C28.7463 43.9583 34.2573 41.6756 38.3206 37.6123C42.3839 33.549 44.6666 28.038 44.6666 22.2917C44.6666 16.5453 42.3839 11.0343 38.3206 6.97102C34.2573 2.90773 28.7463 0.625 22.9999 0.625C17.2536 0.625 11.7426 2.90773 7.67927 6.97102C3.61598 11.0343 1.33325 16.5453 1.33325 22.2917Z" stroke="#45413C" stroke-linecap="round" stroke-linejoin="round"/>
<path d="M38.7084 27.7083C38.7084 28.6075 37.4951 29.3333 36.0001 29.3333C34.5051 29.3333 33.2917 28.6075 33.2917 27.7083C33.2917 26.8091 34.5051 26.0833 36.0001 26.0833C37.4951 26.0833 38.7084 26.8091 38.7084 27.7083Z" fill="#FFAA54"/>
<path d="M7.29175 27.7083C7.29175 28.6075 8.50508 29.3333 10.0001 29.3333C11.4951 29.3333 12.7084 28.6075 12.7084 27.7083C12.7084 26.8091 11.4951 26.0833 10.0001 26.0833C8.50508 26.0833 7.29175 26.8091 7.29175 27.7083Z" fill="#FFAA54"/>
<path d="M12.7084 21.2083C12.7084 21.4226 12.6449 21.632 12.5258 21.8102C12.4068 21.9884 12.2376 22.1272 12.0397 22.2092C11.8417 22.2912 11.6239 22.3127 11.4137 22.2709C11.2036 22.2291 11.0106 22.1259 10.859 21.9744C10.7075 21.8229 10.6044 21.6298 10.5626 21.4197C10.5208 21.2095 10.5422 20.9917 10.6242 20.7938C10.7062 20.5958 10.8451 20.4266 11.0232 20.3076C11.2014 20.1885 11.4108 20.125 11.6251 20.125C11.9124 20.125 12.1879 20.2391 12.3911 20.4423C12.5943 20.6455 12.7084 20.921 12.7084 21.2083Z" fill="#45413C" stroke="#45413C" stroke-linecap="round" stroke-linejoin="round"/>
<path d="M33.2917 21.2083C33.2917 21.4226 33.3553 21.632 33.4743 21.8102C33.5934 21.9884 33.7626 22.1272 33.9605 22.2092C34.1585 22.2912 34.3763 22.3127 34.5864 22.2709C34.7966 22.2291 34.9896 22.1259 35.1411 21.9744C35.2926 21.8229 35.3958 21.6298 35.4376 21.4197C35.4794 21.2095 35.4579 20.9917 35.3759 20.7938C35.294 20.5958 35.1551 20.4266 34.9769 20.3076C34.7988 20.1885 34.5893 20.125 34.3751 20.125C34.0878 20.125 33.8122 20.2391 33.609 20.4423C33.4059 20.6455 33.2917 20.921 33.2917 21.2083Z" fill="#45413C" stroke="#45413C" stroke-linecap="round" stroke-linejoin="round"/>
<path d="M23 40.7083C25.8511 40.7705 28.6283 39.7989 30.8187 37.9728C33.0091 36.1468 34.4647 33.5898 34.9167 30.7741C34.9353 30.6068 34.9146 30.4374 34.8563 30.2795C34.798 30.1215 34.7037 29.9793 34.5808 29.8641C34.448 29.7462 34.2908 29.6588 34.1205 29.6083C33.9501 29.5577 33.7707 29.5452 33.595 29.5716C26.5839 30.6983 19.4378 30.6983 12.4267 29.5716C12.251 29.5452 12.0716 29.5577 11.9012 29.6083C11.7309 29.6588 11.5737 29.7462 11.4408 29.8641C11.318 29.9793 11.2237 30.1215 11.1654 30.2795C11.1071 30.4374 11.0864 30.6068 11.105 30.7741C11.5565 33.5861 13.0089 36.1401 15.1948 37.9656C17.3807 39.7912 20.1527 40.7652 23 40.7083Z" fill="#FFB0CA" stroke="#45413C" stroke-linecap="round" stroke-linejoin="round"/>
<path d="M23.0001 35.2917C19.9829 35.2105 16.9887 35.8375 14.2576 37.1225C16.5869 39.4208 19.7277 40.7095 23.0001 40.7095C26.2724 40.7095 29.4132 39.4208 31.7426 37.1225C29.0115 35.8375 26.0173 35.2105 23.0001 35.2917Z" fill="#FF87AF" stroke="#45413C" stroke-linecap="round" stroke-linejoin="round"/>
</svg>
