<svg width="52" height="52" viewBox="0 0 52 52" fill="none" xmlns="http://www.w3.org/2000/svg">
<path d="M1.625 23.2917C1.625 29.038 3.90773 34.549 7.97102 38.6123C12.0343 42.6756 17.5453 44.9583 23.2917 44.9583C29.038 44.9583 34.549 42.6756 38.6123 38.6123C42.6756 34.549 44.9583 29.038 44.9583 23.2917C44.9583 17.5453 42.6756 12.0343 38.6123 7.97102C34.549 3.90773 29.038 1.625 23.2917 1.625C17.5453 1.625 12.0343 3.90773 7.97102 7.97102C3.90773 12.0343 1.625 17.5453 1.625 23.2917Z" fill="#FFE500"/>
<path d="M23.2917 1.625C19.0064 1.625 14.8174 2.89573 11.2543 5.27649C7.69126 7.65726 4.91419 11.0411 3.27429 15.0002C1.63439 18.9593 1.20532 23.3157 2.04133 27.5186C2.87734 31.7215 4.94089 35.5822 7.97103 38.6123C11.0012 41.6425 14.8618 43.706 19.0647 44.542C23.2676 45.378 27.6241 44.949 31.5832 43.3091C35.5422 41.6692 38.9261 38.8921 41.3069 35.329C43.6876 31.766 44.9583 27.5769 44.9583 23.2917C44.9583 20.4464 44.3979 17.6289 43.3091 15.0002C42.2202 12.3715 40.6243 9.98296 38.6123 7.97102C36.6004 5.95908 34.2119 4.36313 31.5832 3.27428C28.9544 2.18543 26.137 1.625 23.2917 1.625ZM23.2917 41.7083C19.3814 41.7083 15.5589 40.5488 12.3076 38.3763C9.05629 36.2039 6.52222 33.1161 5.02581 29.5035C3.5294 25.8908 3.13787 21.9156 3.90073 18.0804C4.6636 14.2452 6.54659 10.7224 9.31159 7.95741C12.0766 5.19241 15.5994 3.30942 19.4346 2.54656C23.2697 1.7837 27.245 2.17522 30.8576 3.67163C34.4703 5.16804 37.5581 7.70212 39.7305 10.9534C41.903 14.2047 43.0625 18.0272 43.0625 21.9375C43.0625 27.1811 40.9795 32.2098 37.2718 35.9176C33.564 39.6253 28.5352 41.7083 23.2917 41.7083Z" fill="#EBCB00"/>
<path d="M16.7917 5.95831C16.7917 6.38929 17.4766 6.80262 18.6956 7.10736C19.9145 7.41211 21.5678 7.58331 23.2917 7.58331C25.0157 7.58331 26.669 7.41211 27.8879 7.10736C29.1069 6.80262 29.7917 6.38929 29.7917 5.95831C29.7917 5.52734 29.1069 5.11401 27.8879 4.80926C26.669 4.50452 25.0157 4.33331 23.2917 4.33331C21.5678 4.33331 19.9145 4.50452 18.6956 4.80926C17.4766 5.11401 16.7917 5.52734 16.7917 5.95831Z" fill="#FFF48C"/>
<path d="M42.6726 32.9767C40.7195 36.8929 37.6262 40.1258 33.8001 42.25L32.5868 39.4117L31.9909 38.0142C31.5853 37.0001 31.3914 35.9138 31.4212 34.8221C31.451 33.7303 31.7039 32.6562 32.1643 31.6658C32.5398 30.7787 33.1174 29.9916 33.8509 29.3672C34.5844 28.7428 35.4536 28.2983 36.3893 28.0692C37.3111 27.8499 38.2771 27.9066 39.167 28.2321C40.0569 28.5576 40.8315 29.1377 41.3943 29.9C41.7687 30.3779 42.0582 30.9165 42.2501 31.4925L42.6726 32.9767Z" fill="#EBCB00"/>
<path opacity="0.15" d="M5.95825 49.2917C5.95825 49.7227 7.78444 50.136 11.0351 50.4407C14.2857 50.7455 18.6945 50.9167 23.2916 50.9167C27.8887 50.9167 32.2975 50.7455 35.5481 50.4407C38.7987 50.136 40.6249 49.7227 40.6249 49.2917C40.6249 48.8607 38.7987 48.4474 35.5481 48.1426C32.2975 47.8379 27.8887 47.6667 23.2916 47.6667C18.6945 47.6667 14.2857 47.8379 11.0351 48.1426C7.78444 48.4474 5.95825 48.8607 5.95825 49.2917Z" fill="#45413C"/>
<path d="M1.625 23.2917C1.625 29.038 3.90773 34.549 7.97102 38.6123C12.0343 42.6756 17.5453 44.9583 23.2917 44.9583C29.038 44.9583 34.549 42.6756 38.6123 38.6123C42.6756 34.549 44.9583 29.038 44.9583 23.2917C44.9583 17.5453 42.6756 12.0343 38.6123 7.97102C34.549 3.90773 29.038 1.625 23.2917 1.625C17.5453 1.625 12.0343 3.90773 7.97102 7.97102C3.90773 12.0343 1.625 17.5453 1.625 23.2917Z" stroke="#45413C" stroke-linecap="round" stroke-linejoin="round"/>
<path d="M49.8333 32.37C50.1871 33.0587 50.3771 33.8199 50.3884 34.5941C50.3997 35.3683 50.2319 36.1346 49.8983 36.8334C49.5434 37.6372 49.0293 38.3608 48.3869 38.9604C47.7445 39.56 46.9872 40.0231 46.1608 40.3217L37.2233 43.3334L33.5833 34.6667C33.258 33.8499 33.1018 32.9756 33.1242 32.0967C33.1465 31.2178 33.3469 30.3526 33.7133 29.5534C34.0195 28.8389 34.487 28.2051 35.079 27.7014C35.671 27.1977 36.3715 26.8379 37.1258 26.65C38.1172 26.4198 39.1591 26.5808 40.0349 27.0994C40.9106 27.6179 41.5527 28.4542 41.8274 29.4342L42.5208 31.6659L44.6874 30.7017C45.5966 30.2739 46.6345 30.2084 47.5903 30.5182C48.5461 30.8281 49.348 31.4902 49.8333 32.37Z" fill="#FF6242"/>
<path d="M35.2193 30.7775C36.2138 30.5454 37.2595 30.7081 38.1365 31.2314C39.0134 31.7547 39.6531 32.5979 39.9209 33.5833L40.6143 35.75L42.781 34.7858C43.6968 34.3399 44.7496 34.2657 45.7189 34.5787C46.6883 34.8917 47.4989 35.5677 47.9809 36.465C48.3686 37.179 48.5628 37.9819 48.5443 38.7942C49.1077 38.2255 49.5661 37.5616 49.8985 36.8333C50.2321 36.1346 50.3998 35.3683 50.3886 34.594C50.3773 33.8198 50.1873 33.0587 49.8334 32.37C49.3494 31.4746 48.5387 30.8004 47.5702 30.4877C46.6016 30.1749 45.5497 30.2477 44.6334 30.6908L42.4668 31.655L41.7734 29.4233C41.4987 28.4434 40.8566 27.6071 39.9809 27.0885C39.1051 26.5699 38.0632 26.409 37.0718 26.6392C36.3175 26.827 35.617 27.1869 35.025 27.6906C34.433 28.1942 33.9655 28.8281 33.6593 29.5425C33.3235 30.2907 33.1324 31.0957 33.0959 31.915C33.6893 31.3528 34.4225 30.96 35.2193 30.7775Z" fill="#FF866E"/>
<path d="M49.8333 32.37C50.1871 33.0587 50.3771 33.8199 50.3884 34.5941C50.3997 35.3683 50.2319 36.1346 49.8983 36.8334C49.5434 37.6372 49.0293 38.3608 48.3869 38.9604C47.7445 39.56 46.9872 40.0231 46.1608 40.3217L37.2233 43.3334L33.5833 34.6667C33.258 33.8499 33.1018 32.9756 33.1242 32.0967C33.1465 31.2178 33.3469 30.3526 33.7133 29.5534C34.0195 28.8389 34.487 28.2051 35.079 27.7014C35.671 27.1977 36.3715 26.8379 37.1258 26.65C38.1172 26.4198 39.1591 26.5808 40.0349 27.0994C40.9106 27.6179 41.5527 28.4542 41.8274 29.4342L42.5208 31.6659L44.6874 30.7017C45.5966 30.2739 46.6345 30.2084 47.5903 30.5182C48.5461 30.8281 49.348 31.4902 49.8333 32.37Z" stroke="#45413C" stroke-linecap="round" stroke-linejoin="round"/>
<path d="M23.3025 30.6258C23.6316 30.4349 24.0053 30.334 24.3858 30.3333C24.9605 30.3333 25.5116 30.5616 25.9179 30.9679C26.3242 31.3742 26.5525 31.9253 26.5525 32.5C26.5525 33.0746 26.3242 33.6257 25.9179 34.032C25.5116 34.4384 24.9605 34.6666 24.3858 34.6666C24.9605 34.6666 25.5116 34.8949 25.9179 35.3012C26.3242 35.7076 26.5525 36.2587 26.5525 36.8333C26.5525 37.4079 26.3242 37.9591 25.9179 38.3654C25.5116 38.7717 24.9605 39 24.3858 39C24.0053 38.9993 23.6316 38.8984 23.3025 38.7075" stroke="#45413C" stroke-linecap="round" stroke-linejoin="round"/>
<path d="M7.58325 28.7083C7.58325 29.6075 8.79659 30.3333 10.2916 30.3333C11.7866 30.3333 12.9999 29.6075 12.9999 28.7083C12.9999 27.8091 11.7866 27.0833 10.2916 27.0833C8.79659 27.0833 7.58325 27.8091 7.58325 28.7083Z" fill="#FFAA54"/>
<path d="M38.4584 22.2083C38.4584 22.7111 38.2587 23.1933 37.9031 23.5489C37.5476 23.9044 37.0654 24.1041 36.5626 24.1041C36.0598 24.1041 35.5776 23.9044 35.222 23.5489C34.8665 23.1933 34.6667 22.7111 34.6667 22.2083" stroke="#45413C" stroke-linecap="round" stroke-linejoin="round"/>
<path d="M11.9167 22.2083C11.9167 22.7111 11.7169 23.1933 11.3614 23.5489C11.0059 23.9044 10.5236 24.1041 10.0208 24.1041C9.51803 24.1041 9.03581 23.9044 8.68028 23.5489C8.32474 23.1933 8.125 22.7111 8.125 22.2083" stroke="#45413C" stroke-linecap="round" stroke-linejoin="round"/>
</svg>
