<svg width="52" height="53" viewBox="0 0 52 53" fill="none" xmlns="http://www.w3.org/2000/svg">
<path d="M4.33325 23.7917C4.33325 29.538 6.61598 35.049 10.6793 39.1123C14.7426 43.1756 20.2536 45.4583 25.9999 45.4583C31.7463 45.4583 37.2573 43.1756 41.3206 39.1123C45.3839 35.049 47.6666 29.538 47.6666 23.7917C47.6666 18.0453 45.3839 12.5343 41.3206 8.47102C37.2573 4.40773 31.7463 2.125 25.9999 2.125C20.2536 2.125 14.7426 4.40773 10.6793 8.47102C6.61598 12.5343 4.33325 18.0453 4.33325 23.7917Z" fill="#FFE500"/>
<path d="M25.9999 2.125C21.7147 2.125 17.5256 3.39573 13.9626 5.77649C10.3995 8.15725 7.62244 11.5411 5.98254 15.5002C4.34264 19.4593 3.91357 23.8157 4.74958 28.0186C5.58559 32.2215 7.64914 36.0822 10.6793 39.1123C13.7094 42.1424 17.5701 44.206 21.773 45.042C25.9759 45.878 30.3323 45.4489 34.2914 43.8091C38.2505 42.1692 41.6343 39.3921 44.0151 35.829C46.3959 32.266 47.6666 28.0769 47.6666 23.7917C47.6666 18.0453 45.3839 12.5343 41.3206 8.47102C37.2573 4.40773 31.7463 2.125 25.9999 2.125ZM25.9999 42.2083C22.0896 42.2083 18.2671 41.0488 15.0158 38.8763C11.7645 36.7039 9.23047 33.6161 7.73406 30.0035C6.23765 26.3908 5.84612 22.4156 6.60899 18.5804C7.37185 14.7452 9.25484 11.2224 12.0198 8.45741C14.7848 5.69241 18.3077 3.80942 22.1428 3.04656C25.978 2.2837 29.9532 2.67522 33.5659 4.17163C37.1785 5.66804 40.2663 8.20212 42.4388 11.4534C44.6112 14.7047 45.7708 18.5272 45.7708 22.4375C45.7708 27.681 43.6878 32.7098 39.98 36.4176C36.2723 40.1253 31.2435 42.2083 25.9999 42.2083Z" fill="#EBCB00"/>
<path d="M19.5 6.45831C19.5 6.88929 20.1848 7.30262 21.4038 7.60736C22.6228 7.91211 24.2761 8.08331 26 8.08331C27.7239 8.08331 29.3772 7.91211 30.5962 7.60736C31.8152 7.30262 32.5 6.88929 32.5 6.45831C32.5 6.02734 31.8152 5.61401 30.5962 5.30926C29.3772 5.00452 27.7239 4.83331 26 4.83331C24.2761 4.83331 22.6228 5.00452 21.4038 5.30926C20.1848 5.61401 19.5 6.02734 19.5 6.45831Z" fill="#FFF48C"/>
<path opacity="0.15" d="M8.66675 49.7917C8.66675 50.2227 10.4929 50.636 13.7436 50.9407C16.9942 51.2455 21.403 51.4167 26.0001 51.4167C30.5972 51.4167 35.006 51.2455 38.2566 50.9407C41.5072 50.636 43.3334 50.2227 43.3334 49.7917C43.3334 49.3607 41.5072 48.9474 38.2566 48.6426C35.006 48.3379 30.5972 48.1667 26.0001 48.1667C21.403 48.1667 16.9942 48.3379 13.7436 48.6426C10.4929 48.9474 8.66675 49.3607 8.66675 49.7917Z" fill="#724CF9"/>
<path d="M31.4166 32.4366C29.8132 33.5079 27.9282 34.0797 25.9999 34.0797C24.0716 34.0797 22.1866 33.5079 20.5833 32.4366" stroke="#45413C" stroke-linecap="round"/>
<path d="M41.7084 29.2083C41.7084 30.1075 40.4951 30.8333 39.0001 30.8333C37.5051 30.8333 36.2917 30.1075 36.2917 29.2083C36.2917 28.3091 37.5051 27.5833 39.0001 27.5833C40.4951 27.5833 41.7084 28.3091 41.7084 29.2083Z" fill="#FFAA54"/>
<path d="M10.2917 29.2083C10.2917 30.1075 11.5051 30.8333 13.0001 30.8333C14.4951 30.8333 15.7084 30.1075 15.7084 29.2083C15.7084 28.3091 14.4951 27.5833 13.0001 27.5833C11.5051 27.5833 10.2917 28.3091 10.2917 29.2083Z" fill="#FFAA54"/>
<path d="M41.1667 22.7083C41.1667 23.2111 40.9669 23.6933 40.6114 24.0489C40.2559 24.4044 39.7736 24.6041 39.2708 24.6041C38.768 24.6041 38.2858 24.4044 37.9303 24.0489C37.5747 23.6933 37.375 23.2111 37.375 22.7083" stroke="#45413C" stroke-linecap="round" stroke-linejoin="round"/>
<path d="M14.6249 22.7083C14.6249 23.2111 14.4252 23.6933 14.0696 24.0489C13.7141 24.4044 13.2319 24.6041 12.7291 24.6041C12.2263 24.6041 11.7441 24.4044 11.3885 24.0489C11.033 23.6933 10.8333 23.2111 10.8333 22.7083" stroke="#45413C" stroke-linecap="round" stroke-linejoin="round"/>
<path d="M4.33325 23.7917C4.33325 29.538 6.61598 35.049 10.6793 39.1123C14.7426 43.1756 20.2536 45.4583 25.9999 45.4583C31.7463 45.4583 37.2573 43.1756 41.3206 39.1123C45.3839 35.049 47.6666 29.538 47.6666 23.7917C47.6666 18.0453 45.3839 12.5343 41.3206 8.47102C37.2573 4.40773 31.7463 2.125 25.9999 2.125C20.2536 2.125 14.7426 4.40773 10.6793 8.47102C6.61598 12.5343 4.33325 18.0453 4.33325 23.7917Z" stroke="#45413C" stroke-linecap="round" stroke-linejoin="round"/>
</svg>
