<svg width="46" height="50" viewBox="0 0 46 50" fill="none" xmlns="http://www.w3.org/2000/svg">
<path d="M1.33325 22.2917C1.33325 28.038 3.61598 33.549 7.67927 37.6123C11.7426 41.6756 17.2536 43.9583 22.9999 43.9583C28.7463 43.9583 34.2573 41.6756 38.3206 37.6123C42.3839 33.549 44.6666 28.038 44.6666 22.2917C44.6666 16.5453 42.3839 11.0343 38.3206 6.97102C34.2573 2.90773 28.7463 0.625 22.9999 0.625C17.2536 0.625 11.7426 2.90773 7.67927 6.97102C3.61598 11.0343 1.33325 16.5453 1.33325 22.2917Z" fill="#FFE500"/>
<path d="M22.9999 0.625C18.7147 0.625 14.5256 1.89573 10.9626 4.27649C7.39951 6.65726 4.62244 10.0411 2.98254 14.0002C1.34264 17.9593 0.913568 22.3157 1.74958 26.5186C2.58559 30.7215 4.64914 34.5822 7.67928 37.6123C10.7094 40.6425 14.5701 42.706 18.773 43.542C22.9759 44.378 27.3323 43.949 31.2914 42.3091C35.2505 40.6692 38.6343 37.8921 41.0151 34.329C43.3959 30.766 44.6666 26.5769 44.6666 22.2917C44.6666 16.5453 42.3839 11.0343 38.3206 6.97102C34.2573 2.90773 28.7463 0.625 22.9999 0.625ZM22.9999 40.7083C19.0896 40.7083 15.2671 39.5488 12.0158 37.3763C8.76455 35.2039 6.23047 32.1161 4.73406 28.5035C3.23765 24.8908 2.84612 20.9156 3.60899 17.0804C4.37185 13.2452 6.25484 9.72241 9.01984 6.95741C11.7848 4.19241 15.3077 2.30942 19.1428 1.54656C22.978 0.783696 26.9533 1.17522 30.5659 2.67163C34.1785 4.16804 37.2663 6.70212 39.4388 9.95341C41.6112 13.2047 42.7708 17.0272 42.7708 20.9375C42.7708 26.1811 40.6878 31.2098 36.98 34.9176C33.2723 38.6253 28.2435 40.7083 22.9999 40.7083Z" fill="#EBCB00"/>
<path d="M16.5 4.95831C16.5 5.38929 17.1848 5.80262 18.4038 6.10736C19.6228 6.41211 21.2761 6.58331 23 6.58331C24.7239 6.58331 26.3772 6.41211 27.5962 6.10736C28.8152 5.80262 29.5 5.38929 29.5 4.95831C29.5 4.52734 28.8152 4.11401 27.5962 3.80926C26.3772 3.50452 24.7239 3.33331 23 3.33331C21.2761 3.33331 19.6228 3.50452 18.4038 3.80926C17.1848 4.11401 16.5 4.52734 16.5 4.95831Z" fill="#FFF48C"/>
<path d="M1.33325 22.2917C1.33325 28.038 3.61598 33.549 7.67927 37.6123C11.7426 41.6756 17.2536 43.9583 22.9999 43.9583C28.7463 43.9583 34.2573 41.6756 38.3206 37.6123C42.3839 33.549 44.6666 28.038 44.6666 22.2917C44.6666 16.5453 42.3839 11.0343 38.3206 6.97102C34.2573 2.90773 28.7463 0.625 22.9999 0.625C17.2536 0.625 11.7426 2.90773 7.67927 6.97102C3.61598 11.0343 1.33325 16.5453 1.33325 22.2917Z" stroke="#45413C" stroke-linecap="round" stroke-linejoin="round"/>
<path opacity="0.15" d="M5.66675 47.7067C5.66675 48.1376 7.49293 48.551 10.7436 48.8557C13.9942 49.1605 18.403 49.3317 23.0001 49.3317C27.5972 49.3317 32.006 49.1605 35.2566 48.8557C38.5072 48.551 40.3334 48.1376 40.3334 47.7067C40.3334 47.2757 38.5072 46.8624 35.2566 46.5576C32.006 46.2529 27.5972 46.0817 23.0001 46.0817C18.403 46.0817 13.9942 46.2529 10.7436 46.5576C7.49293 46.8624 5.66675 47.2757 5.66675 47.7067Z" fill="#45413C"/>
<path d="M11.0833 23.375C12.3548 23.1701 13.5865 22.768 14.7341 22.1833C15.886 21.6099 16.9392 20.8566 17.8541 19.9517" stroke="#45413C" stroke-linecap="round" stroke-linejoin="round"/>
<path d="M34.9166 23.375C33.6451 23.1701 32.4133 22.768 31.2658 22.1833C30.1138 21.6099 29.0606 20.8566 28.1458 19.9517" stroke="#45413C" stroke-linecap="round" stroke-linejoin="round"/>
<path d="M38.7084 27.7083C38.7084 28.6075 37.4951 29.3333 36.0001 29.3333C34.5051 29.3333 33.2917 28.6075 33.2917 27.7083C33.2917 26.8091 34.5051 26.0833 36.0001 26.0833C37.4951 26.0833 38.7084 26.8091 38.7084 27.7083Z" fill="#FFAA54"/>
<path d="M7.29175 27.7083C7.29175 28.6075 8.50508 29.3333 10.0001 29.3333C11.4951 29.3333 12.7084 28.6075 12.7084 27.7083C12.7084 26.8091 11.4951 26.0833 10.0001 26.0833C8.50508 26.0833 7.29175 26.8091 7.29175 27.7083Z" fill="#FFAA54"/>
<path d="M17.5833 34.23C19.1866 33.1587 21.0716 32.5869 22.9999 32.5869C24.9282 32.5869 26.8132 33.1587 28.4166 34.23" stroke="#45413C" stroke-linecap="round"/>
</svg>
