<svg width="52" height="52" viewBox="0 0 52 52" fill="none" xmlns="http://www.w3.org/2000/svg">
<path d="M4.33325 23.2917C4.33325 29.038 6.61598 34.549 10.6793 38.6123C14.7426 42.6756 20.2536 44.9583 25.9999 44.9583C31.7463 44.9583 37.2573 42.6756 41.3206 38.6123C45.3839 34.549 47.6666 29.038 47.6666 23.2917C47.6666 17.5453 45.3839 12.0343 41.3206 7.97102C37.2573 3.90773 31.7463 1.625 25.9999 1.625C20.2536 1.625 14.7426 3.90773 10.6793 7.97102C6.61598 12.0343 4.33325 17.5453 4.33325 23.2917Z" fill="#6DD627"/>
<path d="M25.9999 1.625C21.7147 1.625 17.5256 2.89573 13.9626 5.27649C10.3995 7.65726 7.62244 11.0411 5.98254 15.0002C4.34264 18.9593 3.91357 23.3157 4.74958 27.5186C5.58559 31.7215 7.64914 35.5822 10.6793 38.6123C13.7094 41.6425 17.5701 43.706 21.773 44.542C25.9759 45.378 30.3323 44.949 34.2914 43.3091C38.2505 41.6692 41.6343 38.8921 44.0151 35.329C46.3959 31.766 47.6666 27.5769 47.6666 23.2917C47.6666 17.5453 45.3839 12.0343 41.3206 7.97102C37.2573 3.90773 31.7463 1.625 25.9999 1.625ZM25.9999 41.7083C22.0896 41.7083 18.2671 40.5488 15.0158 38.3763C11.7645 36.2039 9.23047 33.1161 7.73406 29.5035C6.23765 25.8908 5.84612 21.9156 6.60899 18.0804C7.37185 14.2452 9.25484 10.7224 12.0198 7.95741C14.7848 5.19241 18.3077 3.30942 22.1428 2.54656C25.978 1.7837 29.9533 2.17522 33.5659 3.67163C37.1785 5.16804 40.2663 7.70212 42.4388 10.9534C44.6112 14.2047 45.7708 18.0272 45.7708 21.9375C45.7708 27.1811 43.6878 32.2098 39.98 35.9176C36.2723 39.6253 31.2435 41.7083 25.9999 41.7083Z" fill="#46B000"/>
<path d="M19.5 5.95831C19.5 6.38929 20.1848 6.80262 21.4038 7.10736C22.6228 7.41211 24.2761 7.58331 26 7.58331C27.7239 7.58331 29.3772 7.41211 30.5962 7.10736C31.8152 6.80262 32.5 6.38929 32.5 5.95831C32.5 5.52734 31.8152 5.11401 30.5962 4.80926C29.3772 4.50452 27.7239 4.33331 26 4.33331C24.2761 4.33331 22.6228 4.50452 21.4038 4.80926C20.1848 5.11401 19.5 5.52734 19.5 5.95831Z" fill="#9CEB60"/>
<path opacity="0.15" d="M8.66675 49.2917C8.66675 49.7227 10.4929 50.136 13.7436 50.4407C16.9942 50.7455 21.403 50.9167 26.0001 50.9167C30.5972 50.9167 35.006 50.7455 38.2566 50.4407C41.5072 50.136 43.3334 49.7227 43.3334 49.2917C43.3334 48.8607 41.5072 48.4474 38.2566 48.1426C35.006 47.8379 30.5972 47.6667 26.0001 47.6667C21.403 47.6667 16.9942 47.8379 13.7436 48.1426C10.4929 48.4474 8.66675 48.8607 8.66675 49.2917Z" fill="#45413C"/>
<path d="M4.33325 23.2917C4.33325 29.038 6.61598 34.549 10.6793 38.6123C14.7426 42.6756 20.2536 44.9583 25.9999 44.9583C31.7463 44.9583 37.2573 42.6756 41.3206 38.6123C45.3839 34.549 47.6666 29.038 47.6666 23.2917C47.6666 17.5453 45.3839 12.0343 41.3206 7.97102C37.2573 3.90773 31.7463 1.625 25.9999 1.625C20.2536 1.625 14.7426 3.90773 10.6793 7.97102C6.61598 12.0343 4.33325 17.5453 4.33325 23.2917Z" stroke="#45413C" stroke-linecap="round" stroke-linejoin="round"/>
<path d="M41.7084 29.25C41.7084 30.1492 40.4951 30.875 39.0001 30.875C37.5051 30.875 36.2917 30.1492 36.2917 29.25C36.2917 28.3508 37.5051 27.625 39.0001 27.625C40.4951 27.625 41.7084 28.3508 41.7084 29.25Z" fill="#46B000"/>
<path d="M10.2917 29.25C10.2917 30.1492 11.5051 30.875 13.0001 30.875C14.4951 30.875 15.7084 30.1492 15.7084 29.25C15.7084 28.3508 14.4951 27.625 13.0001 27.625C11.5051 27.625 10.2917 28.3508 10.2917 29.25Z" fill="#46B000"/>
<path d="M15.7084 23.2916C15.7084 23.5059 15.6449 23.7154 15.5258 23.8935C15.4068 24.0717 15.2376 24.2105 15.0397 24.2925C14.8417 24.3745 14.6239 24.396 14.4137 24.3542C14.2036 24.3124 14.0106 24.2092 13.859 24.0577C13.7075 23.9062 13.6044 23.7131 13.5626 23.503C13.5208 23.2928 13.5422 23.075 13.6242 22.8771C13.7062 22.6791 13.8451 22.5099 14.0232 22.3909C14.2014 22.2718 14.4108 22.2083 14.6251 22.2083C14.9124 22.2083 15.1879 22.3224 15.3911 22.5256C15.5943 22.7288 15.7084 23.0043 15.7084 23.2916Z" fill="#45413C" stroke="#45413C" stroke-linecap="round" stroke-linejoin="round"/>
<path d="M36.2917 23.2916C36.2917 23.5059 36.3553 23.7154 36.4743 23.8935C36.5934 24.0717 36.7626 24.2105 36.9605 24.2925C37.1585 24.3745 37.3763 24.396 37.5864 24.3542C37.7966 24.3124 37.9896 24.2092 38.1411 24.0577C38.2926 23.9062 38.3958 23.7131 38.4376 23.503C38.4794 23.2928 38.4579 23.075 38.3759 22.8771C38.294 22.6791 38.1551 22.5099 37.9769 22.3909C37.7988 22.2718 37.5893 22.2083 37.3751 22.2083C37.0878 22.2083 36.8122 22.3224 36.609 22.5256C36.4059 22.7288 36.2917 23.0043 36.2917 23.2916Z" fill="#45413C" stroke="#45413C" stroke-linecap="round" stroke-linejoin="round"/>
<path d="M36.2917 16.25C36.2917 16.25 38.0034 20.0417 41.7084 20.0417" stroke="#45413C" stroke-linecap="round" stroke-linejoin="round"/>
<path d="M15.7084 16.25C15.7084 16.25 13.9967 20.0417 10.2917 20.0417" stroke="#45413C" stroke-linecap="round" stroke-linejoin="round"/>
<path d="M20.0417 31.4384H31.9584" stroke="#45413C" stroke-linecap="round" stroke-linejoin="round"/>
<path d="M33.0849 34.1683C32.3756 33.4453 31.9783 32.4728 31.9783 31.46C31.9783 30.4471 32.3756 29.4747 33.0849 28.7516" stroke="#45413C" stroke-linecap="round" stroke-linejoin="round"/>
<path d="M18.915 28.7083C19.6243 29.4314 20.0217 30.4038 20.0217 31.4166C20.0217 32.4295 19.6243 33.4019 18.915 34.125" stroke="#45413C" stroke-linecap="round" stroke-linejoin="round"/>
</svg>
