<svg width="52" height="52" viewBox="0 0 52 52" fill="none" xmlns="http://www.w3.org/2000/svg">
<path d="M4.33325 22.2084C4.33325 27.9547 6.61598 33.4657 10.6793 37.529C14.7426 41.5923 20.2536 43.875 25.9999 43.875C31.7463 43.875 37.2573 41.5923 41.3206 37.529C45.3839 33.4657 47.6666 27.9547 47.6666 22.2084C47.6666 16.462 45.3839 10.951 41.3206 6.88771C37.2573 2.82442 31.7463 0.541687 25.9999 0.541687C20.2536 0.541687 14.7426 2.82442 10.6793 6.88771C6.61598 10.951 4.33325 16.462 4.33325 22.2084Z" fill="#FFE500"/>
<path d="M25.9999 0.541687C21.7147 0.541687 17.5256 1.81242 13.9626 4.19318C10.3995 6.57394 7.62244 9.95781 5.98254 13.9169C4.34264 17.8759 3.91357 22.2324 4.74958 26.4353C5.58559 30.6382 7.64914 34.4989 10.6793 37.529C13.7094 40.5591 17.5701 42.6227 21.773 43.4587C25.9759 44.2947 30.3323 43.8656 34.2914 42.2257C38.2505 40.5858 41.6343 37.8088 44.0151 34.2457C46.3959 30.6826 47.6666 26.4936 47.6666 22.2084C47.6666 19.363 47.1062 16.5456 46.0173 13.9169C44.9285 11.2882 43.3325 8.89964 41.3206 6.88771C39.3086 4.87577 36.9201 3.27982 34.2914 2.19096C31.6627 1.10211 28.8452 0.541687 25.9999 0.541687ZM25.9999 40.625C22.0896 40.625 18.2671 39.4655 15.0158 37.293C11.7645 35.1206 9.23047 32.0328 7.73406 28.4202C6.23765 24.8075 5.84612 20.8323 6.60899 16.9971C7.37185 13.1619 9.25484 9.6391 12.0198 6.8741C14.7848 4.1091 18.3077 2.22611 22.1428 1.46324C25.978 0.700383 29.9533 1.09191 33.5659 2.58832C37.1785 4.08473 40.2663 6.6188 42.4388 9.8701C44.6112 13.1214 45.7708 16.9439 45.7708 20.8542C45.7708 26.0977 43.6878 31.1265 39.98 34.8343C36.2723 38.542 31.2435 40.625 25.9999 40.625Z" fill="#EBCB00"/>
<path d="M19.2507 7.89752C19.2507 8.11092 19.4189 8.32223 19.7455 8.51938C20.0722 8.71654 20.551 8.89568 21.1545 9.04657C21.7581 9.19747 22.4747 9.31716 23.2633 9.39883C24.0519 9.48049 24.8971 9.52252 25.7507 9.52252C26.6043 9.52252 27.4496 9.48049 28.2382 9.39883C29.0268 9.31716 29.7433 9.19747 30.3469 9.04657C30.9505 8.89568 31.4293 8.71654 31.7559 8.51938C32.0826 8.32223 32.2507 8.11092 32.2507 7.89752C32.2507 7.68412 32.0826 7.47282 31.7559 7.27566C31.4293 7.07851 30.9505 6.89937 30.3469 6.74847C29.7433 6.59758 29.0268 6.47788 28.2382 6.39622C27.4496 6.31455 26.6043 6.27252 25.7507 6.27252C24.8971 6.27252 24.0519 6.31455 23.2633 6.39622C22.4747 6.47788 21.7581 6.59758 21.1545 6.74847C20.551 6.89937 20.0722 7.07851 19.7455 7.27566C19.4189 7.47282 19.2507 7.68412 19.2507 7.89752Z" fill="#FFF48C"/>
<path d="M4.33325 22.2084C4.33325 27.9547 6.61598 33.4657 10.6793 37.529C14.7426 41.5923 20.2536 43.875 25.9999 43.875C31.7463 43.875 37.2573 41.5923 41.3206 37.529C45.3839 33.4657 47.6666 27.9547 47.6666 22.2084C47.6666 16.462 45.3839 10.951 41.3206 6.88771C37.2573 2.82442 31.7463 0.541687 25.9999 0.541687C20.2536 0.541687 14.7426 2.82442 10.6793 6.88771C6.61598 10.951 4.33325 16.462 4.33325 22.2084Z" stroke="#45413C" stroke-linecap="round" stroke-linejoin="round"/>
<path opacity="0.15" d="M8.66675 48.5225C8.66675 48.9535 10.4929 49.3668 13.7436 49.6716C16.9942 49.9763 21.403 50.1475 26.0001 50.1475C30.5972 50.1475 35.006 49.9763 38.2566 49.6716C41.5072 49.3668 43.3334 48.9535 43.3334 48.5225C43.3334 48.0915 41.5072 47.6782 38.2566 47.3735C35.006 47.0687 30.5972 46.8975 26.0001 46.8975C21.403 46.8975 16.9942 47.0687 13.7436 47.3735C10.4929 47.6782 8.66675 48.0915 8.66675 48.5225Z" fill="#45413C"/>
<path d="M43.3334 27.625C43.3334 28.5242 42.1201 29.25 40.6251 29.25C39.1301 29.25 37.9167 28.5242 37.9167 27.625C37.9167 26.7258 39.1301 26 40.6251 26C42.1201 26 43.3334 26.7258 43.3334 27.625Z" fill="#FFAA54"/>
<path d="M8.66675 27.625C8.66675 28.5242 9.88008 29.25 11.3751 29.25C12.8701 29.25 14.0834 28.5242 14.0834 27.625C14.0834 26.7258 12.8701 26 11.3751 26C9.88008 26 8.66675 26.7258 8.66675 27.625Z" fill="#FFAA54"/>
<path d="M17.8424 29.1742C18.384 37.8408 23.3565 41.0908 25.2632 42.1742C25.4875 42.3024 25.7415 42.3699 25.9999 42.3699C26.2583 42.3699 26.5122 42.3024 26.7365 42.1742C28.6432 41.0908 33.6157 37.9275 34.1574 29.1742C34.1693 28.9712 34.1393 28.7679 34.0694 28.577C33.9994 28.3861 33.891 28.2115 33.7508 28.0642C33.6107 27.917 33.4417 27.8 33.2545 27.7208C33.0672 27.6415 32.8657 27.6015 32.6624 27.6033H19.3374C19.1341 27.6015 18.9325 27.6415 18.7453 27.7208C18.558 27.8 18.3891 27.917 18.2489 28.0642C18.1087 28.2115 18.0003 28.3861 17.9304 28.577C17.8605 28.7679 17.8305 28.9712 17.8424 29.1742Z" fill="#FFB0CA" stroke="#45413C" stroke-linecap="round" stroke-linejoin="round"/>
<path d="M26 35.5333C26 33.4967 32.1208 34.0925 32.1208 36.2159V45.0559C32.1208 46.6792 31.4759 48.2361 30.3281 49.3839C29.1802 50.5318 27.6233 51.1767 26 51.1767C24.3766 51.1767 22.8198 50.5318 21.6719 49.3839C20.524 48.2361 19.8792 46.6792 19.8792 45.0559V36.2159C19.8792 34.0925 26 33.4967 26 35.5333Z" fill="#6DD627"/>
<path d="M26 35.5333C26 33.4967 19.8792 34.0925 19.8792 36.2159V38.935C19.8792 36.7683 32.1208 36.7683 32.1208 38.935V36.2159C32.1208 34.0925 26 33.4967 26 35.5333Z" fill="#46B000"/>
<path d="M26 35.5333C26 33.4967 32.1208 34.0925 32.1208 36.2159V45.0559C32.1208 46.6792 31.4759 48.2361 30.3281 49.3839C29.1802 50.5318 27.6233 51.1767 26 51.1767C24.3766 51.1767 22.8198 50.5318 21.6719 49.3839C20.524 48.2361 19.8792 46.6792 19.8792 45.0559V36.2159C19.8792 34.0925 26 33.4967 26 35.5333Z" stroke="#45413C" stroke-linecap="round" stroke-linejoin="round"/>
<path d="M14.7983 22.5225V20.5833L13.975 20.3125C13.6728 20.2184 13.3849 20.0836 13.1192 19.9116C12.8795 19.7475 12.6826 19.5283 12.545 19.2725C12.3926 18.9745 12.318 18.6428 12.3283 18.3083C12.3213 17.8629 12.4375 17.4243 12.6642 17.0408C12.8761 16.6682 13.1825 16.358 13.5525 16.1416C13.9312 15.9118 14.3572 15.7711 14.7983 15.73V15.3725C14.7983 15.2425 14.7983 15.145 14.7983 15.0691C14.8097 15.0073 14.84 14.9505 14.885 14.9066C14.9138 14.8795 14.9479 14.8587 14.9853 14.8456C15.0226 14.8326 15.0623 14.8275 15.1017 14.8308C15.2461 14.8308 15.3328 14.8741 15.3617 14.9608C15.4044 15.0936 15.4227 15.2331 15.4158 15.3725V15.73C15.8817 15.7404 16.3413 15.8397 16.77 16.0225C16.9526 16.075 17.1138 16.184 17.2306 16.3339C17.3474 16.4838 17.4137 16.6668 17.42 16.8566C17.4251 16.9653 17.4085 17.074 17.3713 17.1762C17.3341 17.2785 17.277 17.3724 17.2033 17.4525C17.1372 17.5344 17.0528 17.5996 16.9568 17.6429C16.8608 17.6862 16.756 17.7063 16.6508 17.7016C16.4457 17.6889 16.2442 17.6413 16.055 17.5608C15.8473 17.4849 15.6334 17.4269 15.4158 17.3875V18.9258C15.8642 19.0467 16.3025 19.2025 16.7267 19.3916C17.0891 19.5536 17.4028 19.8076 17.6367 20.1283C17.9163 20.5266 18.0536 21.0074 18.0267 21.4933C18.0275 21.8467 17.9575 22.1966 17.8208 22.5225C17.6958 22.8318 17.5034 23.1094 17.2575 23.335C17.0138 23.5715 16.7269 23.7591 16.4125 23.8875C16.0957 24.0213 15.7589 24.1018 15.4158 24.1258V24.4941C15.4234 24.5879 15.4234 24.6821 15.4158 24.7758C15.4159 24.81 15.4093 24.8438 15.3963 24.8754C15.3832 24.907 15.3641 24.9358 15.34 24.96C15.3112 24.9871 15.2771 25.0079 15.2397 25.021C15.2024 25.034 15.1628 25.0391 15.1233 25.0358C14.9825 25.0358 14.8958 25.0358 14.8633 24.895C14.8232 24.7653 14.8049 24.6298 14.8092 24.4941V24.1583C14.4451 24.1447 14.0828 24.1012 13.7258 24.0283C13.3746 23.9706 13.0411 23.8335 12.7508 23.6275C12.626 23.5517 12.5226 23.4452 12.4505 23.3181C12.3785 23.1911 12.3401 23.0477 12.3392 22.9016C12.333 22.686 12.4107 22.4763 12.5558 22.3166C12.6255 22.2397 12.7109 22.1786 12.8062 22.1375C12.9015 22.0964 13.0046 22.0762 13.1083 22.0783C13.3946 22.1077 13.6754 22.177 13.9425 22.2841C14.2208 22.3869 14.507 22.4666 14.7983 22.5225ZM14.7983 18.7416V17.4308C14.6335 17.4718 14.4834 17.5581 14.365 17.68C14.253 17.8007 14.1911 17.9595 14.1917 18.1241C14.1911 18.1909 14.2043 18.2571 14.2304 18.3186C14.2565 18.3801 14.2949 18.4356 14.3433 18.4816C14.4805 18.5916 14.634 18.6793 14.7983 18.7416ZM15.4267 20.7891V22.4683C15.6418 22.4253 15.8342 22.3061 15.9683 22.1325C16.101 21.9663 16.1735 21.7601 16.1742 21.5475C16.1742 21.2116 15.925 20.9625 15.4267 20.7891Z" fill="#45413C"/>
<path d="M37.5483 22.5225V20.5833L36.725 20.3125C36.4236 20.2163 36.136 20.0815 35.8691 19.9116C35.6295 19.7475 35.4326 19.5283 35.295 19.2725C35.1425 18.9745 35.068 18.6428 35.0783 18.3083C35.0761 17.8635 35.192 17.4261 35.4141 17.0408C35.626 16.6682 35.9325 16.358 36.3025 16.1416C36.6812 15.9118 37.1072 15.7711 37.5483 15.73V15.3725C37.5409 15.2715 37.5409 15.1701 37.5483 15.0691C37.5493 15.0383 37.5565 15.008 37.5695 14.9801C37.5826 14.9522 37.6012 14.9272 37.6241 14.9066C37.6529 14.8795 37.6871 14.8587 37.7244 14.8456C37.7617 14.8326 37.8014 14.8275 37.8408 14.8308C37.978 14.8308 38.0647 14.8741 38.1008 14.9608C38.1435 15.0936 38.1618 15.2331 38.155 15.3725V15.73C38.6209 15.7404 39.0805 15.8397 39.5091 16.0225C39.6917 16.075 39.853 16.184 39.9697 16.3339C40.0865 16.4838 40.1528 16.6668 40.1591 16.8566C40.1678 17.074 40.0943 17.2867 39.9533 17.4525C39.8844 17.534 39.7979 17.5988 39.7003 17.6419C39.6027 17.6851 39.4966 17.7055 39.39 17.7016C39.1848 17.6889 38.9833 17.6413 38.7941 17.5608C38.5864 17.4849 38.3726 17.4269 38.155 17.3875V18.9258C38.6063 19.0486 39.048 19.2043 39.4766 19.3916C39.8359 19.5539 40.146 19.808 40.3758 20.1283C40.6554 20.5266 40.7928 21.0074 40.7658 21.4933C40.7667 21.8467 40.6967 22.1966 40.56 22.5225C40.435 22.8318 40.2425 23.1094 39.9966 23.335C39.755 23.569 39.4722 23.7563 39.1625 23.8875C38.8415 24.0202 38.5014 24.1007 38.155 24.1258V24.4941C38.155 24.6133 38.155 24.7108 38.155 24.7758C38.1466 24.8449 38.1162 24.9094 38.0683 24.96C38.0395 24.9871 38.0054 25.0079 37.9681 25.021C37.9307 25.034 37.8911 25.0391 37.8516 25.0358C37.7989 25.0432 37.7453 25.0335 37.6985 25.0081C37.6517 24.9828 37.6143 24.9431 37.5916 24.895C37.5515 24.7653 37.5332 24.6298 37.5375 24.4941V24.1583C37.1735 24.1441 36.8112 24.1006 36.4541 24.0283C36.1035 23.9684 35.7705 23.8315 35.4791 23.6275C35.3543 23.5517 35.2509 23.4452 35.1789 23.3181C35.1068 23.1911 35.0685 23.0477 35.0675 22.9016C35.0613 22.686 35.139 22.4763 35.2841 22.3166C35.3538 22.2397 35.4392 22.1786 35.5345 22.1375C35.6298 22.0964 35.7329 22.0762 35.8366 22.0783C36.1231 22.1065 36.4041 22.1759 36.6708 22.2841C36.9561 22.388 37.2497 22.4678 37.5483 22.5225ZM37.5483 18.7416V17.4308C37.3834 17.4718 37.2333 17.5581 37.115 17.68C37.003 17.8007 36.9411 17.9595 36.9416 18.1241C36.9411 18.1909 36.9543 18.2571 36.9803 18.3186C37.0064 18.3801 37.0449 18.4356 37.0933 18.4816C37.2304 18.5916 37.384 18.6793 37.5483 18.7416ZM38.1766 20.7891V22.4683C38.3918 22.4253 38.5841 22.3061 38.7183 22.1325C38.8558 21.969 38.929 21.761 38.9241 21.5475C38.9241 21.2116 38.675 20.9625 38.1766 20.7891Z" fill="#45413C"/>
<path d="M22.7065 42.9325C22.7065 43.8059 23.0535 44.6436 23.6711 45.2612C24.2888 45.8789 25.1264 46.2258 25.9999 46.2258C26.8733 46.2258 27.711 45.8789 28.3286 45.2612C28.9462 44.6436 29.2932 43.8059 29.2932 42.9325C29.2932 42.059 28.9462 41.2214 28.3286 40.6038C27.711 39.9861 26.8733 39.6392 25.9999 39.6392C25.1264 39.6392 24.2888 39.9861 23.6711 40.6038C23.0535 41.2214 22.7065 42.059 22.7065 42.9325Z" fill="#C8FFA1"/>
<path d="M25.6859 45.1208V43.4525L24.9168 43.225C24.6589 43.1378 24.4117 43.0215 24.1801 42.8783C23.971 42.738 23.7998 42.5482 23.6818 42.3258C23.5477 42.0651 23.4842 41.7737 23.4976 41.4808C23.4918 41.1009 23.5892 40.7265 23.7793 40.3975C23.9676 40.0745 24.2363 39.8058 24.5593 39.6175C24.8896 39.4199 25.2596 39.2978 25.6426 39.26V38.9458C25.6362 38.8593 25.6362 38.7724 25.6426 38.6858C25.6524 38.6289 25.6787 38.5761 25.7184 38.5341C25.778 38.5126 25.8431 38.5126 25.9026 38.5341C26.0218 38.5341 26.0976 38.5341 26.1301 38.6425C26.1463 38.7611 26.1463 38.8814 26.1301 39V39.3141C26.5365 39.3262 26.9371 39.4144 27.3109 39.5741C27.4671 39.6208 27.605 39.7145 27.7058 39.8425C27.8066 39.9704 27.8655 40.1264 27.8743 40.2891C27.8761 40.4821 27.811 40.6697 27.6901 40.82C27.6293 40.8891 27.5542 40.9442 27.47 40.9816C27.3859 41.019 27.2947 41.0378 27.2026 41.0366C27.0232 41.0226 26.8475 40.9786 26.6826 40.9066C26.5043 40.8367 26.3191 40.7859 26.1301 40.755V42.0875C26.5183 42.1983 26.8984 42.3359 27.2676 42.4991C27.5834 42.6381 27.8564 42.8587 28.0584 43.1383C28.299 43.4834 28.4172 43.8991 28.3943 44.3191C28.402 44.6193 28.3472 44.9178 28.2335 45.1957C28.1197 45.4735 27.9494 45.7247 27.7334 45.9333C27.5161 46.1293 27.267 46.2868 26.9968 46.3991C26.7225 46.5206 26.4293 46.5939 26.1301 46.6158V46.93C26.1301 47.0383 26.1301 47.1141 26.1301 47.1791C26.1232 47.2401 26.0966 47.2972 26.0543 47.3416C26.0037 47.3864 25.9376 47.4097 25.8701 47.4066C25.8246 47.412 25.7785 47.4035 25.7379 47.3822C25.6973 47.361 25.6641 47.3279 25.6426 47.2875C25.6228 47.1691 25.6228 47.0483 25.6426 46.93V46.5833C25.3149 46.5703 24.9888 46.5305 24.6676 46.4641C24.3615 46.4089 24.0701 46.2909 23.8118 46.1175C23.7161 46.0457 23.6388 45.9524 23.5861 45.8451C23.5333 45.7378 23.5068 45.6195 23.5084 45.5C23.5043 45.4088 23.5184 45.3177 23.5501 45.2322C23.5817 45.1466 23.6302 45.0682 23.6926 45.0016C23.7525 44.9321 23.8277 44.8773 23.9123 44.8416C23.9968 44.8059 24.0885 44.7902 24.1801 44.7958C24.4261 44.8153 24.6675 44.8738 24.8951 44.9691C25.1524 45.0483 25.4176 45.0991 25.6859 45.1208ZM25.6859 41.8708V40.69C25.5405 40.7282 25.409 40.8071 25.3068 40.9175C25.207 41.0226 25.1526 41.1626 25.1551 41.3075C25.1547 41.3643 25.166 41.4205 25.1884 41.4727C25.2108 41.5249 25.2437 41.5719 25.2851 41.6108C25.4058 41.7075 25.5411 41.7843 25.6859 41.8383V41.8708ZM26.2276 43.6475V45.11C26.414 45.0742 26.5802 44.9698 26.6934 44.8175C26.8145 44.6757 26.88 44.4947 26.8776 44.3083C26.8776 43.9833 26.6609 43.7666 26.2276 43.615V43.6475Z" fill="#45413C"/>
</svg>
